<mxfile host="65bd71144e">
    <diagram id="qeznNXRoyxCHfiiOgTcr" name="Page-1">
        <mxGraphModel dx="1440" dy="1431" grid="1" gridSize="10" guides="1" tooltips="1" connect="1" arrows="1" fold="1" page="1" pageScale="1" pageWidth="850" pageHeight="1100" math="0" shadow="0">
            <root>
                <mxCell id="0"/>
                <mxCell id="1" parent="0"/>
                <mxCell id="22" value="" style="group" vertex="1" connectable="0" parent="1">
                    <mxGeometry x="-800" y="-500" width="140" height="93.01" as="geometry"/>
                </mxCell>
                <mxCell id="19" value="&lt;font face=&quot;Comic Sans MS&quot;&gt;&lt;b&gt;Data Source&lt;/b&gt;&lt;/font&gt;" style="shape=rect;html=1;rounded=1;dashed=1;strokeWidth=1;verticalAlign=top;whiteSpace=wrap;align=center;" vertex="1" parent="22">
                    <mxGeometry width="140" height="93.01000000000002" as="geometry"/>
                </mxCell>
                <mxCell id="21" value="&lt;font face=&quot;Comic Sans MS&quot; style=&quot;font-size: 8px;&quot;&gt;&lt;b&gt;TAWOS Database&lt;/b&gt;&lt;/font&gt;" style="verticalLabelPosition=bottom;html=1;verticalAlign=top;align=center;strokeColor=none;fillColor=#00BEF2;shape=mxgraph.azure.sql_database;strokeWidth=1;" vertex="1" parent="22">
                    <mxGeometry x="59.62068965517242" y="32.33999999999998" width="25.586206896551726" height="35.330000000000005" as="geometry"/>
                </mxCell>
                <mxCell id="94" style="edgeStyle=none;shape=connector;rounded=1;html=1;exitX=0.5;exitY=0;exitDx=0;exitDy=0;exitPerimeter=0;entryX=0.5;entryY=1;entryDx=0;entryDy=0;dashed=1;labelBackgroundColor=default;strokeColor=default;fontFamily=Comic Sans MS;fontSize=8;fontColor=#faf5f5;startArrow=none;startFill=0;endArrow=blockThin;endFill=1;" edge="1" parent="1" source="61" target="93">
                    <mxGeometry relative="1" as="geometry"/>
                </mxCell>
                <mxCell id="61" value="&lt;b&gt;&lt;font color=&quot;#000000&quot;&gt;Persist Best Model&lt;/font&gt;&lt;/b&gt;" style="verticalLabelPosition=bottom;html=1;verticalAlign=top;align=center;strokeColor=none;fillColor=#00BEF2;shape=mxgraph.azure.cloud_service_package_file;strokeWidth=1;fontFamily=Comic Sans MS;fontSize=8;fontColor=#f4f0f0;" vertex="1" parent="1">
                    <mxGeometry x="-200" y="-350" width="40" height="47" as="geometry"/>
                </mxCell>
                <mxCell id="82" style="edgeStyle=none;shape=connector;rounded=1;html=1;dashed=1;labelBackgroundColor=default;strokeColor=default;fontFamily=Comic Sans MS;fontSize=8;fontColor=#faf5f5;startArrow=none;startFill=0;endArrow=blockThin;endFill=1;entryX=0;entryY=0.5;entryDx=0;entryDy=0;entryPerimeter=0;" edge="1" parent="1" source="71" target="97">
                    <mxGeometry relative="1" as="geometry">
                        <mxPoint x="-683" y="-69" as="targetPoint"/>
                    </mxGeometry>
                </mxCell>
                <mxCell id="71" value="&lt;font color=&quot;#000000&quot; style=&quot;font-size: 8px;&quot;&gt;Data Ingestion&lt;/font&gt;" style="sketch=0;html=1;verticalAlign=top;labelPosition=center;verticalLabelPosition=bottom;align=center;spacingTop=-6;fontSize=11;fontStyle=1;fontColor=#999999;shape=image;aspect=fixed;imageAspect=0;image=data:image/svg+xml,PHN2ZyB4bWxucz0iaHR0cDovL3d3dy53My5vcmcvMjAwMC9zdmciIGlkPSJzdmcyNDYzMyIgdmVyc2lvbj0iMS4xIiB2aWV3Qm94PSIwIDAgMjA4LjcxMzM2IDI1OC45NjYwOSIgaGVpZ2h0PSIyNTguOTY2MDltbSIgd2lkdGg9IjIwOC43MTMzNm1tIj4mI3hhOyAgJiN4YTsgIDxkZWZzIGlkPSJkZWZzMjQ2MzAiLz4mI3hhOyAgPGcgdHJhbnNmb3JtPSJ0cmFuc2xhdGUoLTMuMzk0NjI0OCwtMTcuODEwMjgyKSIgaWQ9ImxheWVyMSI+JiN4YTsgICAgPHBhdGggdHJhbnNmb3JtPSJzY2FsZSgwLjI2NDU4MzMzKSIgZD0ibSAxMTIuNDcwNyw2Ny4zMTQ0NTMgYyAtNTguMzI5NTUyLDAgLTk5LjY0MDYyMiw0MS4wMzc2NDcgLTk5LjY0MDYyMiwxMDYuODUxNTY3IHYgNzc0LjE4NzUgYyAwLDU2LjMxMzc4IDQzLjI2NjU5Niw5Ny43MzA0OCAxMDEuMjc3MzQyLDk3LjczMDQ4IEggNDEwLjA5OTYxIFYgOTQ3LjUwNTg2IEggMTA5LjM4MjgxIFYgMTYzLjIxODc1IGggMzAwLjcxNjggViA2Ny4zMTQ0NTMgWiBtIDQ3MS43MjA3MSwyOC43NzczNDQgYSA2OS44ODQ0ODksNjkuODg0NDg5IDAgMCAwIC02OS44ODQ3Nyw2OS44ODQ3NjMgNjkuODg0NDg5LDY5Ljg4NDQ4OSAwIDAgMCA0OS4wNjQ0NSw2Ni43MDExNyB2IDc2Ljg4ODY4IGMgMCwzMi4xNzM1NCAtMy4wMDI0OSw1NC4yMDgzNiAtOS4wMDU4Niw2NC4zNDc2NSAtNi4wMDMzNiwxMC4xMzkzIC0xNC4wMTI0MiwxNS4yOTY4OCAtNDIuMjM4MjgsMTUuMjk2ODggaCAtNDkuMTQyNTcgdiAzOS45OTQxNCBoIDQ5LjE0MjU3IGMgMzUuMzA1MSwwIDYyLjkxMzc2LC0xMS43MTI1MiA3Ni42NTIzNSwtMzQuOTE2MDIgMTMuNzM4NTgsLTIzLjIwMzU1IDE0LjU5Mzc1LC01MC45ODc2OCAxNC41OTM3NSwtODQuNzIyNjUgViAyMzMuMTM0NzcgQSA2OS44ODQ0ODksNjkuODg0NDg5IDAgMCAwIDY1NC4wNzQyMiwxNjUuOTc2NTYgNjkuODg0NDg5LDY5Ljg4NDQ4OSAwIDAgMCA1ODQuMTkxNDEsOTYuMDkxNzk3IFogTSAyMDkuMTA3NDIsMzU5Ljc5Njg4IHYgOTYuNjM2NzEgaCAyMDAuOTE3OTcgdiAtOTYuNjM2NzEgeiBtIDUyMi42Nzc3NCwyOC42OTMzNSBhIDY5Ljg4NDQ4OSw2OS44ODQ0ODkgMCAwIDAgLTY5Ljg4NDc3LDY5Ljg4NDc3IDY5Ljg4NDQ4OSw2OS44ODQ0ODkgMCAwIDAgNDQuNTMzMiw2NS4xMTkxNCBjIC0wLjgyMjcyLDI4LjAzMTA0IC04LjIxNjMsNDAuMDcxOTggLTIwLjgxODM2LDQ4LjQ3NjU2IC0xMy4zODU1Myw4LjkyNzE3IC0zNy43MTQ3NCwxMy4zOTg0NCAtNzEuMjc5MjksMTMuMzk4NDQgSCA0NjMuNjY0MDYgdiAzOS45OTQxNCBoIDE1MC42NzE4OCBjIDM2LjUyOTQzLDAgNjguMjkxOTIsLTMuMzI0MjMgOTMuNDY4NzUsLTIwLjExNTIzIDIzLjMyMzQ4LC0xNS41NTQ5NiAzNi42MzkxNywtNDIuOTc3MzEgMzguNDc0NjEsLTc4LjU0MTAyIEEgNjkuODg0NDg5LDY5Ljg4NDQ4OSAwIDAgMCA4MDEuNjY3OTcsNDU4LjM3NSA2OS44ODQ0ODksNjkuODg0NDg5IDAgMCAwIDczMS43ODUxNiwzODguNDkwMjMgWiBNIDIwOS4xMDc0Miw1NTYuNDgyNDIgdiA5Ni42MzY3MiBoIDIwMC45MTc5NyB2IC05Ni42MzY3MiB6IG0gMCwxOTYuNjg3NSB2IDk2LjYzNjcyIGggMjAwLjkxNzk3IHYgLTk2LjYzNjcyIHogbSAyNTQuOTc2NTYsMjcuNTQ2ODggdiAzOS45OTQxNCBoIDk4LjU5OTYxIGMgMzIuMzE0MjUsMCA1NS40NDQxMiwyLjUyNzk1IDY2LjIzMDQ3LDguMDAxOTUgNS4zOTMxNiwyLjczNzAyIDguMDg0ODgsNS4zNTUzMiAxMC41NDI5NywxMC4yMzI0MiAyLjQ1ODA5LDQuODc3MTQgNC40MDYyNSwxMi43Nzc2OCA0LjQwNjI1LDI1LjAzMTI1IHYgMTkuODE4MzYgYSA2OS44ODQ0ODksNjkuODg0NDg5IDAgMCAwIC00OS43MjI2Niw2Ni44OTY0OSA2OS44ODQ0ODksNjkuODg0NDg5IDAgMCAwIDY5Ljg4NDc3LDY5Ljg4NDc5IDY5Ljg4NDQ4OSw2OS44ODQ0ODkgMCAwIDAgNjkuODg0NzcsLTY5Ljg4NDc5IDY5Ljg4NDQ4OSw2OS44ODQ0ODkgMCAwIDAgLTUwLjA0NDkzLC02Ni45ODI0MyB2IC0xOS43MzI0MiBjIDAsLTE2LjM2ODgzIC0yLjQ2MjIsLTMwLjY4NTUgLTguNjg3NSwtNDMuMDM3MTEgLTYuMjI1MjYsLTEyLjM1MTYxIC0xNi40OTAxNywtMjEuOTczMDIgLTI4LjE2MjExLC0yNy44OTY0OCBDIDYyMy42NzE3NSw3ODEuMTk2MDggNTk2LjIxNjcsNzgwLjcxNjggNTYyLjY4MzU5LDc4MC43MTY4IFoiIHN0eWxlPSJjb2xvcjojMDAwMDAwO29wYWNpdHk6MTtmaWxsOiM1OTg2ZjI7ZmlsbC1vcGFjaXR5OjE7c3Ryb2tlLXdpZHRoOjM5Ljk5OTk7LWlua3NjYXBlLXN0cm9rZTpub25lIiBpZD0icGF0aDI0NzYyIi8+JiN4YTsgIDwvZz4mI3hhOzwvc3ZnPg==;strokeWidth=1;fontFamily=Comic Sans MS;fillColor=#00bef2;" vertex="1" parent="1">
                    <mxGeometry x="-800" y="-90" width="34" height="42" as="geometry"/>
                </mxCell>
                <mxCell id="76" value="" style="group" vertex="1" connectable="0" parent="1">
                    <mxGeometry x="-500" y="-119" width="240" height="100" as="geometry"/>
                </mxCell>
                <mxCell id="23" value="&lt;font face=&quot;Comic Sans MS&quot;&gt;&lt;b&gt;Data Pipeline&lt;/b&gt;&lt;/font&gt;" style="dashed=1;rounded=1;absoluteArcSize=1;arcSize=20;html=1;verticalAlign=top;align=center;spacingTop=5;spacingLeft=10;strokeWidth=1;" vertex="1" parent="76">
                    <mxGeometry y="2" width="240" height="100" as="geometry"/>
                </mxCell>
                <mxCell id="30" value="&lt;b&gt;Validate&lt;/b&gt;" style="shadow=0;dashed=0;html=1;strokeColor=none;fillColor=#4495D1;labelPosition=center;verticalLabelPosition=bottom;verticalAlign=top;align=center;outlineConnect=0;shape=mxgraph.veeam.checked_doc;strokeWidth=1;fontFamily=Comic Sans MS;fontSize=8;" vertex="1" parent="76">
                    <mxGeometry x="13" y="39.19" width="32" height="37.82" as="geometry"/>
                </mxCell>
                <mxCell id="12" value="&lt;font color=&quot;#000000&quot; face=&quot;Comic Sans MS&quot; style=&quot;font-size: 8px;&quot;&gt;&lt;b style=&quot;&quot;&gt;Standardise&lt;/b&gt;&lt;/font&gt;" style="sketch=0;points=[[0,0,0],[0.25,0,0],[0.5,0,0],[0.75,0,0],[1,0,0],[0,1,0],[0.25,1,0],[0.5,1,0],[0.75,1,0],[1,1,0],[0,0.25,0],[0,0.5,0],[0,0.75,0],[1,0.25,0],[1,0.5,0],[1,0.75,0]];outlineConnect=0;fontColor=#232F3E;gradientColor=#4495d1;gradientDirection=north;fillColor=#4495d1;strokeColor=#ffffff;dashed=0;verticalLabelPosition=bottom;verticalAlign=top;align=center;html=1;fontSize=12;fontStyle=0;aspect=fixed;shape=mxgraph.aws4.resourceIcon;resIcon=mxgraph.aws4.iot_things_graph;" parent="76" vertex="1">
                    <mxGeometry x="130" y="41.1" width="32" height="32" as="geometry"/>
                </mxCell>
                <mxCell id="74" style="edgeStyle=none;shape=connector;rounded=1;html=1;entryX=0;entryY=0.5;entryDx=0;entryDy=0;entryPerimeter=0;dashed=1;labelBackgroundColor=default;strokeColor=default;fontFamily=Comic Sans MS;fontSize=8;fontColor=#f2f5f7;startArrow=none;startFill=0;endArrow=blockThin;endFill=1;" edge="1" parent="76" target="12">
                    <mxGeometry relative="1" as="geometry">
                        <mxPoint x="105" y="58" as="sourcePoint"/>
                    </mxGeometry>
                </mxCell>
                <mxCell id="65" value="Clean" style="shape=image;verticalLabelPosition=bottom;labelBackgroundColor=default;verticalAlign=top;aspect=fixed;imageAspect=0;image=data:image/png,iVBORw0KGgoAAAANSUhEUgAAAgAAAAIACAYAAAD0eNT6AAAACXBIWXMAAA7DAAAOwwHHb6hkAAAAGXRFWHRTb2Z0d2FyZQB3d3cuaW5rc2NhcGUub3Jnm+48GgAAIABJREFUeJzs3Xd8VFX6P/DPncnMpFeSkEY6EFog9I6IgCIW1LXXdS2rW9R13a+rP13dpuuurr2trgUV7AWx0HsNNQQCCYEkJKS3mUy/vz8urKCU3Dt35k75vF+veaGQc84TSHKfOeU5ABERERERERERERERERERERERERERERERERERERERERERERERERERERERERERERERERERERERERERERERnYVe6wCICAAQAen70aV1IERERORdmQCeA1AHQDz22g/gcQDxGsZFREREXjIbQAd+ePD/+FULYIRm0REREZHqSgBYcPqH//FXA6RZAiIiIgoC63D2h//x19saxUhEREQqGoLeP/xFADYAMZpESkRBTad1AEQhZrTMjzcCKPZGIEQU2pgAEPlWHwVtUlSPgohCHhMAIt+KU9CGSwBEpDomAES+peRhzgSAiFTHBIDIt5gAEJFfYAJA5FuxCtowASAi1TEBIPKtfgraZKkeBRGFPCYARL7VX0GbAapHQURERD6TBnlFgI6/OgEIGsRLREGMMwBEvjNQYbsYSMkDEZFqmAAQ+Y4nFf2GqxYFERGYABD50nQP2k5TKwgiIiLyHT2ANijbAyAC2OL7kImIiMhTY6H84S8CcAJI8HnURBS0uARA5BszPWyvBzBDjUCIiIjId8rh2QyACOAzn0dNREREio2B5w9/EYAdQLKPYyeiIMUlACLvu16lfgwArlKpLyIiIvKiCABNUGcGQARQ6tvwiYiISInfQL2H//HXLJ9+BkRERCSLAcAhqJ8ArPPlJ0FERETy3Ab1H/7HX5N9+HkQERFRL0UCqIb3EoCV4A2BREREfufP8N7D//jrOp99NkRERHRWhQCs8H4C0AAg3kefExEREZ3F9/D+w//46zkffU5ERER0Br+G7x7+IgAXeCyQiIhIU6OgcOpfrxMaBKBbSVsAjQDSffIZEhER0UniAVRC4Tv5f9w1fu3VswqXK20P6VRAmA8+TyIiIjomDMBXUPjwjos27nKvv9NtWfmLnjC9rlZpPwCe9sUnS0TBQa91AEQBTgDwKoArFbYXFz8zpzk3PTbFEKYLi4407P5uY02Wwr7GQVqCWKuwPREREfXSX+HBJr6RRcmrxA13isdf7vV3upPjI0o96NMN4Cbvf9pEFOhYSYxIuT8A+JvSxmF6XV3zdzfHxkUZY078/aq6zvqCy+dHiyJiTtf2LJwArgWwUGlsRBT8uARAJJ8A4J8AHvagD3HhX86rGDEgOffHf5AQa4pxieKmVdvqsxX2rQNwGYBmAJs9iJEoDsAVAG4AMA9ACaSvr0NaBkXq4AwAkTwGAG9Ceoet2JThaatWvnzJlDN9TObctzfXNZlHezIOgMcB/D8P+6DQIwC4F8AjwClnosoA3AJgky+DInUxASDqvTQA7wGY5kkn0ZGG3U3f3JwfbtRHnOnjmtp62tIvfNvidLkzPBkPwHwAd0CqM0DUG/+GVNTqTHogFaFa7f1wyBt0WgdAFCDOBbANHj78dTqhaff8K5PO9vAHgOSEiIQVL11shvSD1hPXQloKGOphPxQaZuDsD38AiADw9rFfKQBxDwDRmRkAPArgNZx6KlQOxxf/uKByzOCUwt426JcanWQK029ZuqVO6dHA4/pAOh3QBKDUw74ouD0DYEAvPzYewC5ISwIUYDgDQHR60wBsh7TZz9PvFfHBm0o2XDgpe7jchv93U8n488dnr/RwfEB6p/YKgBUAhqjQHwWnqTI/fpo3giDvYwJA9FN9AbwDYBmAQWp0eNOFA1f95Y6xk5W2X/SvC6aMKkpeo0YsAKZAmgX4B4Bolfqk4BAFIFZmG95DEaCYABD9IAXSdP8+ANdBpU2yU0akrXzzoXPkvqs6iSBA2PCfy8YX9otbr0ZMkJY2fgfgIKTPOUGlfimwxfuoDfkBJgBEQCGAlwAchnTsSe47oNMaP7TvqhUvnvm4X2/pdYJ+1/wrS7JSo9Q8298H0ud8EMCfIZ10oNClZJ+Lp3tjSCNMAChUxUMqbvI9pHf8dwAwqTnABeOzV6599dLJgqDecVuTQW86+On1JcP791FrOeC4OAB/BFALYA2A28DlgVCkJPllAhCgWAeAQoUA6RjcdEjHnGZA5Qf+CcTbLh284pUHppzjpf7hdovi9Lu/WLuy9Mgkb40BoBPAYkh7IZYD2O/Fscg/nAtgicw2RyHtm6EAwwSAglEspGNMAwAMBFAEYDKAZB+M3fPE3eNLf3/d8Ik+GAs3/GnZincW75sC38zm1UCaHdgDoALSzMk+SDcQUnC4BMCnMttYIG0epADDBIACUTik63dnAOgHaao6HtKDP/rYn/ucXi/Urnjxko5JxX0H+3Lc977dv+W6R5cUiKJmm7G6T3h1AGiDtJTwHYCPAdg1iovk+yWAFxS0SwDQrnIs5GVMACjQjAWwAIDSi3K8ok98RGnZ+1dmpSRE+GKW4Sf2HWo/MvLGj8xmq6PXRYZ8ZD+An0Gqp0D+rzclgE9lLHgvQMDhJkAKJCUAlsK/Hv6262b3X9rw9Y3FWj38AWBAdnx64zc3Zc0YlbEWgFurOE6hENL+gTytA6Fe6W0FQLXakYY4A0CBQg/pXaTfVLCLCjfsXf7iRRg9KGWg1rGc6MvVh3Zf/n/fJNidHl8ipKZFAC7UOgg6q4MAchS0+wuAh9QNhbyNMwAUKGbDfx7+lqvOK1zRtuSWfH97+APA3MnZQ5q+vSVu8vC0VQCcWsdzzAWQ9muQ/4qA8n8jzgAEIM4AUKB4GsBvNY5BHJAdv3bx0xfm5KbHZGocS69s29tcPed3i9rqmy0jtI4F0q2E72kdBJ3WGAAbFbbdD6C/irGQD3AGgAKF1g9c+zuPzti6d8HVkwLl4Q8AIwb2yTny1Y0j/nB9yWoAosbhpGg8Pp2ZJ3UrCqH99yjJxASAAoVZ4/GNN/xpae59z65b7nS5/WVa/ax6bM6e6x5duvqJd0pHQvsZvw6Nx6czm65xe/IxrX8gEPXWHZDq9WsuwqQ/8M4jM7oum57nD9Pqp/Wv93ese+D59TlOl+gvt7UVA9ipdRB0SiYArQAiPejjLQA3qRIN+QQTAAoU8ZDWGftoHcgx4siBySuXvXDxqNgog1/VzD/SbG4ef+unVYcbusZoHcsJtgPw64QpxE0BsNLDPg7Dv47o0llwCYACRTuAW+E/u9qFrXubpvWZ+Ubb56sPbtM6mOOeXbBzQ9bcd3R+9vB3A7hH6yDojC5QoY9+8J+TOtQLnAGgQDMHwOvwr8tH3HMn56z69InZk/U6Qa9FAD02Z8+4Wz/dunN/szcvB1LCBilxe1frQOi0dAAOQZ1NfE8CeECFfsgHmABQIIoBcD2AyyAdXfKLKfjUxIjNu9+7KrdPfLhPlymqajvri69f2NHd4/CXmgQ2SBcHfQvp+GaltuHQWSi5AfB06iAtA7hU6o+8iAkABYMYSElAFKR77ftAugVwIKSzyYMBpPoiEKNBV7PqpUt6xg5J9cmZ6A+XVZZe9cfvc9yimOiL8SC9U9x77HX8NsD2Y69uSKc1tD6xQfL8F8CNKvY3C9JFUOTnmABQqMiDdHvgJEjHlbxWJlcAzB/8eea+n83IL/HWGADw1Dvb193/wvrRAAxeHKYBwGpI7xC/A1DtxbHI96IA1ENKotXyLqQZOvJzTAAoFOkATID0Q+pqqPvD7zjbC/dP2fbLywaP80LfuP+59auemr99EryzkbcNwIcA3gGwFtoXECLvUXr975lYAeQDOKJyv6QyTTYsEWlMhHRk6SsAzwGoAJALdTcWhn297lBfY5h+/eThaarWwL/64SUrXv1sz1Son8CvgLRb/3YAn0P6O6LgZYB0tXa8yv2GQfoe+17lfkllTAAo1NkB7ADwMqR3u/2hXklT3bItdZmxUcb144f2zVKjwxv+tGzFe99WTFOjrxOsBXAzgEchre1zA1douAnADV7quxjAqwAsXuqfVMAEgOgHVQD+A2ADgFFQp+iQ8N3GmtTCrPjSYQVJHu07eOiVjeue/3D3JKj3zn8tgHmQrnI9qFKfFBj0AN4HkOSl/o2QToMs91L/pALuASA6NSOA+yDdce5JedTjLN88feH+WeOzipU0fm7h7k2//tfqkVAnaW8C8HtIpVu5vh+aroX3azO0QdoL0OblcUghJgBEZ5YN4DUA53nakSAILfs/vMacnxkra0/Asi21Zefe/WUBpHrtnnoLwL2Q6r5TaIoBUA4vnoQ5wYsA7vLBOKQASwETndkhSOeafwvA4UlHoigmFV+3wGqxOnu9LlrfYmma+euvEuH5w78HwG2Q1n358A9tj8A3D39AusRrrI/GIpmYABCdnQjg35DqCNR50pHZ6uw/5paPSnvzsQ6n2znkmg+OuNximidjAtgFoATSTAaFtiEAfq2wrZIEWAfppA2fNX6I/yhEvbcKwGhIpwYUK6tqm/TA8xtWne3j5ty7aG1rh03RnoETLAYwHtLufgptAqQpedmFo3Q64ehTvx6/WeG4oyEdLSU/wwSASJ56SNUEPTrj/OS720btOdhWfbo//2b94V3fb6r19GKf+QAuBkvzkuR3ACYrafj7a0dU3HfN8AkJMaZdCsd+ElJpbvIjTACI5OsGcBGATz3oI3LSbZ92ut3iT87cd5vtlot/vzgenu34fwZSpUOP9i1Q0BgP6binbCaD7tBjt48eBwDv/ulcpadGogF8ACBcYXvyAiYARMpYAVwJaYpdkbYu27A7n1y95se/P+PXX261O9yeFA56EVJFPx7xIwBIhPTwVXRnxD9+NaHeEKYzAMAFE7KHZaVGKV0KKIaUmJKfYAJApJwDwBUANirt4NXPykZXH+n638bCJZtrd28sa/Rk6n8hgF950J6CiwDptj9F5ahjooxld18x9KRd/B//fXY8AKfCeG4HcJXCtqQyJgBEnjEDmAPpXLUSkRfcu+gQAIgixJ89+J0I5fU5lkMq7epW2J6CzxMA5ips61z8rzl6QTj563F0UUrh+eOz13oQ0xuQ9tGQxpgAEHmuBdKegE4ljcur28YvXn9o5xPvblvX1mUbqjCGw5BmI2wK21PwuQvA/UobXzI1d83E4r6n3Lj36ZOzxoUb9VUKu46AdBHXMKWxkTpYCZBIPVcDeE9Jw5hIQ7nF5oxzucR0Bc3tkHZ3b1IyNgWlayFd56zoZ7zJqK/qWPrzdJNBf9pNe1+tPbR77n1fD1Y6BoBaSNdy1yhsTx7iDACRet6HdAOabF0WR5HChz8A/AF8+NMP5gB4E8ofzO7PnpzVfaaHPwBcODF7yPjBfX+yiVWGTADfAkjxoA/yABMAInX9FsA+H473Lbizmn5wLaTjqYp2/APA7HFZq2ePy+7V9PziZ+cMNxp01UrHAlAEYA2AXA/6IIWYABCpqwfA3T4aywaprCuP+xEgfS28DQ8e/vHRxl1fPHXBhN5+fFyUMWbNq5c6APT6fotTKASwDsBwD/ogBdS4WpSITlYF6Z3NEC+P82cAn3h5DPJ/AoBHAfwdHuzr0umEpn0fXh2ZEBMeK6ddRnJUUrTJsPn7zbWe1K6IhnQ8cD2kC7jIBzgDQOQd90LhqYBeOgDpiBeFtgRISeAjHvbj+OIf5x/JSolJVdL4d9cPnzB+cN/VHsYQD+A7+G4GLeQxASDyjiPw7tr8I5CqEVLoGgOgFMAlnnZ09xVD1s2ZmO3RxVPLX75oTHy0sczDUEyQbg/8CECch33RWfAYIJH3JAKoBhCjcr+VkC5WUVqNjQKbAGm9/0kARk87mzI8bdXKly+Z4nFUAJrbra1ZF73dZrW78lXo7hCkZYENKvRFp8AZACLvaQXwihf6/Rv48A9VhQC+gTS75PHDf3Be4toVL12i6IbAU+kTH56478NrosL0uloVusuGdAX3v6F+Ek3gDACRt/UFcBDq3YJWCyAfUvEfCh1RAB6GtLdE8S7/E2Wlxmyq+uSakjC9LkyN/k6060DL4eHXfxjtFsVElbo8DOmIrSc3cNKPcAaAyLsaAHyhYn9vgA//UKID8DMAewA8AJUe/n3iI7bvW3jVUG88/AFgaEFSv2UvXHxUEFTbCNsP0mbHRZBO2JAKmAAQed87KvY1X8W+yH/pIN3tsAvAAii8ze9UslKjNh/+/LoBEaawCLX6PJWpJWlFm9+8vFGvE46q2O0FAHYD+BLAaBX7DUlcAiDyvjAAdfC85Ok6ABM9D4f8WDiA6yCVd1ZjI91JhuYnri59+4pxYXqdKjMJvbH3YFtt8fULYXe6M1XuWgTwNaQ9MZ7cThiyOANA5H1OSPcEeErNmQTyHwKk63FfAVAP4DV44eE/fWTG8h3vXjnRlw9/ABiYm5BZ+cm1xohww36VuxYg3XuwBtISyf8B8KQYUcjhDACRb5wHqciJJ/qBN6cFCz2AkZAeYNcByPPiWM475w1e++Lvp0z14hhn1dplbS/62QdVjW09JV4cxg1gBaSE+3uwquAZMQEg8o1ISMcCTQrb7wfQX71wyMfCIG1em37sNRU+KHSj0wmNnzwxu+biyTkjvT1Wb7jconj1w99v+HBp5Tj45vlTCWDZsdcqSAW66BgmAES+swLSD34lXgVwu3qhkEp0kB7ksZDq2ccc+zULwABISdtASFP6Hp/blyMhxrRzx/wrUpWW9/Wmt76u2HLz40sLRBHxPh66HUAFpBs790JKrNuOvboBdB371ZtlvP0GEwAi33kE0qUtSlwN4AP1QiEPTANwF6R1+1T4389R8ZxRGau+febCCYYw3673y1FxqL1m5E0fmbt7HAO1juUUbJCWD74E8BSk47xBx9++cImC2QWQzjErUQBpOpO0owPwNKQyvH7JaNBVf/iXma0XTcn15jq7ahxOt/OOv6/c/MZXe0dAvWJZausEMA/AUq0DURsTACLfyYd0i59cVkjTyi51wyGZ/gDpyJk/cp43JnPl50/OHhcRbojSOhi5dlW2Hp72y886WjtsQ7WO5TS6AYyAsu9fv8UEgMh39ADMkL8RcDcAf/3BGCr6QJoSjtQ6kB+LjjDs/fqZOeLk4rSArpDndovu+55bt+bfH+wcLoqI1TqeU1gI4Eqtg1ATEwAi39oNYLDMNh9BqgpH2rkN3rnYSbEwvXDk/utGVD5++5gJep2g1zoetbR02NpueHTpzq/XHxoDwKvVCmVyQLrhs1vrQNTCQkBEvqVkHf+g6lGQXMO1DuA4nSC03HnZkCXmFbcl/vXOsZOD6eEPAElxpoRFT18wteqTa9tLBiSvg/8sfRkQZDNxTACIfKvDR21IXdFaB3CM9Z1Hzz344v2TZxgNOn/dNKeK3PTYtPWvzxs1YWhffyrzG1TXEjMBIPKtLgVtgmbKMYCpeaGNJ8KvfWTJqMy5b23YUt64V+tgvMXtFsWn3tu+MWb6a0fX7WqYonU8Jwiq44BMAIh8S0kCoKQNqWu11gGcqK7JMm70zR/3H3T1Bysr6zqDqtzt/G/2b4+d/p/99z+7fqzd4fan2v6tAMq0DkJNTACIfEtJhTEmANpbDKBa6yB+RFd+sG1qwWXzU258bOkSp8vt0DogTxxu6G7MueTdLdc9umS42erwx7LXr8J/9iOoggkAkW81K2jTpHoUJJcDwK2Qbnb0NxFvf10xI+G8N/ZvKGvco3UwcokixIdf2bQh59J3wg81dI3SOp7T2Avgz1oHoTYeAyTyrWkAlsv4eBFSXfk6r0RDcs0B8B9IJYD9keOiyTmrF/515kSTQa/04imfKa9uq5l6x+etTe09xVrHcgYrAVyFIFv/B5gAEPlaGIBa9P4Bsg7ARO+FQwrEQioIMxlAGoAE/HAZUNSx/9ZUdLhhb+k7V0QWZsX10zqW0/n3gp1b7nlmbZEoQuvKhS5IS3MdkAp1dUOadTsI6S6AJZAS8aDDBIDI924C8GYvPs4FacZgjTeDIa/IgHQb4ImvYkgJg08IAtrefGj63hvnDBjvqzF7w+F0O2f/9quNy7bU+TKxdUPawFeOH24CPH4rYMjusWECQKSNR469Tvc9aINUfe5tn0VEvlAEYDqAcyAld0leHs998ZTc5Z/8fdY0nR8UDDp8tLuh+NoFTe3ddl8U1CkHsAzSktsKAC0+GDOgMAEg0s4kAA8AOBc/lDztgDTt+DcAAbehi2TRARgH4HpISwoJ3hoovU/UlooPry6KitDuoqBlW2rLzvvVV6luUezjxWF2Q0qa34e01EZnwASASHtGSHsCXJAKzgTVUSPqFROAuQBuAHA+pL0iqoqJMu6u/PjatOT4cG/POvzEh8sqd1z54HcFIryy3t8E4D1ID/5SL/QftJgAEBH5lxwA90BaAlK13G+4UV9VvuCq8Jy02HQ1+z2TVz8r23j731cVQ+XPBdKu/GcAPAfAonLfIYEJABGRf0qFlAj8CipeQxym19WVvnW5fWhBUq5afZ7OY29sXfPIq5vGQd0ZjYMA/g3pdkariv2GHCYARET+LR3AUwCuVqtDnU5oLHv/auvAbO8dE3zg+Q2rnnx3m5p1/DsAPAzgJfhnQaaAwwSAiCgwTAXwAoDBanRmNOhqqj6+3piREql6UaNXPi3beMcTq0YBUOvkwVcA7gQ39qmKpYCJiALDSgAlAB6EdEzUI3aHO6vwivkdbV22do8jO8GCJQe23fHEqhFQ5+G/H9Kxybngw191nAEgIgo8JQAWACjwtKO4aOPuui9vyFXjiODy0rqyc3/5RY5Ku/0/BvBzSFP/5AWcASAiCjylAEYB+NDTjjq67UNG3vjhTk/7qa7vPDLjri/7qvDw74F0AuJy8OHvVZpXhiIiIkVskBKAZgDnwYOf5y0dtqyWDuvKCyZk5yhpb3e4HQWXza/rsbuylcZwzH4AMyFdv0xexgSAiCiwbYZ0adSlkAoKKbJpT2PmmEEpuwuz4mVvCpx652dr99d0jFY69jFbIVXFrPKwH+olLgEQEQW+pZAenk0e9BE293eL+9Ye7W6U0+if721ft3Zng6fH/ZZD2uwna2zyDDcBEhEFj4EAvgWg+Hx/SkLEtoavbxouCGd/PpRVtVYPuWZBMjxb918AqQSy3YM+SAEuARARBY9mAJ8BuAJArJIOzFZnms3hXj1jdOYZ1/PdbtE96MoPanrsriwl4xyzAMA1YGEfTXAJgIgouFQDmAWgVWkHT7xTOqK6vvPImT7m/ufWrWntsg1TOgakq3pvBOD2oA/yABMAIqLgUwbgAgBmJY1FETGTbvus7nR/frCu88jTH+wsURocgC0ALoYKBY1IOS4BEBEFpzoAuwH8DAre7HVZHBkxkYZ1E4b2/ckU/7BrF1R0mh05CuOqgLRhUdUKhCQfZwCIiILXFwAeU9r4989vyDf3OE6aRXjt8/KNtU3mkQq7tAC4DJ6dViCVcAaAiCi4rQYwAUC+3IaiiOhDR7vWzZuWlwMALrfomnzHpzanS0xUGMudkE4pEBERkQ+kADgCQJT7EgR01S+6sUnccKf46C9GrVbSx7HXBz75TImIiOgk0wG4oODhPWN05grr6ttsYXpdrZL2APYCiPbJZ0lEREQ/8QqUPcB7po/KXKGwrRuAp5UCiYiIyAOJkMrtKp3GV/L6ry8+MSIiIjqzW+C7h38HgDTffFokF+8CIH8jAIiHVMY05tgr+ke/F33s1+O/d/w0iwlA5Al9RQAIP+H/owEYfjReB36oRCbi5LPJLgCdJ/x/1wmvbgBtZ/k9a28/aSIfEiCdDJjog7HuAvCiD8YhBZgAkC/EA+gLIPnYryf+dyqkHcppAPrAs0tF/I0TUm32JgANAI5Cmn49/t9NkHZmNx37fdZDJ18ZC2CDl8fYB2AwpESa/BATAPKUEUA2gFwAOcd+zT32exmQHu6K7ygPMY2QkoFDkOq5H/zRq02zyCgYfQ9ghhf7vwnAW17snzzEBIB6IwlAEYA8/PCAP/7KACtK+ko7pESgGicnBhUAqsB3WiTPNADLvdR3NYD+ABxe6p9UwASAThQLoBDStN2gE37N0zIo6hUHgP2QLoHZc8Kv5eBta3R6qwFM8kK/dwJ42Qv9koqYAIQmI4BhAIZCesAf/9WTe73JP3VDSgR2H/t1F4BtYC12klwAYJHKfTZAmh3kJlg/xwQgNKQDGAlp1+8kACWQdshT6KoHsBXAGgBrj/13j6YRkRZ0kKbr1Uz+nwTwgIr9kZcwAQg+MQCK8cMDfwqknfZEZ+KEtJfgxIRgD6SjkRTc/g51H9jDIM00kZ9jAhD4EgCcA2k371QAA8FNeaSOFgDrACw59tqjbTjkJYMg7RlRQymkNx9E5AVhkL7BHoB0jMcO35b15Ct0Xw0AFgK4DUA/UDDZCnW+Rn7j68BJOc4A+D8dpCn9Gcdek3BytTsirezBD7MDKyBVP6TAdC+Af3rYhxvSfqOjnodDFLoMAGZCurnrKLR/58cXX2d7OSDNSN0BqcIjBZah8PxrYJvPoyaPcAbAf5gAnAfgMgAXQbq1i9QhCoLQcdo/FMVwnHxnAHnGDWkz4ccAPgVQo2041AsCpCWeFA/6+BeA+9QJh3yBCYC2IgHMhvTQvxBSIZ5QZdYZjC0Go6nTYAy3myKjbabIGJcpKtYVHhUjRsTECzEJqbqIuHh9ZGxiWERMgjEyNtEUFZcYJQg6ISI6LkqnD/vf5sfwmPg4QRAUfX07rBaz0277XwWzHnOHxe10umzmLmtPd5u1p6vD3t3eZO9ua3Fau9vdPR1totXcIZg7WnW2nk69vafH4LD3GB1WS5TTbo8XRXcSQvd7TQSwCVIy8DGkioXknz4AcKUH7ecC+EqlWMgHQvWHkpb0kKb3b4T0DRPM6/kWvdHUYDJFdkXEJVpiElMccUnp7vj0fvrE9FxTfEpGZEJqVlxscnqSwRQRtH8PbrfL1d3W1NLZdKS9rf5QV2v9YWv70cPeWa9pAAAgAElEQVTOtobD6G45qjd3tIRbzV3RDntPouh2e/IOLBBsA/AugPngWrG/uQ3SsqMSTkglwzvP9oHkP5gA+E4+gJshPfgzNY5FLXa9wVgfHhPXHJ+U3pWUmWtLKxwWll4wLDY1tyglJqlvFngkURaHrcfWXHugqfHgvuYjB3aajx4sd7UcOWgytzcn2HvMKaLbHa91jCpxAlgM4L+Q3jXaNY2GAOkIcbnCtlsAjFYxFvIBJgDeFQ7gCgC3QDqjH4h/36JOH1YXnZBcn5Y32JI1eJQ+vbA4NjVnYJ+41My+gqDjA96HrObOrsZD++obKsvbaso3WesqdoS1NRxKtFvMOQjc6o7NAN4E8BKky41IG3oAFkilwuV6C9LtfxRAAvGBFAiSIT30fw3pWExAEAShPTwqrqZvwaC2fkVjhJzi8fHZg8flmqKio7WOjc6uo6musXbP1tqDO9d21+wpFVrqquJ7utvzETjLTG4AywC8CuAT8HZDLeyBdPOnXA8C+JvKsZCXMQFQ1wAA9wC4AX7+bkxvMFYnZebVFYyY6howbkZC5sCR2eHRcaG8CTEouV1OZ1PNgdrK0pX1+zZ8Z6/btz2hp6u9AP6fFFRAOpf+FgCbxrGEkk8AXKqg3WXH2lIAYQKgjkmQ3u3PgzSN5l8EoSsiKq6635DRrYMnz40cMO68vOiElCStwyJtuN0uV0NlWXXFpqUNB7Yuc9VV7Ei2W8wD4J/7NRohLQ38G0CbxrGEAqX3AgwGS0UHHCYAnpkO4DFIl+74DYPRVJkxsKRu4NhZ+gHjZ2Wk5PTP0Tom8m9Wc2fXga0rD5SvXdxRVboyurOlYRD8a5agA8AzkM6ac6e599wM4A2ZbdyQvlY4UxNgmAAoMwnA4wCmaRwHAEDQ6er7ZBVWFE+f5x55/jX9Y/ukZ2gdEwU2l9Ph3L9ledX2bz9orixdlWDpausP/5jdagHwBIAXIG1YI3VdBOBzmW06AcR5IRbyMiYA8hRA+uEzT9swhM7Y5LTdgyZeYB55wbXp6QXDBoH/luRF1u5Oy541X+3f9v1Cc82eLWkOW0+uxiEdAfAIpHerbo1jCSbTACyX2aYOwXO0OaTwodE78QAeBnA3lB2R8ZjeYDxUMHJq9YTL7kjKGzG5SKfT+8O7MQpR7Y11DZu+fHN/6TfvRXa1HB0G6f4KLWyFtP9mnUbjB5sSSH+ncpRDulKYAgwTgLO7CsDT0OCCkzCDcX/+qKlVU6+5JzV78Nhi8N+L/FBPZ1vH5kXv7Nuy6G1Dy5GDRfD9vQoipMqCvwOrC3qqENIJDDk2ARjrhVjIy/hAOb1cSOuM5/tyUIMxvHLAuJm10667JzOtYFi+L8cm8pTDZu3Zuezj3Ws/ftl+9GB5MUTRlzUk2iHtYH/Vh2MGm74A6mW2WQrpqnIKMEwATu02SLuNo3wxmE5vqBl2ziWV51z/u/w+WQVZvhiTyNscNmtP6Xfv71j57tP6jqa6EvhuE+FXkK4lrvPReMHECMAKec+GDwH8zDvhkDcxAThZMoDXIe2E9TZrn6yCrTNv+WPEoClzRyi9uY4oELQfrW387j9/3rdr+Wc5bpfDF0luK6QjbV/4YKxgUwd5FUyfhLLaAaQxPnR+cA6A9+DltX6DMbyiZPY1h2fc8n8jImMTWYyHQooousXydYvLlrzx956jB/cMA2Dy5nCQagf8AbxsSI5XAfxCxsdPBbDKS7GQFzEBkPwWwD8AhHmpf1dSZsGmS+/9Z2zu8EmDvTQGUUCxdLS0Ln710V3bvv1goOh2p3pxqI2QytvKXdsOVfkAdqN3mzm5/h/AQj0BiADwGoBrvdS/LaN/8borHnwlO7lfYZ6XxiAKaE6Hzb5i/tOlq97/d7rLYe/npWFqAFwIYKeX+g82l0GaET3Tsed9kN798+RFgArlBCAOwJcAJqvesyB0FY6ctmne758bHNsnzefHB4kCkdvtcm/6/M3t377+eJS9p3uAF4bognSs92sv9B2MhkMqfHYeTn5WdEFaJngUQLfvwyK1hGoCkALgGwAjVO1VELqGn3v51rm/fqKEN+sRKbdr+adbP/3nPeE2S5faS2YOAFcD+FjlfoNZMqRkIBrSMkopuKciKIRiApAB6c7x/ir26UorHLr6hr8uHBSblJKiYr9EIUsURXHNwuc3f/f64/3cLpeaM2lOSMt+C1XskyjghFoCEA9pt+pQtTqMiu9TesNf34/KHFjijSlLopDnsPVYPn3qt6U7ln5cAohq3VDoAnAFgE9V6o8o4IRSAhAB4FuotOavNxirL77nqcaRs68do0Z/RHRm7Y11DW8/eFXl0ao9E6DOzy4LpCu9N6rQF1HACZUEQIBUreoyFfpy5Y+YvOSGvy2YHGY0+dN96UQhoWzNol0fPHZLotvpVOPa66MAxgM4qEJfRAElVBKAXwF41tNO9AZj9c1PfGjmWX4ibdks3eY3759XWlO+VY0ZvS0AJoIb2yjEhMKVskMBLICH15UmpmdvuPftzVnJ2f1Zq59IY2EGo3HUnOuzYxL7bqzY+F00PLuBMP1Y++/ViY4oMAT7DEA4gB3wbMe/c/LP7lo3+47HpqgUExGpqOlQxaEXbp/mdNhtntye6YZU0W65SmER+b1gTwAeBPAXxa0FoeuKP7ywd/h5V45WLyQiUpvN3N3971smlHc01XnyvVoOoBhSrQCioBfMCUAapFKVMUoaCzpd050vfN+RMWB4gbphEZE3uF1O53O3TtnUeGjfBA+6uQfSBUJEQS+YE4DXAfxcSUNBpzv6q1dXWlLzBuWqHBMReZHb7XK9ePv09fWVuycp7KINQD+wxC2FAJ3WAXhJHwDXKWopCF23Pft1Bx/+RIFHp9Pr73p1+YSEvtlKz/YnALhFzZiI/FWwJgA/h7J7xp1XP/LmgX6DRqtZJpiIfEgQdLrfvLl2qCkyulxhF79FaJyQohAXjAmAAIVT/0OnXbJmyJS56l4QREQ+ZzBFRP7ypaXREIQuBc1zIV1zSxTUgjHLHQvgAbmNTJHRe+58aUmJIOiCMSkiCjmRcYlxoihurt6xtp+C5l0AFqsdE5E/CcaHnZLz+uK1f3rLqdPpgzEhIgpZ5954/0RTZPQeBU0vVT0YIj/DBABAXErm5vyR04Z5Ixgi0o4g6ISL7vmnRUHTDADZasdD5E+CLQEQAMg+/jPzFw8H298DER1TPH1eid5gPKSg6XDVgyHyI8H24EsFEC+rhSB0DDvnUm78IwpSgqDTFYycWq2gKWcFKagFWwKQKbdBXJ/0Cq79EwW3YedeHqWgWarqgRD5kWBLAGLlNkjMyFOyPkhEASQ9f1gfBc0SVA+EyI8EWwIg+0rQqLhE0RuBEJH/iIpLkP3mAHKXE4kCTLAlALI/H3NHSzDfh0BEALrbmjoUNOPPBgpqwZYAyNZ6pDpC6xiIyLvqq8patI6ByN+EfALQ0VQ3wO12ubSOg4i8Z+eyj81ax0Dkb0I+AYAoxpWt+nKH1mEQkXeIoige2LqSRX2IfoQJAIBvX33UoXUMROQdu1d8Vupy2HO0joPI3zABANDWUDPm4PY1ZVrHQUTqEkVR/Pzp3xm1joPIHzEBkAjvPnyDKIput9aBEJF6Vr73zLqe7vahWsdB5I+YABxjNXcM+ejvd6/SOg4iUkd7w+EjS974yyCt4yDyV0wATrD9+wWTytct5oZAogDntNusz/5iSpsoiqzmR3QaTABOFvbuw9fn1u3bfkDrQIhIGVEUxRduP6fUZu4arHUsRP6MCcCPiWLsy3fPimiuOVCjdShEJI8oiuIrd5+/uvHQvglax0Lk75gAnILb5cx45ubxpvoDOyu1joWIekcU3e4X75i+tqZ88xStYyEKBEwATkN0u1NeuH16AvcEEPk/h9Vi/ue1JZuP7N85SetYiAKFXusAVNYfwDUq9hexc9knCXqDaWPO0HH9VOyXiFTS3nD4yFPXlDSZ25uHq9z1AQDzVe6TyG9wBuDsTN+//vjEZ2+dvNZh67FoHQwR/aBs5RelT1030mC3mgdqHQtRoGEC0EtHq/ZM/MslhbV1e7ft1zoWolDnsFl73rjv0pXv/enmEaLbnax1PESBiAmADA5bT/8Xfzkj5+0Hr1rpctrtWsdDFIoqt67c/fjFefWV21ZNBSBoHQ9RoAq2b54LAXzpi4GMpoiKKx561TJo4gVqrzsS0SmY25pa3334+t2H92yeCN/sX1oM4AIfjKMFAcA4AFMBTACQDiACgAvAXgDlANYDWA2AVykHKSYAHkpI7bf+xicXpidnFfK6USIvcDkdjq9fenjrxs9eLxJFMc6HQwdjAhAG4GoAvwMwrBcfbwewDsBSAEsAbIaUJFAQYAKgDkfu8Anrr/3TO8URMfG+/AFFFNTKVn5R+uHf7ohz2G35GgwfbAlANoB3AEz2oI9uABsgJQNLAJQCED0PjbTABEBFgqBrGT/vtrKZtz482mAKj9AqDqJAd2Drit0L/3K7w9zePELDMIIpAZgB4GMAsSr3W4sfkoGlABpU7p+8iAmAFwiCrnnY9Hk75/7miRER0fG8jISoF0RRxK4Vn+1Z9PyD7u62xiFax4PgSQDGA/geQJSXxxEB7MYPywXLAfDotB9jAgA4ABi8EAsAoatg5JTN837/fFFccnqad8YgCmxut8u98bM3tn/3+uPRdqu5v5eGUfJ9HgwJQCqAPQASNRi7C8CHAF6HtKGQ/EzIJwD5Y85f2dl42NhUXTbeSzEBgC1zwIhNl9z7TEZa4ZA8L45DFDBslm7zivn/3Lrmo5dz3A671yptCjr9kQt+91rDoidvKZHZNBgSgPcBXKV1EADeA3AvgKNaB0I/CNM6AK0ZIqLEq59ZPn71m/9v3bbPXx4N78wGmGr3bZv8/O1TYYqK2THp8l+2Tb7qV6MMpohoL4xF5NcObl+795tXHm2qrdg2AqLo1Yt7ImKTtl377KpMgzFigDfH8VMT4R8Pf0Aq0T4LwEWQThWQHwj5BOD4BtbJNz82Iadkxp7P/3xNlNth99qRPpu5q3jpW09g6dtPdmYNHLlq9m2PxOUUTyj21nhE/qCnq61zxTv/3L3pq/8m2609AwF4u3Svs3DSRWtn3fPyRJ0+LMxh6Q7Fs+y3ah3AjyQB+A7AJZD2CJDGmACcsAqSVTxl0O3v7Ov59P9dvqGhYus4rw4rirE15VumvHbPXBjDo/aOveimxklX3j04OiElyavjEvmI2+1y7Vnz9c6lb/3d0nhw70hIBWe8Tqc3HLr4kffbs4ZNmeqL8fxUNIDLtQ7iFKIgnUYYAaBK41hCHhOAHx1hNYRHRfzsycXj9ix9b8vSF+5LF92udG9HYLeaB65e+MLA1QtfcEXGJpQOn3Fl18Sf/XJAfEpGX2+PTaQml9PuKlu9aN+6j17qrN27rb8oun15jM+VOWTC2rl/nD/SEBEV6oW5zoGUBPijWEi3LE4G4NQ4lpDGBOA0+yAHnXvNqP6TLrV889Tta6s2fzMOvik9qrd0tpWs++RlrPvkZRiM4ZUDxs2snX7TA9mpOQNzfDA+kWxOu826Y+lHu9Z+/LL96MHyIRDFQb6OwWCKqLjwj+84s4ZN8eqeggAyQ+sAzmIcgOsA/FfjOEIaE4AzFLEKM0VEXvjHtyfWl2/c98VfrrfZutt7UzpTNQ67NX/3qi/yd6/6AsbwqL2DJl/YMOHSX2RkDBxR6Ms4iH7M0tXatu2bBeUbvviPrrXu4FAAo7WIQxCEtuI5t+6cdPOfJun0Yb5I0gOFkgTABsCkdiBncB+At8BKgpphAtCLk5BpRWMH3P7OPuz89s2tq157KNXtcmb6ILCT2K3mgdu/XzBw+/cLIOh0jX0y8vcNmz7PNWLWlYUJfbMzfB0PhRaHzdpTseG78tLvFvZU71qXbO3uKICP1vRPF1L6wLGrL3zo7WHh0QmhvNZ/KukAZM/C/HbeqNJzR/TLW1d2pHrlrhrrjgONyWabYwC8N/s5BNLX0Fov9U9nEfJ1AAZOvWzFzHtemtbbj3c5bPZVrz+0cfd37wwSRbdfbNjTG4xV6f2HHS6ZeZVx6DmXFrH6IHnK7Xa5D+3cWLH1m/lHKzYtjTW3NxUBCNc6LgDuuPTcTRc+8N++SdlFOb1t5LB0m1+6Jk9uJbxArQNwA6R31nJYVvzzajHCGHbS31GH2W5evv1Q5VebKrv3VLdkudzuLPXCBAD8EcBfVe6TeokJwNTLV8y858VpcgdyWM2W1f95eFvZkveKRNGtRZWt03GZImP25gwb1zxw/PnhA8bNyIlLzkjVOijybw6btefQrnUHytYsbj2wZamprf7wQFEU47WO6wRibEq/Def/7tWE1P4lso8QhlgC8BakJKDXMpJjNnzy/y4568mngw0d1QtX7Tu0fFt1bFu3bQg8r5sSqH/HQYEJgMwZgB9zWLrNK//z0Nby5R8MFN3uFKX9eJNOp6+PS86ozikeby6aeEFUwchpRabIaH/64U4+JIpuHD1YXrN33bc1FZuWiA0H9yTbzF258FpJbI+4EtLzN533m+eS+g4YpbhMcIglAHWQlgF67eezh62+bU6xrFsCzT32rsWbD5Z9tna/80B92xBRhJKfKaUARipoRypgAqBwBuDHXA6bfcsnz27d8vGzfV12W66n/XmZy2AKr0rOHtDQf8x5KBx9Tp+M/sNzeINh8BFFUWytq6qt2rHuyL4N3/Yc3rMl1tzeXABRVPtWOLVZUgtHrJv52xfyEzIKPP5+CqEEYBCAMpltxM8em9eQlhCl+L4Sh8tt/2L9gdInF2wcDnlLRfvg/aJQdBrcBKjSBlS9wWQce+X948f87D6xfNkHW9bP/7tgbm0YAUCnygDq0jts1sIjFTsKj1TswIp3nwIAt06vPxSdmFrXN6fIklM8XpdTPCExo/+I/mEGY6TWAdPZtTUc7qjbu622ctvqttp9pbqWuoMJNnNXP0DMAqD22q1X6HT6I/2nzNs/6aY/DY2M7+PvR9n8key/M5Mx7EBaQpRHJ4sMep1x4qCMHMjfJ+LyZFzyDBMAlSdBBEEnDDr3mlGDzr0GbbUVh1f+56FDNdtXDvWz9dRT0bldruzOpiPZnU1HULF56fHfd+oNpoNxyWlH0/KHWLOHjDOmFQyJS+43ICUmKSVZy4BDkcNm7WmuqThy9GB5a015qaW2fKuuubYqwWrp7AdRjAMQp3WMCoiR8cmlY6/+g3XIedeMFXR6rxffCmLnym0wIj/1CACPjxYv2lx5AIDc4mUVno5LyjEB8OIR1ITM/v0ueWRhP6fNat256PV1pV+8FG5pbxoO/5wVOJ0wl8OW23qkOrf1SDXKVn914p/16A3GusjYxJb4vlk9qdkDxbTCoeF9c4oi+2QXxkfHJ/dD8C0zeZXTYbO31lUdPXpwb3PDoX22xupytNRU6bua66Ot5s4+brcrGUD+sVdA0+n0R3LHzNo/4bo/5iZkFnId2HNhAKbJbXTxhAJVloOWbD2k5Hu9XI2xSRkmAD4QZgoPL5l394SSeXejs/HwkfXv/nX//vVf5Xjz0iEfiXA57AVdLQ0FXS0NqCnbfPKfCkKXwWA6aoyI7I6KT7ZEJSQ74pIzxKT0nLC4lCxTYlpWZELffgnRiamJYUaTPxwx8wpRFMXu9qaWruaG9vbG2u6WukpLe0Odo6OpRmxvqA2zdLaZrOaOKLvVknRsI2nATNkrYEnMGrBt7NW/jygYP2e4IOj4bl89YyCV2ZXDPGlIhseVG0URYnVDR4GCphs8HZuUYwLg4zeosSn90mfd+3L6LAD1ezdVbf7o2YbD25Zlu13O4CvmI4oxDrs1xmG3wtzRChzad/qPFYQufZix2WiK6DaYwm2G8AhHRHS80xQV446IihPDY+KEqLg+uuiE5LDw2PiwiOg4Y2RskikqLjEKOp0QFZPwv7rnYUaTwRAeKXfD1/+4XU6nzdzVffz/HTarzW412+1Wi62ns81q7e6wd7Y22Ho6212WzjZXT3eH2NPVKlg62gWbpVPvsFrC7LYeo73HHOV02OJEtzsJQJ9jr1BkjUnpt634gp87h86+foQhPHqi1gEFKdnr/6nxkXuMYXqPqzjurW2tdIui3ATACWCFp2OTckwANKxCmTZwTN5FD72bB1FEzc7Ve7Z8/GxzXdm6/KBMBs5GFGNcDltMj8OGnu6zf7hMFkEQ7Mf/R9DpzaLbHQ6I/6tw9qM9GmGAoiNN9IOemJTMXUNn3eQcev5Nw0yRseO1DigEyE4Apg7vZ1Fj4K/WH6gDIDcB2ASgU43xSRkmAP6wRC0IyCqeMiirWLrHpOng7tpdX79xaP+6r2Jt5vYh8IsgA1qkKIr/O8kgupx8uHuBIAitSf0GlA8+7wZd0fQrhxojY8ZoHVMIiQIwVm6ji8bmq7LUtHJXjZKTQkvUGJuUYwLgh/dQJOcOyZx+178yp9/1L3Q11TXuXPxGxf61nxs7G2uKIIoxWsdHdIzbEB69L3PohMbiObcmZRVPGSQIOk7va2MqAKOcBjqd0FCYmZjn6cBOl9vZ3G4pUtB06dk/hLyJCYCfv7mOSc5ImXjDwykTb3gYotvlOrJvS/me799rPFS6JMbS3jQU/lm9jYKUIOiaYtOyD/SfMNc55PybB8QkZRQBUPLDn9Qle/o/Py1eybG9n9i4t36PCMi9KdUMYKOnY5NnmAD44QzA6Qg6vT6jaGxRRtHYIgCwdrd3VW38ekfFms8tDfu2JNstXYXgvympSNDpGxLSC6ryxs129590aWafnEE5AFj/wf/ITgBmjcpT5d3Pog2VrQqarYR0/TBpiA+LABYeHR9zvOgQIJU7rdr87c6KtV90NezbHNfT2VIAUYw+SzdEx7n1xvCqpMz+DbljZgn9J13cLyGzfxZUeJdIXpUK6WpdOcTZo3OVHNv7iU0V9UouQ+P0vx9gAhBEDJHRUQOmXlYyYOplAADR7XI3Vu6uPLj5m/rqrUvQVluR6rD15IL/7gRA0OkaoxPTD2UMGWfJGz07LmvEtAJTZGwB5O/mJm2dC5lrmSZj2P7kuAjFlysdZ7Y5urssdiVLQNwA6Af4IAhigk6vSy0szk8tLM4fd80DAACXw2ar37f5wKHSFc11u9eKrbX7kuyW7jz4x13v5CU6fVhtTHJmbdrA0bZ+xdOis4on94tK7JsCwC9vsCRZZE//D8tLrgfgcQKwbNvhPZAKEMlxFMAuT8cmzzEB8PNNgGrTG0ymzCGTBmYOmXTS73e11DU27Cutba7aYa7fu0Vsrd0f3dPZkumvVxzTKTl1ekN9VEJKQ1K/Ikty3iBdetGE+PSiMXmGyOhMAJlaB0heITsBuHBMvuJCWSf6elNlj4JmSxFIm6+CGBMAfh0CAGKSMlJiJmSkFE6Ye9Lvm9saW4/uL62t37e542hFqdhWuz+6p7M11e1ypoJfP5oQBKHNEBFVH5vcry05f5gzbcDoiLSBI1MTMgszdHpDMJcRpp8aAPn/3rapxf1UOblRVt2spGgZ1//9BH+Ah9gMgFxRCSmJeWNmJ+aNmf2TP7N2tbW31FbUtxwqs7QfqbK111Y52hoqjT1tzYkOmyVBlC6u4V+wPHZBp283mCLbIhL6tCb0zbfHZ+YZ4tPzTEnZgyP7ZA3MNEXHJQBI0DpQ8guy3/3HR5nKI4z64Z4O3NxuabQ5XEoupVrm6dikDiYApFh4TEJ8RtHY+IyiUxcgc1jNlvb6qobWwxXtnU211u6WWmd381HR3Fqvt3a1Gm2WrginrSfa7bTHi6IYzA+0HkGnbzcYIzoMkdFmU3S8LTIuyRmVkCbGpGToY1KyDPF982ISMvL7RCf2TYEgcG2eekv29b/jB2W2qzHw15uq9kP+12kFgGo1xifPMQEgrzGER0Um5w7NS84detaPdbucbmtHa2t3W0OHubXebGlvtDks3a6erhZHT2e7aLd2w97dKdq62/R2u1XntFp0Dmu3yeV0GNxOh9HlcEScuJwjul3RIsQfZh9EMQKA6RRDixCEjuP/IwAQdPoeQHD+7/f0eqdeF2YLC4+whBlMLr0x3GmKjHUaIqJFQ0Q0TFFxYmRsgt4YFaszRsbpIuP6mCITUiJikjNiI+L6JBhMkREAIgCkKfl7JDoNPYBz5Da6aHyBKsnld1urlayfcve/H2ECQH5Bpw/TRSam9IlMTOmDfLlFxTwi4KcX//CuAAoEoyDza1UQ0D48P3mAGoNXNrQrmf7n+r8f0WkdABERKSJ7/T+jT8xenU7Qn/0jz2x/bWuV2y3KndFygdf/+hUmAEREgUn2+v+5I7LtZ/+os/tyQ2WtgmZbASgpG0xewgSAiCjwRAKYILfRnDH5uWoMvnJXzan205wN1//9DBMAIqLAMwWn3tR6Wnqd7lB2aqzHNSLcbtF1tM08UEFTrv/7GSYARESBR/b0f1G/xENqDLx5f0O5KCJOZjMrgPVqjE/qYQKgApfTDlt3O0TRrXUoRBQaZCcA54/JM6gx8JcbDjQraLYKgJKyweRFPAbogcPbV2LrJ8+irmwD3C4H9EYTsoZOxuCZ1yNvzCwIAvMrIlJdMoBimW1c55XkqHL8b1N5vZKiXZz+90NMABRa+/bj2PrJcyf9nstuQ/XWJajeugQJGQUYeendGDDtcujDjBpFSURBaDpkzt5Gmgz74qJMgzwd2Gp3WDrMNl7/GyT4FlWBbV+8/JOH/4+11R3Akud/i7duH43Sz16Ezdxxxo8nIuol2ef/hxekNKkx8PIdNXsAyH1H0wxguxrjk7qYAMhkbjuK9fP/1uuP726px5r/Poo3fl6MZS/dj5bDe70YHRGFANnr/3PHFkSrMfDXm6rMCpotA8ANUn6ISwAylS/9AE6b/L0sDqsFu799C7u/fQuZQydhyMzrkD92DvRGJcdpiShE5QOQe5bfOiBDc0cAACAASURBVGFIhpJjez+xs6pJyX0WXP/3U0wAZKrdvdbzPnatQe2uNTBFx2PAlHkYdO41SPFt/XsiCkzyr/+NNpWHG/QjPB24pcPabLU7CxU05fq/n2ICIJOlvVG1vmzd7dj59RvY+fUbSOo3EP0nX4rCSZcgPk2VYl1EFHxkJwDjitJV2YD0zZaDFZBffbDq2Iv8EPcAyBQe7Z1r61sO78X6+X/D23eOxYL7Z2H7l6/Abun0ylhEFJB0UHD979xxBX3UGPzbrVUuBc347t+PMQGQKX3QOK+PcXT/Nqz6z8N449YR2LP0fa+PR0QBYQSAJDkNBKCjpCBVlfX/A3VteQqacf3fjzEBkGnIrOthjFBlQ+1Z2S1dWPLcb7Bj0es+GY+I/Jrs6f/UxKi9Op3g8VJvVX1HtcstZshs5oZ0AoD8FBMAmaKT0jH9rn9B0Hl8pXavrfnvo+g4qkoZbyIKXLITgGnD+lnVGPirjQcOK2i2HVINAPJTTAAU6D/pElz00LuI6SM3IVbG5bBjz/fzfTIWEfmlcAAT5TaaMzYvU43BV2yvUVLOlOv/fo4JgELZJefiuufXYsrPH/dJIlC/b4vXxyAivzUJQIScBjpBaOifmahk3f4kbrfoOtLaxet/gxATAA8YwiMxfO7tuOHljTjv188iMbO/18aydbd7rW8i8nuyq//l9o2rBCB4OvC2qsa9ooh4mc2sAFZ7OjZ5FxMAFejDjCiafhWufW4VLnzwbWQVTwEEj7/vThIZn6xqf0QUUGSv/587MltUY+Av11UquUdgHXj9r99jISAVCYIOeWNmI2/MbLTW7MOORa9j74qP4LAqKZ99srSiMSpESEQBKBFAidxGc0bn56gx+Pry2jgFzbj+HwA4A+AliVkDcM4d/8At/9mOqb/4G5LzhiruSx9mRNE5V6oYHREFENnX/xr1uqq+iVEebwC02V3W9m5F1/9y/T8AMAHwMlNUHIrn/BxX/2sprn56GYrn3Cq7muCoy3+DmGRVNvMSUeCRvf4/MCepRo2BV5fVlEE6gSBHG4CtaoxP3hXyCYDoVlLdUpnk3CGY+ou/4udv7sKF//c2+k++FGGmM2/sHTLzBoy58j4fRUgUnNxuVyBfRyt7/f/8UXmqXDP61fqqbgXNlgPw3Q9WUizk9wCY25vU3a3XC3qDEXljZyNv7Gw4rBYc3PwN9q/7Ekf2bERPRzP0RhPS+o9C8dzbkD/2fF+HRxR0rJ2t7QBitI5DgRwABTLbuM4ryR6gxuDbqxpTFTTj9H+ACPkEoLOxRu70lqoM4ZHoP3ke+k+ep2UYREGtuaa8BUCW1nEoIPvdf5TJsC8m0jTI04HbzbbWHptDydlmbgAMECG/BNDVeLhQFN2BPD1IRGdxYM3ngVpIQ3YCMKIw5agaA3+z6eA+yH9GHAZQocb45H0hPwMgimJi9dYlO3JHzSzWOhYikq+no6m5euuSypqday1HK7aaLB3N0Q6rJd7tciTjh+p50zQMUSkB0gkAWeaMLYhVY/BvSw86FTTju/8AEvIJAACsefMxc+6omVqHQUS9VLtrTdnWT55rOrJnQ1+Hrac/AFXuvPczxQDkVgCzThyc4fH0PwDsr2nNUdCM6/8BhAkAgLa6ijFNVTv3J+cNK9Q6FiI6tZ6OpuZVr/1x9/71X+e6XfbBPhiyEMCVAFYCaPDBeD8me/o/Idq0x2TQyy4a9GM1TV21Dpdb7p4JEUwAAgoTAEnY549d3XXrm7tFCCrX8CUij7Q3VNd+849fHGys3DEavp3KLwDwwbH/Lgew4thrJQBV1tnPQnYCMK4os1ONgb/aUFkFQG7xkV3wzd8LqSTkNwEeZ2lvKln93z/x8goiP2HtbGv95OHLVr59x5jkxsodkyG/II2aigDcCWABpNmAMgDPA7gcQIoXxjMBmCy30dxx+apcGrJse7VBQTOu/wcYJgAn2Pb5i6Pr927eq3UcRKFu+1evrX/txiJX7a7VUyE9DP3NIAB3AfgQUkKwG8BzAC6D/HX7UxkPIFJOA0FAx4iCFI/P/7tF0V3T1K2kH07/BxgmACeL+OjBuQmdR2vqtA6EKBTZzO0db90xZv2q1/84XhTdgXIFpgBgMIC7AXwEaRp8J4BnAcwDkKSgT9nT/6kJUXt1OsHjZd1dB5sqRFFMlNnMDmCVp2OTbzEB+BHR7U5951cTrJa2o41ax0IUSurLN5a/dsPgjo6G6vFax+IhAcBQAL8C8DGARgA7APwbwCWQbvc7G9kJwDnF/axy25zKlxsqlWx43ABASdlg0hATgFNw2W35b9w20tzdVFuvdSxEoaBsybubPvy/udlul6Of1rF4gQ7AMAC/BvApgBYAlQBeAXAFfjpDEA9glNxBLhxXoMqNYevK6pSUTOb6fwBiAnAaboc99793jHE1Ve3cr3UsRMFs/fy/rlr6/L0jIXPNO8DlAbgNwEJIMwSlAP4F4CJIswR6OZ3pBKGhID0+z9Og7E6XraWzh9f/hggmAGfgdjkz37/vvL4VKz/eonUsRMFo/fy/rtr84TOTIfOBF2R0AEYAuAfA5wDelNtBblr8AUhLDx5ZW1a3B/ITsU4Amzwdm3yPCcDZiGLMN0/fWbLo7zeuEN0uJaUxiegUSj99fu3mD5+ZBBUeXKFuZkm2Kv0s2lDZoaDZCgD82RiAmAD0jq5yw+Jpr980aHdHQzVPCBB56PD2FbvWvPXYKHjvZ1CP0aCvjgo3lsdFR+yKi47YZTToDwEwe2k8Tc0enevx9D8AlB44quTkBdf/A1SwZd4XAvjSu0MIXaMv+9W28df9cTKrBhLJ19VU2/Df20fpRLdbtQI6OkFoGlqYtveyKcVh00cXZhRk9jntZsIDtS01K7cdqF20do99W0VtWo/NUYDAfjMkRoUb9gzNTWmePSonckpxVlGUyRAtt5NOi639vAcWxkD+csxgAHvkjkfaC7YHmA8SAElE3P9n777Do6jWP4B/Z7ZlUza9kYQkpJAESAgQeokIAqKoKOJFsSN2vHZF9Np774pexEIR6b2mE5KQ3nvvPdlsnZnfH4gX/Ymws7PZkvN5Hp77EPacec3dnXn3tNcjZ9mGXxy8QyfyqZdNECMSx7HsxjvG5an6u2IF6I7183A++/xdC6kb5k2YRFMUr4d4d7+ye39qScWuxHx1bnmTr0qjC4N13xv1DjJJ6YQxnm1XTQ6Sxk8cHe0gkzhfqtFvyeXp72w/M93AazUD8OMXJmFu1vwm/zvDlgD8jvEOjUm89oVfJti7eFrLoSUEYTYnv3zqVOGRH64wth9vN6ezG5+/xSEuMiBCiLgu1Nmn7D6QUly+M6lAm1feNEqt1YXAuu+VegeZpGTCGM+2xVOCZXNjAv42Ibj3g8NJBTUdcw3sezOAO4QJkxhu1vym/jvDnQCcQ1H94xfcmj1v7dszRGKJJR5bShBm19tSU7/5gWleMOJMf4qiup69Y0HeuhVz5gsY2j/q6BnsOpReXLs3uVhztrTBR6XRBcO67516B7mkODbEq+uqKcH2c8cHRMplYsXsx36u1TFskIF93Q7gRxPESAwDa34T/x3zJAC/o0WS+tl3vdQYs/Te6RRFW/OcIkEIbtPauNP9bXW8T/lzcpAVJn7+sOcoT2dvIeMyVEfPYOfelKKK3Yn5uvyqZj+NlgkxZzwC0DnaScoG1brxPNr64dw0AGGFSAJgArREWjvl+ocb4lY+MZWMCBAEUJ1xJHf/G6sn8m0f7Od+OvHzhyZJJWKL+zy1dQ907E0prNybVKjLr2r212gZQVbkW4FinFsASFgpkgAAGpio2hhF0y0R8TcXzFvzxjSp3PGSi3AIwlZ9e0dUtqqvcxKftuGjPdNOff7QNBFNW8VhQa3dA+17kgoq9yUX6Quqmv01OptNCD4BsM7cQRD8jfgEIGDqtYma/g679tL0aSaKCaConpBpV+fFr31rnIOrN1ksSIwojQUpRTs3LOf1TdFVYZ9d8NPT48UiWip0XMOlpau/Y29yUfW+lCKmsKrFX621mXoH2wB8CeAMAEEKERHDa8QnAIGzbkqYfv+n8UW7PjhduPPdWBixQOky6BQ+gWdn3PK0KHzejZMoyjq+0RCEMX58aGZaT1PlTEPbSUR0Q/5PTzu6KuxdTRGXuTR39LXtTiqo2pNSyJTUtAVodUyQuWMykhrnqgEmADiFcwmBxpwBEZeHJAC/JwAA0FNXUHny1etYvUZl8r39FE23BU6cXzp3zevBLr7BtvKNgCD+RKvs6//q1jAJALmBTdnNG24tuGr62BhTxGVJWrsH2g+kFlftOJmnL65tG6U5t+3Qmulxrvzx8d//pICMEFgkkgBckAAAAKPTqJPfX322rSh5Jobn98M6uHlnx614XDduwaqJIonM0BslQVisxG+fS8g78F28oe3iIgOS9r23xtA96Tahsb235beEgup9KYVcWW1boI5hA8wdk5GGAJzGuRGCBJwrHKQ1YzzE70gC8JcE4LyGjP056V885MYyWmGqbFyeAYVPUO7Epfdw4xbeGiuxc+RTl5sgzKqlNLM6e9fnTbU5J/wYrcbgBXAUMJj389MqLxdHsl4GQF1bT/u+pKLaPcmF+rK6tkCtnrH2k/eGAKThzwmBzozxjFgkAbhIAgCcGw1I//LBzMbMg9MADPciJJWTl3/euAW3qiYuvXe81MGZ3AwJi8RxLNuQl1SRu/fr7vq8xACW0fsb09/8KWGJv7y8ep5Q8dma2tbupt2JBTV7k4tQVt8ezDCstScESgCpABLxv4SAVBccBiQB+IcE4LzeusKqpHdX9ar6OiYbE5wRtA5u3vlR81epopfeHUF2EhDmxui12pqMwwU5e79StpZnj+VYVqjDeZgzG//dEujralQSMZLUNHe370sprNubUsiU1raP1jPsKHPHZKRBnEsIEnAuKcgESQhMgiQAl5EAnFeb9ltu5ndPKlit2pz7ejmxRFbmHTapMXLBv2ThM6+NEds5KMwYDzECcByLtsqcptJT2xuqM4/aDXY0hwOcvdDX8XFzysr98akpQvc7klQ2djXsSsirO5BWTFU0dI5hWNbX3DEZaRDnFhIm/P7nLEhCIAiSABiQAAAAx+j1Bb++lVZ66KswjmUs4YOllTooCkfHzOsav+BWF/+YOTG0SGK1e6YJy9HTWN5QfGpbbeXp/eL+ltpwjuPcTX3Nh26ck7Th7oUjcvGfqVQ1dbXvTS6s359SxJTWtQcyLOtj7piMNAAgGf+bMsgGSQh4IQmAgQnAeaxeq83f9mZW+dFvQgQc/hQANeDkMaokKO4qVcj0q938oqaHkp0FxKVwHMt21BRX12Qebq0+c4jrqisewzLDv9gs6/vHm/29Xax9CNuilTV01O46ld9w6HQxXdHYGcqynAXdv3jpB3AEwF4AhwB0mTcc60ESAJ4JwHmMVq3K3/Z6ZsWJTWM4Ixc/mYhOIrMvdxs9tiV4ygLxmGlLAjwCxwWDZ+10wjYMdDW112efqq/JOqZuKz+rUPZ2BIPjzLrrRCoR1dXvfmk4d90QAMrq2xt2JxY2HUovEVXUtwcyLOdl7piMwAA4COBTnDuDgDNvOJaNJABGJgDncYyerTz+37z8HW/b69XKscb2Z1IU1Wfv7FHpO3bKwJipi+0DoucEOHr6W8J0BmECqv7u7pbi9LqqzMN9TYWn5QMdjaMtZPrqT2LCRqUc+ej+2eaOY6QrqW1r2JNc0Hw4vYwur28PYlnOWhcdlwJ4B8BmnEsMiL8gCYBACcCFGjL25+Rte0WrbG+YDEAsZN8mQ1G9UrljnbNvUI/v2Di937gZjr6R030d3bzJNzIroRns6W+rzGtpLk7vaSnNZLobyh2H+jpHcSxjFTfwDXdflfrQjbNnmTsO4s9KatsadpzKqzt6plRa1dQ1hmU5D3PHZKACAE/h3DQBcQGSAJggAThP2dnQnrvltcqmrP1hHMtaxU34ryiK6rZzcql3GRXS7xs5DaPGxjm5BUV5OnsF+FC0yDqSGxvCcSwz0NnU1lVX1tFamtnfUpbJdDeUOan6u/w4K1/clbXpiVZ/T2er/m8YCYqqWxt/S8yvPZZeKq1qtqqEYDeA+wB0mDsQS0ESABMmAOexep22OmlrTsneT6ihrsZYABJTXm+Y6CiabpbJndodPHwHXf3C9B7BUWKv4Bgnt8AIL4WHnx8oihQ74kHZ1dLX3VjR0lFb1NdVW6TpaqyglJ3NCrWyz43Rqr0x/IdSmRyZ/7dOHMehqKatccepvLpjGWXSmnMJgcl3ixihDcAaGF423iaRBGAYEoALqXrbOop3fVBcm/Krr15r+qJDZqShJdIWmb2iR65wH7J38dQ7evqxzt6BEoV3gFThFeDg5Bng6uDs7SaSSk1ZgdEisIxOq+xu6x7sbOrpba0bHOho1PS31un6Oxrood4Osaq/S64dGnBhdJpRMG1FSosUG+6ffOjD++aYOw7COBzHoaC6pXHnyfz6w+mlorq2njCO49zMHdffeBvA8wBYcwdiTiQBGOYE4EJ9DSWNxXs/rms8e9iX1Rl+ZrrNoKg+kVjaJZbJB2QOziqZvUIntXdkpfYKzs7JjXJw8YDM0UUsc3IVyx1dJHYunnI7B2e5zEEhl9orHKRyR0dTh8joNCrtUL9SrewbGurrUmoHe9Tq/h6daqBHpxnoZoZ6O1j1YC/Uyj5KOzRIa4cGxFplr71WM+TI6rQuw7GH3pq9dPeitAdunGVwyWDCsnEch4KqlsYdp/LqD6eXiRvaekItKCHYBWA1zh1FPCKRBMCMCcCFuqpzykv2ftLcVpDgp9eqw8wdj/Wi+kGdy+opgKVo8SB+f59TNKWjRZI/6pRzLCNiGUZ+wd9lHLj/Da9znDNs7zNikbI3PdE2ytPZ2vejE5fAchzyK5sbf0vIrz+SXiJpaOsL5TjO1YwhnQGwCECfGWMwG1u7uVltAnCh/pbKhoqj31U3pO911gx2TwBA5tIJi0eJJA1iiaxfpx4cZ0g7qURUU7/7pWBTxUVYLpbjkFfR3PhbQn7D0fQSSUN7XyjHcS7DHEYaziUBg8N8XbMjCYAFJgAX0ir7eutP7yqtSf1V21tTGDjM5YkJ4p8o7d18i/3jrlWNiV812tl/bNDJV69P6ig/Y9BRvpPC/ZMPkvl/AgDLcWx2aVPtrsS89qMZZZLGcwmB8zBcOgHAEgDqYbiWxSDbuCyc1MHZJXTBndNDF9wJABjqaW1ryjpYXZuyQ99Tmx/GsQzZNkUMG1okaXAPj6sJW3Cno9+kReNosTTuwn/vrs0z+Bjf6+aNJyNcBACApih6SqT/mCmR/mNev38pGJZlimvaqvYmFzXvTy0U17b0RJpohCAewDcAbjdB3xaLjABY+AjAP+I4rqsyp7wmeUtrc84xR1VvewTAOZg7LMJm6MV2DhWuQdHt/nFLpKOnXhti5+Jz0WNi1f2dXXsemuAGA+8ruZufavNxdyLz/8QlMSzLZBTWl/16Krfj0OlSl56BofEQdor0UZw7RnhEICMA1oyiKPewSWPdwyaNBQCOZZiemvzqprzj7W0FCehtKPFkNKogkDUExGWhBuwUbiWe4dP7AqZf6+QbsyBSbOcQCSDyclo3nNlbDmCGIVeUSUTVPu5OI3cHDGEQEU2LZkQHRc2IDsIH64DOPmX3G5uOFfx6IneMjmEDBLjE+wAycG5xoM0jCYANoWiRyC0kdoxbSOyYCcufAgDoVQODrUUplU1nD/W2l6bLVd1NQZZVvZAwE43YzqHaySek0zNyBjd66rU+bmMmhlC0aCrfDhvS9+gMbTM+dFQTAJIAELx4ODu4fbDu+nnvPrKM/Xh7ctb7P58KYIy7v0kAfA9gEgDNJV5r9UgCYOPEcidH/ylLJvpPWfLHz5Sdjc0tucfr20vT1b21+TJld7MXq9OMhm2cUEj8FUX1ypxca10Covq8o2aLvcbP9XQNHB9MiySX9c3+cnXX5hs+/z9rPLkHEUYT0TT9+C3zpqxdNl25csPmpKzShjngP8UdBeAlnDsoyKaRNQDWvAZAQKxep+2tL6zrKM/o6Cg+re1pKJare9p8WEYbAICUDrYGFNUrkTs2Obj79TqPHq/zHDtd7j1ulr+jV5CfqS+t6mvv3PtwjDsMu6dwuT8+1eHj5mTN5WcJC7TlWE7G4x/tiuIAvoeE6QGMB1AmYFgWh2TfBACAFkukbmNiw9zGxIaNXbz2j58zWrWqu7agrqsio7u3rkjb31IlGupudtQp+zxYRucDMmow3LS0RNYgd/XqVPiEqd1CJorcQ6c4uwZNGGWn8HAHMNx7qAEAjRn7KwAYVBRGJhXV+LiR+X9CeP9aGDs1MsirYunj3zoyLMun9LUYwOsAbhI4NItCEgDiH4mkdnLP8LgIz/C4//dvHKPXD3Y2NvY3lnX21BcO9jWU6AdbqyRD3a1OOtWAF8cy7iAJgkEomm4TS+27pArXAUf3ALWjTwgUvqFShf9YR4VfqKfcxceTokUhAELMHeuF6k/vMnj+PzqEzP8TpjMxzC8s4fOH6uIf+qyVYTk+26WXA5gGG14QSBIAgjdKJBY7eQf5O3kH+ftNXvS3r9H0dXarelt7lJ1NA4NtNUPKznrdUGczN9TdKNYM9sp0yj4HvVblyrGMGwDZ8P4XDAs9RdHdtETaL5baD0odnVV2Ck+dzNmLtXf1oe3d/cROviEOjj7Bbo6eo71osdQbgNUt0uyuLfA3tM2yuWT+nzCtsNGegYc+ur9y0aNfDvKYDqAArAewzAShWQTyASRMSubs4SZz9nBzCRx/yddqlX39OtXAoE7Zq9Iq+9SawW6Nuq9Dqx3q02v7u1ntUB+r6e+iNEO9lF6lFOnVSjGj00gAjmK0qv9V0GNZEcvo/+mMfycAalDUH99aKYrSUJRI+8draEpPiyR/nAomksrVIolML5JI9RJ7F71E7sCK7Rw5qb0LZadwpyT2TiKx3Elk5+wplToopHbOPo5yVx8XqYOzCwCv3//YJFVvWwer0xh6lC93/ZwJpOYFYXLRIb6h7z563ZknP9kzFYave7saQDCAGuEjMz+SABAWQ+rgrJA6OCvgYfCXST7IgUkCaTi9pxKApyFtaJpqZ1jORBERxJ/dtmjytF8On03OLm809MhpEYD7ATxjgrDMjqzuJgjCKHUZhu//Z1nOe+Lt73oHXv9y9TVPfJv0za7Tp1u7B9pNER9BAMC21++IFdF0C4+md8JGD1MjIwAEQRilt66I95CNRseMySptGJNV2oAXNx6CREQ3jA8ZVbt4RgR947zoYH9vF4PPFiCIv+NkL3Nct3JuzgdbEgzdFeAFYCaAZBOEZVYkASAIgjd1b2s7j/n/i9IxbEBOeWNATnkj3vzhOGRSUVVMqF/TdXMnSJbNHhfm6epo0FZDgrjQE6viZ366Palex7CjDWx6PUgCQBAE8T+tRan1MOECR42WCckorg/JKK7H+q8OcFKJuCI6ZFTjdfHj6evnjA/3dHHks8ebGKFENC3611WTazYfyjQ0AVgK4AlTxGROJAEgCII3bX+XwfP/RqC0On1YVml9WFZpPTZ8dZCzk0oqY8L9mpfPnSBdOjsq3MPZwW0Y4yGs0HO3Xxm9+VCmDoadURIOwB1Al2miMg+SAAiAY/TQqZWQ2isAytZOVyaIi3P0CbY34+UptVYXeqawNvRMYS2e+WIfJ5OIS2PCRjXfeMVEu2tnR0a4KUhCQPyZq8Le1dPFIbujVznJgGYUgKkADpkoLLMgCYAROsrOoHjPR2gvSQWr10Fs5wDvqDkImb8avtFXkGSAsHne4+eOBUX1geOczR0LAEqj00dkFNdHZBTX45nP97JymaQ8Nty/ZfkV0XZLZ0SGuyrsXc0dJGF+S2dGDWw6mGlosziQBIAAgOK9H6Ngx9sA97+9zHq1Ek3Zh9GUfRjOAZGIvOZhjJ62DJSI/JoJ28Ro1WpwFnvcM63S6MLTCmrC0wpq8OQne1iZVFwcG+bXsmJ+jN3SWeOiXJzkJCEYgRbPiHTjkQBY1PHbQrC1r6jDUg2wJnkbMr557LJe6+ARgLFL1iJ47kqI7fgWpiIIy3Tm60cSalN2xJs7Dp5YBztp+aSIgLbl8dHyq2dERjg72inMHRRhemqtThV0w6t2MOwZeBLAlSYKySxIAmBgAqAb6sf+J6ZBO9hrUGASuROC56xE6MK74ORD6p8Q1o/VazU77gnu5VjW6moXXARjL5OUTQzza1px5UT5NbOjxjvZ25mluiJheqOueamT5ThDtpVW4NxiQJtBxqYNVJ++2+CHPwDoVAMoP7oR5ce+g++EeIy5YjVGxS4ALbLU0VOC+GfFez/N4FjW0KNVLZloSKOLSiusjUorrMW/P97NONrLiqeMDehYfkW0/ZIZkZFO9jIyjGcjZFJxt0qjMyQBsLnpIpIAGKitONW4DjgOLfmn0JJ/CnYKDwTOuhHB8/4FZ7+xwgRIEMOB47jSA5/Z+h580eCQJiohpxIJOZUAoHe0lxVNifBvXT4vWrpkZlS0k73MEhY/EjyIRLShW1ht7jhgkgAYSN3bJlxf/Z0oO/Q1yg59DdfgaIyedh0Cpi2Dw/AUwyEI3iqO/zed0apnGNrO0cGuZEJ4cEdOcdUotUYbAuuahhQPDmnGJWRXjUvIrgI+3KV3spcVxUWN7rzxihiHxVPHRjrYy0iRKStBUTC0GpXNPS9t7j/I1CT2plkj1FOTj56afORtew0eoVMweuYNCJ69giwcJCwOx7Fs3tZXeZ3+98HzDwzdvHTuXABo7+rr2nfydO3uo6narIIKb5VaY22LY8QDQ5pxJ7MqcDKrAjg3QpAfFzG6fXl8tOzqmZExDnIpWVRooTRavaFnWNhc+Upryr4vh8kXAZbs+xT5298wNC5eJPYKTLrtVQTNvNxQVQAAIABJREFUuXlYrkcQl6P0wJepeVtfmWVoOzuZtLIlfWsIRf39ARmtnT1de0+k1+05mqbNLqrwVqmFqzFgJjpHe1nJzPFBXcuvmGC/MC4ikiQElsP3mhf7OA6GTOFUw8a2ApIRAAMFz12Jkv2fQTfUb/Jr6Yb6ceabddAq+xC+eI3Jr0cQl8KxDFPw29u8KvQ9ee9NbRRFhV7s3308XN3vW7nE/b6VSwAALR3dnbuPpVXuPprK5JdW+6nU2iB+UZuNZHBIE300owxHM8oAQOdkL8ubMSGo66b4GPsrp4aPc7CTOpk7yJGos0/ZzXEw9JRI4eZ/LQRJAAxk5+yFuLvfxekvHgTHMsNyzbytr8J34pVk+yBhdoW73k9jdRqDV/6LaLr1kTtviDOkja+nm8cDq67xeGDVNQCAlvauzp1HUqv2HE9j8ktr/NQabaChcZiZZGBIE3P0TBmOnikDAK3CXpY7M3pM1/L4CQ4Lp0VEyaViMkIwDNLya2oAkgCQBICHgGnLIJLZI+v7p6DqaTX59VhGh+pTPyHmXy+a/FoEcTF61cBgyd6PeW1XWb18QZlMIp5nzPV9vdw9Hlq9zOOh1csAAE1tnW07DidX7TmSyhRW1AdodbogY/o3A2n/kGbi4fQSHE4vAQCNi6M8f3bMmO4br4h2uWJy6Fg7qURu7iBt0ZEzZQM8mpUKHoiZkTUAPE4CPE+vHkTlyR9RfvgbkycCHuFxuHLDXpNegyD+SdIHtye05ByLN7QdTdPtTWm/OMrtZCYtHNTQ0tmx82hKza4jKbqSyvoAjVZnaMlXS6NROMiKZkeP6V6xYKLr/Mlh42QSsZ25g7IFE259+2xHr3Kygc1uBvCrKeIxFzICYASxnSMirn4A4Vfdg9rkX1F68AsMtFab5Fo61aBJ+iWIyzHQVt3QknNsOp+29968uERuJzPq2//lCPD18Fx3x/We6+64HgBQ39zZsetocs2uo6m64sq6QK1Wb237a2X9Ss2kg6dLcPB0CQConR3kZ2dFB/esXDjR9YpJYeOkEhFJCAyk0zPajl5lJI+m2YIHY2ZkBMCIEYC/4jgWTVmHUHHse7SXpAnR5R+8x81F/LPbBO2TIC7XgSempw+21xmcAIhourU5fauzzAKGsuua29p3HU2r3X0kVV9cVReo1er9zB2TkVTODvKi2TFjelYujHGNjw0bTxKCSzuRVZF/60s/RhvYrAuAJ2xsKyAZARAQRdHwj1sK/7il6G0oRsWx71GXuhOMVmV0355jpwkQIUEYrjb1t7N8Hv4AcP9t15TLpJK5QsfER+Aob6/H7rzB67E7bwAA1Da1te88klK3+2iqvriifrSeYawtIZD3KVVTDqQV4UBaEQCoXBX22TMnBHfdsjDWNT42ZLxETBKCv9pxMrebR7NE2NjDHyAjAIKOAPwd7WAvalN/RU3iVvQ2FPPqgxZLsPS9dNi789p9RRC86TVDQzvXju3hGMO/LUslovqG1C3eMqlEZorYhFZd19z425GU2l1H06iymoZghmGt/QM35K6wL545YUz3LQsnus2bFDpBLKKt4v8LUxp/69s5nb3KWAObPQrgU1PEY04kATBxAnCh7po81CRuQd3pXQadIzDhpmcQdd3llR8mCCElvH1zYlthMq/5+w+eX3vm7psXW+3QVVV9S/uuoyn1e46e1hdX1QUxDOtj7piMpHR3ti+eFT2me+XCiW7zJoZGj7SEQKtjtKOvf1kPwNAFqdEACkwQklmRBGDGDQnTH/wi3jTh/D1Gp0FL7nHUp+9Bc+4xMFr1RV8beuUdmHzHm8DfH55GECbTWXam5MRr14eDRxEUNxenvOqEzTEmCMtsKmqaOnYfT6vbeyyNKa6qD7SFhMDTxalkbmxw301XxCjmTAyJEYtoqbmDMqXjmeV5t/3nJ0Pfl50AvECmACyewQmA97jZifHP/mryFcoXo1cr0ZR9BA0Z+9BRdgbawR7QYgncQydj7OK18Ju82FyhESMYq9dqdq0dW6/XqsP4ND+y6c2yaRMj+Ky0thpl1Y0Nvx1JbjpwMoMura4PZBjW29wxGUnp7eZUPDc2pO/G+Bjn2THBNpcQ3P/Orwm7EwviDWz2G4CbTBCO2Y34BMDBK+DMNe9nWMwwpV6tBC2WghZLzB0KMYIZM/QfHTkmJWnL+7OFjsnSlVTV124/mNRw4ES6qLK+JYRlrTshoIBBr3MJQf+K+TGKmROCJ1p7QjBu1ds5XX0Gz/8/AuAzU8RjbiM+AaAouuvmHxrdcJECJQQx0jRk7MtO+/S+iQBoQ9tSFNVTevw7xtvd1cMEoVmVitrmhr3H0+oPnMpg80qrQmxgUaHS08Wh7Mq48IFrZ49zmzsxNEIipq3mm4pWp9eMvv4VFoChW1LHAygyQUhmZ2sPPYMTAACY88SP+aMmLjB0XyhB2Bytsq9394PjVBzL+PJp/9SaFcnrH1plcK2AkaCovK5h+6HEukMJmdLKuuYxLMtadZJEAQNebk5FC+LCVTdeEeM2dVxglJimLDYhOJZRlrv65Z8nGtisA4A3bHD+HyAJAABA4ReeuuStRIPLmxKETeE4bv+T0zKU7Q28psRcnB3zahI2R1+s3C/xZwVltY3bDybUHU7MklbVtwRbfUJAod/bVVG8cFrY0PL4GPe4KMtKCNa+tT1hT3JhvIHNdgBYYYJwLIKtfVB5JQAAmKteOVzjGhxz0VKlBGHrMr59PLEmaQvfBbHapK3vN0RHjLGpeunDqaK2ueGXfSdrjyRm0WXVDSEMa927DChA6fH7lMGqhZO8pkSNHktTlMHTSkKJ+tdbud39Q4aOADwE4AtTxGMJSALwO7mL99lln+YaWhyCIGxCc86xvOQPbh8HnqeDXrdgesIP7z0TL2xUIxfHcVxucVXV1gMJzUeSsqR1Te3hHMcZWr7WolAUen3cFMVXTR+rWjk/1nfiWL+I4UoINFqdJvCGVzkAhp6MaLPz/wBJAP4kculDSdG3vGARx5YSxHBR9bZ17Fs3ieV4rlp3kNuVVif9OEYmEVv1CnFLd36EYO+xVHF1Q9tYq08IgEEPF4fy4RghOHymNPfOV34x9Nt/OwAf2Oj8P0ASgL9SLXjxQL172CReNc8Jwtqweq1mz8PR5Vpl3wSeXaiStn7QGB0RzOe8AIInluWQW1zZ+OvhpPpDpzIldc3tYRzHuZg7LmNQFNXl6+5Usmh6pHrlgomjYkJHRVACJQRr3tyWsC+lKN7AZtsBrBTi+paKJAB/QdF029J30xgHr0Br37JDEP+M47gj6+en9TaU8l4Ae98tVye+8+wasx2kRfzPX0YIIjiOczV3TMagKKp7lLuiak7smCFjRwgib3krr2dgyNATAB8E8CWf61kLkgD8DZHUrnLp++nOchdvTwFiIgiLlPbZ/QkNZ/bE823v4eqcU37ivzE0bb6FXcTfY1iWzcwrK99+MKntSHKWfXNb11iO4xTmjssYNEV1+nu5lC2cGj60cuGkUdEhvlG4jGeYWqNXBy1/BTB8/j8KQAmPUK0GSQAugpZIa5a+lya3d/Oz6pW4BPF3Ko59fzp78/rp4HkPoCmqM//gV3p/Xy/y+bACDMsyBeU1tXuOnW7+fYQg0tqnDGiK6vJ1V1SfHyGIixod8XdbUA+kFefc8/pWQ0//s/n5f4AkAP+IEkkarnr5oNYlcDzZ2kTYjMasQ7mpH98dAcO/EZ3Hfv/2k9nLF82aImRcxPBhWJZJzyut33k4pf1IUpa0qbUzjOM4R3PHZQyaptqDfNwqF02P0Nx0RYzXuDE+UQCoe9/YlrA/1eD5/20AbhE+SstCEoBLoaj+6Q98XhE44wayRZCweh0lp4tPvnHjaID/zZ5s+bM9eoZhTp8trthxOLnrxOlc+6bWznCO4xzMHZcxaJpqGzPKo6q+rdtXq2OCDWz+AICvTBGXJSEJwOXhfKPnJ815YvNsihYZXBqVICxBX2NZ7ZHn5ztyHP8T59xcFLkVJ/87QUTT5HNgwxiWZTJzS8t3HkvtOJGaLaluaBtn7WsIDBQBoMzcQZgaSQAMIHN0y1346hEvBw9/skOAsCoDbbWNh56eLeJ7xj8AiER0U9HhjVIfT1eyOHaE0TOMPimjoHT7gcSuU+m5jm2dvREArHqE4B+0ABgR93iSABiMGohc9nBu9E3PzSYVBAlrMNhe23To6bksy+gCjOhGdeC712pnTR4XKVhghNXSMwyTlVdWvnn3ifbEjHz75rauCI7jnMwdl0C2AFhl7iCGg609wIYhAThHpvDMnvf0zwrXwAmkfgBhsfqaymqPPH+lzJhv/gC4d59bk7Zm5dWkYBbxt7Q6vT4ls6Bqy4GE9qSMAkVbR084DC+7aynWAvjG3EEMB5IAGId1CYg4PfeZbWPlzl5WXcmLsD19DaU1R1640p7vEb/n3bR4TsLGtx6PFygsYgTQM4w+K6+sYvPuE+0nTue4WFlCMBZAubmDGA4kARACRfWFXnlHbuytr8ygxRJyHjphdh3lmaWnXrvew5gFfwAQERKQenrHxzNJiV/CGBqtTpOQnle6dX9ib2JGvnN3b78x21BNqRmAn7mDGC629qE2TwLwO1oirY1d9XJryJW3T6UompyORphFw5m9Z9M+u3+sMVv9AMDT3SWz6MjGaKlYJBMqNoIAAI1Wp09Iz6vefjCxIyE9T9HVOxAOwBLeZ78AuNXcQQwXkgCYAC2S1Idcubo25pYXp4okMkvMcgkbVbLvk9T87W9OBSAxph9HB7uS0mPfj3a0l9vqSm/Cglw4ZXAsNdupo6s3CuYZIbgPwLdmuK5ZkAQA0MBEmSdFi5pD5t9eEXPLC1PEMntyIyVM6szXjybUpvw6D0Z+rqUSUW3h4Y0OXu4uZLsfYRZqjVZ3Ki23ZtuhxM6kjAJF97kRguGYXg0HUDEM17EIIz4B8IxdkqDpbZP112TPMFFMAEV1B0y9Jn/S7W9MsFN4uJvsOsSIxGjVqqMvLs7ubyozepW+SEQ3Z+z6lAkZPcqYLYMEISiVWjN0NDm7bNvBhP60rCK33gFlBIwc5fobWQDiBO7Too34BMAn7oaEyLs/ia/Z91567cGPY2HaeSito1dgxrjlT7GBM2+YRVHkNDXCOMquxtYjz17Ro1MPGr0/X0TTLam/fqyKCPEfI0RsBGEqQyrN0NHU7Jqdh5MGUrKKnLp7B8YCEBvZ7c0AfhUgPKtBEoDfEwAA6K/Jrsz5cCXN6tQmvwFSInGjf9w1lRNXrh9r7+FvzB5tYoRqyT+Zn/zeal+OY40eqhfRdGvqjo/UEWMCggQIjSCG1eDQ0NDRpOyS7QcTB0+czhmj0zGGjmBtBnCHKWKzZCQBuCABAABWp1bnf35Hdk9Z2gwMz++HsXfzzY66/nE2eM7NE2mx1BJWwhKWjOO4jO+fTKpJ+GUmBBgGpWm6NWX7B4NRoYHkUCvC6sUsXZte19Q+3cBmVwM4ZIp4LBlJAP6SAJzXdnZ/dsl/H/XgGN1ooYK7DAOO3sHZYYvuRcjclZNFMgerLs9JCE/d19F19IWralW9rYJUpxSJRE0p2z/QRYaMDhKiP4IwN/fJNzYzDGvoWf6+AFpNEY8lI3vVL8J78jWT5n5Y7Ok56ZpEANphuqzTYFvNvJzN6+ftuDdUtO+xKZkl+z5J1Sr7+ofp+oQFazp7JHfvoxP1Qj38ZVJJdc6+Lyjy8CdsRWt7TzuPh38LRuDDHzB+0YRNoyV28vFrvpw3UPdgZf4Xt/dr+zsnDePl5UNdTXH5299E/vY3NfbufpnB8/6lCZt/R5TM2cNtGOMgzIzRqoaSP7gts60obQ4EStodHeyKc/Z95e3p5kx2pRA243ja2VoAXgY2yzFBKFaBJACXwSlwQuist3PQdua33NKfn3FmdZrgYQ5BNtTVFFe08z0U7XyPpSWyYo/QyY3B81bZ+U9ZHCuWOdhKFS7iL1ryThSmfHy3E6vTzhOqTw9X5+ycfV+GOznKyRQTYVOOJJ8d4tGMJADEpXlPu3Gi15TrdFW73kpqPLUxnGMZHzOEQbM6TVR7SVpUe0kazgAamcIt12fC/N7gOSs9vSJnRFC0iGwvtHJ6zZAy5cPVWUJ+6weA6LHBycd+emeaTCImNSsIm5NyttiFR7NcwQOxEmQR4EUWAV4Ko9Voq/e+ldV08vtQjmMNHXIyHYrqc/D0L/WbuEgzatIid8+x08JIgSLrUnlic3r25udHcyxj6FzmP2FXXhN/8uvX1i0QsE+CsBgqtVbtO30lYPgRwiEAqoWPyPKRBIBnAnAeq1Orqna9kdGUuDmUYxlLrCKlEcvsy1wCo7pGTVosGRWzwMfZf2wIbO//e6vX31xen/Dmyg6hFvldQPnuc2uz16xcPEfgfgnCYhw4eSbn1sffijWwWRMAf1PEYw3IFICRaImdPOzmV+aF3PQi25zwQ07N3ncd9BpluLnjuoBMrxmK7izPQmd5FvK3vgZQVI/c2bvKPWzKoP/kqxy8xs0Nkrt4k3PfzUSr6h/I+PLRs005R2YAEHTbqVgkatz/7WsD0ydFkIc/YdO2Hkjo49EsQeg4rAlJAARC02Laf/49sf7z70FH9oHsyp2v6dRdjVMAWN58PMe5qnpbpzRm7kdj5v5zP6OoboncqdbJJ7jXM3w67Rk53ck9dIq/ncLD27zB2i5Wr9XlbX0ts+LodxEcx8YL3b+vp1tm6q8fhbi5OI3YbzjEyJGcUcBnR0uC0HFYE1sbBh72KYB/ou5qbK/a+VpVR+6hMI5lPUxxDVOjKLpD6uTWqBgVMuARGkd5hE9VuAREesndR3lTFE3OkeCB41i27OBXp/N/fWs0x+hMUXSHXXbl9BOb3n16Pk1TlpeAEoTAunoHekLib1fA8C9cYQAqTRCSVSAjACZk5+7vNW7NV16sXqdtSd2SXn/0C1rd3TQJVvR75zjWU9Pf6dnR34mO0jMX/pOWFkmapY4uXXJXnwEn7zEal8AoiWvgeCdFQKSXvatvAMhBU3/CMXq27PDXWQW/vevB6jRGV+77OzRFdX79xr9rViyZs9AU/ROEJfpx1/FiAIZ+phowgh/+gBU9iKwZLZZI/ebdPt1v3u3Q9rV31B74sLjlzI5RrFYdZu7YjCBlGV2Quq8jSN3XgZ7aAtSf2XPhv6tpiaxZZq/okSnc1TJnT72jZyAcPPzFcnd/mZNXsJPczdvFzsXLjRZJhC7raVFYvVZTuOu9jLIDXwWxjG6qqa7j4+GWkbj1vdHeHq4jqqQpQfy4+zif0ewEoeOwNmQKwIRTAJcy0FBUVXf4k8aughMBrE4zYkuwUhTdRYklvWKZ/aDMwWVI7KDQS+0VrESu4CQOzpSdwp22c/QQSxxdxDJHV6nEwUUmc3J1kDq42EvkTg4iiczQbT8G02uGlKxep9OrBlRaZe+QZrBLpe7v1mgGOrXqvg69ur+L1Q50c1plD61T9om0KqWY0SpljFYj02uGfMBxriYMb2jtqqtT3nrq3gUURZFRF2JE0ekZnVfcChXHcQoDm94FYJMJQrIaZATAjJwCxoWMX/N1CAD012SX1x35orm7ONGf1alHVFU2jmPdOZ3GXavTQDvYY0xXKlCU5vxfKIoeoiiaOf93WiId/GsDVqeTA5zo9zgkHMeeTyYocJzzBS91+P1/+Rw0YjKO9nbFhze9KRsfHnSVuWMhCHPYcywtn+M4Q7fOMgAOmiIea0ISAAuhCJ4UPuH+jeEAoGqvbWxM+K66/ex+R21/5wQIUPJ1hJCD4+Tn/8JxjAuHP57/YBmdWYIyEdX1C2dmfPvm4zMkYhE56IkYsT78728qHs1SAbQLHYu1IQmABZJ7BfmH3fyqf9jNr0I32NPTnrWnrCVjp26wvjBwmMsTExbI1UWRfeS/bziHB/sJVh+AIKyRWqNTF1fUR/NouufSL7F9JAGwcBJHV1e/+Dun+8XfCQBQd9S1t2burm/P2oeh1opgjmNJNbcRgqKo7qfWrCh87oFb5lAUZWvrdwjCYFv2ncjjOG4aj6a7BQ/GCpEEwMrYeQZ6BV29zivo6nVgOZYdrMkpbU7d1tZVeNxR298Rgf/NVRO2Qz99YmTqLx89N8HNxWmuuYMhCEvxyeY9LI9m+RihZ///FUkArBhN0bRizOQIxZjJEQDAsQwz2FRS1V10qrW7OJkZrM/31GuUY0H241stdxdFzq+fb3CYNC6UDPcTxAU6unu7a+pbJ/FoukvwYKwUSQBsCEWLRE4B40OcAsaHBC5+BADAqPqVPeWnazryjw70VWTI1F0NARzLkHP/LZxMKql6+5k17XfeuHCGuWMhCEv06me/FADgkxj/JnQs1ookADZOJFc4eMQsGu8Rs+iPn6k66pq7i07V91Sc0Qw2FMo0vS1erE4zGuT9YHYikajx6ftWVD65ZsVsEU2HmDsegrBEHMdxW/cnBPJoehZAgdDxWCtywx+B5J6Bo/zi7xx1fmEhALCMTqdsLGnsq8rq6C0/PTjYWGyn6W31YRmtH8gUgsnRFNW5dtU1hS8/dvsMqURMivfwpBxSw8He5OdCEWZ2KDEjV6vVGVr6FxjhB//8FUkACAAALZJInAKj/Z0Co/3959/9x88ZrWposKGwrq8qq3uwoUg31FYpVve0OOpVA+4co/MFeQ8JQiqV9L3x5F3zyOp+w508nYtvth5EcmYBlENqyO1kmDNlPB5avQzzpvHZIUZYuvUfbFLzaKYBsEXoWKwZuXkT/0gklds7h8RFOof8/+PlOVanV3c2Ngw2l3UpG4sGB5tK9cq2Gom2r1XBqAe8OJZ1B3mPXRa1Rhuy/WDi2ZVL4w090WzE0mh1ePTlz7HtQOKffq5Sa3A05SyOppzFvTcvwdvP3gsRKVxpM6rqmxtq6lv51NTYD6BL6HisGbk5E7xRtEQs9woOkHsFB3hOXPy3r9ENdGk0va0d6u6mXnVXg07VVa/WdDUxmr5WqWagU8wo+x0Y7ZALxzKuAEb0iXbr39skWrk03txhWAWO47B2/UfYfSztH1+3cfshODnK8dKjq4cpMsLU1r3yZTUAPmW0NwkcitUjCQBhUhInd5nEyd3fMWDcJee1dar+fv1gz6BePTCkH+rT6JW9Gk1fu0Y/1MvolD2MfrCX06l6Ka2yl2bUAyJWoxKzeo2YYxma02ll5/thWb2UY9k/kgmOZezPn/eP/53xrwZF/TGMSFGUBpRI+8ffaZGGpkV/nB1MSezUIqmdjpbY6UVyR0bq4MqK7Rw5Wq6gJI5utNTRXSSSO4ml9s4SiZO7Xf4Xd+n1Q30TDPlddfb0TTydXVw6Y1JUhCHtRqJdR1Mv+fA/79Mf9uCWa6/A2GCytMLa9fYr+1LPFvIZJWsBcFjoeKwdSQAIiyGRKxQSucLQil582f3+xyRCb3juTOnPzxrc7tFXvujJ3P2ZCSKyLZ/+cPknueoZBlv2nsJ/1pFRAGv3/Hvf53Icr61/XwPQCx2PtSMTYwRhAt4zb4mjRJJ6Q9tV1DbF1TS0NpkiJlvR3TuA3JIqg9qcLawwUTTEcBlSqZVb950az6OpGsCXQsdjC0gCQBAmQNMi2m/ubTU8morvefYDPu1GjKa2TnAcZ1CbQSWfgnGEJXnqrY2ZLMfxqX3yE0jlv79FEgCCMJExy56aDIrqN7RddlHF9KKKOnJW+UXI7WSXftFf+Pl4mCASYrgMDqmUW/ae5LOnkwPwkdDx2AqSABCEiYjsnBxdx87K4dFUvPrxdzoED8hGBPl7w0XhaFCb+TMmmigaYjg8+cY3mSzHufFoehRAkdDx2AqSABCECY1d9WYoAMbQdtUNzVNTMotKTRCS1ROLRFi59PLXgXm5uxj0esKydPUO9Gw7kMjn1D8A+FDQYGwMSQAEoFP2QN3ZAI4hi0yJP5N7BvnJvYIyeDSl7n72PTJxfRFPrlmBUd6Xng6maQofb3iAHA9sxVY//nY+d27rrqFycG4EgLgIkgDwxXFoTd+BjNcWIuXJaJzeMBNJj4Uj//M70V2cCBi4SImwXePu/dITPEYB2rt6Y/ccT8s1QUhWz9PNGTs+2wB/n4sXtrSTSfH1649hSTyfQ+MIS1Ba3VCbll00k2fzF3FuDQBxEaJLv8SqhANYZUgDR7/IWs/YJUGGtOFYBiWb1qH24MfQDXRe8HMWqvYatGXsRGfeUYjlTnDwDQNFkTxrJJM5e7l15hw8rR3oGm1o28OJWYPr7lruJKJpW/usGs3T3QWrll0BkUiExpYO9A8Onfu5mzNuuSYe37/9JGbERpk5SsIYV972dGnfgJJP1b8zAJ4WOh5bY2uFR64BsM+QBj5xNyRE3v1JvCFtqna9gfqjl7etVO4xGgEL1sJn+k0QyewNuQxhQ4baqhvP/GeeNwCJoW3vWL4w6eMXH5xrgrBsyqBSBa1ODzcXJ3OHQghg19HU7Luefm8Sz+aLQIb/L4l8NTXQUFs1Go5/e9mvV3XWo3zreqQ9F4fKHa9A1VFruuAIi2XvPcbfOXjSaT5tN+86Nrm+qb1F6JgsWXN7V/fdz7yfFjx3dannlJvaRs24pW7+bU9lJZzJu+jhSo4OcvLwtxFqjU69dv3HfFb9A0AKyMP/spAEwEAtqb+AYw1f7KdX9aPhxLc489I85H9+BzrzjpJFgyPMuDVfRgAweGEfx8Fh2doXG0wQkkX6bvvBjHGL1oh3HkmZ2dM/GKHTM95DKk1gdmHllOvX/mf0krufz9Hq9GRu14atXf9hulanC+LZfIOQsdgykgAYqLfijFHtOY5FV+FJFHx1D9Kej0PVztcw1EqOKR0JZK6jvNwj5/LZEYDaxrapW/clZAkdk6X59Ic9aU+88e1kjuMuWhPidHZJ7FV3PJc/nHERw6eksr5mz/HTM3g2PwIgQcBwbBpJAAyk7RfufBZtfyfqj32NMy+jsgLrAAAeLUlEQVTPx9m3r0XD8W+h6RlRI70jTsRdn0wAqAE+bR9++TOfIZVmSOiYLMVPe05mbvhwUxwuY3FybnFlzNb9iWXDEBYxjFiWY6++Z30/AMOPewR0AB4XOCSbRhIAA4nlpilW11+bi8rfXsHp9dOR8/6NaEr6EYzt3utHLKmTu5vf3NXZfNrq9Yz/sjUv8mpr6Q4lZuQ9/NKnE2DAIsnXPv1Zd+lXEdbkyTe/Se7pG4zh2fwzAMVCxmPrSAJgIOfQOJP2z3EseiszUL7leZxePw1tmZdf9pSwDmErX55NS+XlfNpmFZbP/nnPyUyhYzKntJzi8lWPvTUGBpZnbmrvDGFZshTAVhRW1FV//+thvoc2tAN4Wch4RgKSABjIb96doMUG7+TiRafsRfH3D6M55edhuR4xPChaLJpw/0Y9eB5S8sjLnwW1dfZ0CxyWWWTml5UtvfsFD47jDF6+z3GcXK3RmCIsYpjpGUa/5M7nVQDkPLt4HkCfgCGNCCQBMJCDbxhCb3oJoIbvCIWK7S9B3U1KxNsSt8i5UU6jJ6TwacuynOeC1c9UCR3TcEvJKiq+6o7nvDl+RV5AUZSST2VAa1BcWVf7wIZPEuNXPZl65W1Pp7z40Q/JLR3dnZduaZ3ufPq9lAHl0DiezTMB/FfIeEYKkgDw4DfvDoy7+3NIFcNTYpTVadCSumVYrkUMn5hHfhoPiurh07ahpSPutc9+SRU6puFyLCW74No1GwI4jnPh24e/j0cZNYyJ+HDQ6Rnd0ns3JM286bGALftOzcstrpp1trBi9iebds+JXHiP46p1byTp9La1f3jvibTs/SfS+R50xQB4GAArYEgjBkkAePKaci2mvZyMMdc/C6ni4ueRC6Wv2ibXfo1oEkc316AljxTybf/exl9jc4oqrG4kYP/J9NwVD78awmfY/0KvP3GXWKiYLAHHcdzMm9ZlpWYVzsXf74SwO5iYOXfc4nvzNVqddrjjM4XWjt72O5963x/8n0UfAOC1tZYgCYBRxHaOCFz0EGa8dhrh/3oDck8+R1ZfHv1Qr8n6Jswn8JonZontnQt4NrdfdOdzkp6+QauZ+9y47dCZ2x5/OwKAUediT54QlrxswYxogcKyCM+8szG5orbpkvvf2zt7J6146FXjDiSxAAzLMnNueayRZVkvnl2U4lzBH4InkgAIgJbI4Dd3Nab9JxHj1nwJl1Dhq49JnYZnuoEYXjRF05Oe3OUMUEo+7bU6ZvSsmx+rZFnO4odAn3jjm6Qn3/wmDgau9v8rP2/3zMP/fXO6QGFZhLMF5eXfbDl42TeOpMyCmQ0t7a2mjMnUbnn0jeSOrj6+Z/0zAO4GoBYwpBGHJAAComgRvCZdg9gnfkPc+sPwnXULaIkwdcgVIVME6YewPA6+YaODrn6E9xxPc1vX5DueepvXgsLhwLIcu/TeDUnfbT80F0bec1ydHfPO7v1inEQsGp6tOMNArdGqlt67gYZhiZHo262HeW0ltQSfbd6bdizl7DwjuvgYAK/aGsT/kATARBz9xyHitncx880MhK54CQ6jxvLuixZL4Dv9JgGjIyxN8LVPzZF7jOa9v3/fiTNzfth5zOLOBxhSqZWx1z6Q+fu8tlEc7GSlufu/CraTSW2qrOYN9/8nU63Rhhrarrii1ioPQcjIKy194YP/TgT/arQVAF4QMKQRiyQAJiZxcEXA/HsxdcNxTH5mH0bNuQ1iuWFrn0Yvehgy11EmipCwFJOe3htCUXQbz+bUY69+GXG2oLxS0KCMUFHTWB9yxZ3NdU1t04ztSyaVVGcf+NLd2cnBNEdxmskv+xIyT+eUzOHT1tVVYXUJQGt7T/vVd7/gBP5rQHQAVoNHUS3i/xvxCQA3jFOniqCJGLvqTcx6Oxvj1nwJz9gloCX/vI/Zd9a/ELT0sWGKkDAnqZO7W9TdnzSC5wFBHMc5XXXHc07VDS3NAodmsO0Hks5OXf6oQqXWhBnbl0wqqco98JWDt7ur6bfbDKOW9u6Oh1/6JBg8vwmvWDSbb7lcsxhUqgYnX/dgt55h/Izo5lkAVr8A0lLY1iZa4BoA+wxp4BoxO3Hiui3GzEUZRa8eRGfuYXTkHERvZQb0Q32gRGIogmIRMP8eeE5aaq7QCDPJ+WBFYm9FOu/3pEwqrSk+utHF3cXJVci4LgfHcdx9z3+U9OuhpDkQ4AuGnUxambv/a4WPpwvfleIWiWU5NmrRvdmtHd28FvfI7WTlTWlbQmmasoovcTo9o5uw+L681k5+/72/2wvgevBMkIn/z6b20fKh7qoz61FiYjtH+Ey/CT7TbwI4DnpVP2ipHLRYas6wCDOKeeSnaclPTShlNaoIPu01Wm3w5GsfKCw59p2d3E7G92hVg7V29HRcseqpupaOLkESajuZtCLv4Fcu3u4uNvXNHwBufezN5NaObr6/J/ab1x9TWsvDn+M47opVT51p7eyebUQ39QDuAnn4C8oq3kAGMHg8X9XZFAaOs4w3FUVBbO9MHv4jHC2R2U1df0wBiu7i20fvgHL81BseKdQzDCNkbBezZV9CVtSie6iWji5Btqs4OtgV5x/8xs3Whv0B4NMf9qQdSsrkvShybtyE5GuvnB4rZEymtPyBV5IKy2uMefjrAKwEYBP1LyyJrSUAhu+l5lj3rqIEvgexEIRJyD0DR0Xf/00Dzt38eGlo6YiL/9eTZxiWNdlCF5Vaq15y1/PJD2z4eDLLcoIcVuHt7nK29Oj3o73cnd2F6M+SpGQVFW/4cNMk8Jx+tZNJK7d/tsHoRZXDZfUTbyecSs81dkToWQDpQsRD/JmtJQC8Dsao3Pn6gNCBEISx3KMXTfSff69Re50Ly2tnzr753+kMywo+EnAyPa8oeN7qpt9XsQuynig8yC8t//C3Exwd5I5C9GdJGls72pbd96IH+B+EpNm/8VXWTibQ4SIm9sCGTxL2nUiPN7KbH3DuuF/CBGwtAagGYPAZ2UMtZdMGGostZvsUQZwXtuKluU6jo40q+lNSWT9z1op1GUIlAQODQ8qr716fvPz+/0SqNdoQIfoEgDlx4xPSd346XSaxvTkwtUarmn7jo91GHHuL1TcsSJ8yITxcyLhM5bHXvkzcsu9UvJHdpABYK0A4xEXYWgKgA78tIuL8z24nh+0TFmnSU7umiO2deBcNAoDSqsYZ05c/mmnsmoAt+xKyguat7kvLLhZklf/v9A+vXpa479tX461lYZshOI7j5qx8PHdQqY7k24eHqyL34w0P8jovYLjd9cz7CZt2HDV22L8awHIAGgFCIi7i7ypOWTtfAFca2ojRKEexjC7ZLWK26Sr6EAQPFC0S+0y7kWs89f0AjKig19074P/bkZSMu1cs9hHRtEEP2uq65sb5tz1d8tOeE1ONreJ3IYqieje9+2TJg7ctu2QRHGu19J4XkvNKqnkvgqNpuu3s3i8VTo6WPS3CcRx340OvJh1KyIg3sqs+AAsA1BkfFfFPbO0cAAAIBlAJft9OhiY/u69RETjRKobZiJFloKGoKuvNJa7gOKMOgPHxdM3O3PXZWCdHe4dLXnNwSHnf8x9lHUrKnAYji/j8lVQiqT31y7vsuLDAMUL2a0lufuT1xKPJWcZ8G9b9+vmLpQtnxU4QLCgTYFmOXXzn8ykZ+aXGHvnM4Nx5LocFCIu4BJsbbgNQA2Anz7b22e9c76TpaTL7SWoE8VdOAeNCJv57WyvfyoHntXb0TIpYeHdjY1tn+8Vew7Ic+/bX21ID565WHkrKnAeBH/5+3u4ZZce/d7blh/+9z31g7MMf96+6Js3SH/5qjVYVe+0DmQI8/DkAa0Ae/sPGFkcAAGA8gDzwTHBoqV3FjNfS3KROnja3DYmwfh3ZB7ILv71/HACjDrES0XTz8Z/e7o+NCv3jwCGO47jvdxzJfuH9TS4qtUawBX4X0K9cGp/w1WuPzqco25vvP+/JN79N3rjtoFFz9mPHBKSe2fnJLKFiMoWunv6eycsebOodUI4XoLvHcK7KHzFMbDUBAIDtAFbwbUxLZJUzXk11lDp7+wgYE0EIoilxc2b51vWTYOQ6Hoqi+je/+1T1NVdOj/lx14nMZ97Z6KJSa0wyBUbTdNsvHz7bsnhe3ERT9G8p/vPJjykffb9zFoy4v9rZSSuqT/0wyl5ud8lpGnMpq2msm7PycU6r1QUJ0N1LAF4RoB/CALacAPgDKADgwrcDSiSpn/LsAb2jf6TNDlMS1qtmzzvJtYc/nQ3jP8dauZ2sTojCPRfj4+mWmfDL+4G2dqb/X73z9bbUN77cOgNGTK+eW/T3uT7Y38eYojkmteNQ8tk1z384huM4IepNfADgCQH6IQxki7sAzusH0IRzW0n44Vjn5pSfaEff8GIH33BfwSIjCAG4RswK1PS0Jg02FAYZ2ZVIr2dMNd01tHbVNad2f/XSbCcbPNznQv9+7auUTzfvmQXj1lYN7t/4WnN0RHCoUHEJieM4PPbqV6mvfvbTFPAv6XuhjQAeEaAfggdbTgAAIB/n1gNEGdGHXXv2fi9Va2WSR+ySAFuetySsj0fMwiBG3Z/SX5MTAAsb0XN0sCs+9ct76lXLrphCUZRFxSYkjuO45fe/krzrWKqxJyIyX7y6rmBpfJxFnvM/OKRSzlrx2NlT6bkzIcwC8u8A3A8eNVwIYdh6AgCcW1F6NQBj5vJpZUt5UFPyT3nek66F2F4h2D5ogjCWW1T8aApcam9Fuh8sY2ePevmi2cnHf3wn1sfTVZD6AJZKp2d0s1f++0xmQZkxxW4AAI/ecUPKo3dcN1OIuISWkVdaOu3GddqO7j6hdiR8AuAhkIe/WdlsVv4X/jhXTML4OTWK6gtasi43+Non5mLk/P4IK9CUsCmrfNuGGAASc8Xg6uyYu3/jawpb3t533pBKrZy07KHS1o7uycb2tXD2pMRfP9sgSBllIXEcx61/77/JX/y8byqE2wr6BoD1AvVFGGEkPcBiAZwC4CxEZ1Jn77MxD29ydfQfb/M3OsJ6tJzZkVm66d8TIPC+/UuhKKr3iXtuyl//0L/m2PJw/3ntXb3dk697qHVgcMiY6UUAQFx0eNLRH96yuN9bW1dP54LVz1Y1NLcLWX3wOQBvCdgfYQSLesMNgykAjgAw6iS1C+icQ6akTLh/4wSJo7tND3US1qMz70h+wVdrQgBuOLaQsdGRY1K3f7JhrK2v8D8v7WxRybL7XlLoGcboEcXoscEpCVven2lpNRC+2Xrg9LNvfxfOcpxQi0NZAOsAfCZQf4QARloCAAATARwF4ClYjxTV4z/vjvzQm16aSYnEZht+JYjzeirSi/M+WunOsay3qa7h7Gift+XT9dTM2KhoU13D0rzx5ZbT73y9PRYCjLCEBY5KSd/16XQRTYsFCE0QnT19vdfe+2JlSVX9FAG7HQJwO4DfBOyTEMBITACAc7sCDgAIErJTWiKtCb3p5XbfOaviaMqwYisEITR1T3Nr5svze/QaJe8qdBeh2/DwremP33PjbEsbtjYVtVanWXznc5m5xVVGL/YDgCB/7zNZez6fLBaJLOLhz3Ec99H3O1Nf/fznCJblhBzNbAGwDECWgH0SAhkRH96L8AKwC4Dgq24pkbQycNEDNUFXPzaXEomNOq6VIIzB6tTqzNeX5A61VU4Xsl+ZVFL92X8e7l1x9dxJQvZriWoaW5rn3Px43+AQ/3K+Fwr08z6TsfuzWJlELBWiP2MVlNdUX3fff/q7e/uFPqExF8C1ABoF7pcQyEhOAIBzZ6lvBHCbKTqnaFGz37zbK0Kue3YKLbt05TWCMAmO40o2rUtpzdglxKmBf+Lv45G59ZMXPMaHBwYL2a+l+PVQ0tn7nv8omDOyAuN548cGpyb88u50sUhk9i3YA4OqwTXrP8g6nJg1E4DQycg+AKsADArcLyGgkZ4AnPcggPdhqpXTFNXtPXlZfujNL0dLndyFWoBIEAZpSvwhvXzrCxMACJ2M6qNCA5O2fvJ8+OhRXv4C920WSpV66OaHXy1IPVs8FQLdJ+dOjT615+v/zDP3YWJ6hmHf+mpr5gff/TaGZTnh1kL9X3v3HtxUlccB/HuT5tk0CW0JpaVSWqDYWihCZXgMg4Ay6i7qgIIv1HEZVxdGUHfWXR+4iutrXWB1XRxdfKwM7g7iaxVfyAI7CH0B1T5g21JaHn0kaZLmeW9y7/5xUltckEdzc5P295k5kwftvYc0yfmdc3/nHEYC8DyAx8C29iUJjAKAPqUA3gNQKOM5QsYRBVX5C3+tz5h8TSnlCZB48zRXNVS/tMgsiZFsGQ4fmDtjcsUbf1hdkm5Ni8Ua8YrYvqv80LKHX0gXhEhurI659Gdzdm1c+4Di8/w3f/RNxYPPvJYe4nk5dnp0ALgTLL+KJAEKAE5nArAOwD2Q+bXhVOrW4aXXNBQsfqxIPyxnUPSaSHIIudud5U/Naw/7PQOew34mHMf1XDenrHrDmhUTM5IoEAgEQ/5FK56q3FtZN9AlffuLrLrrxr1Prlo2oK2BB2rr9j1VDz2zUef2+mOxbe+ZfAtgKYBWmY5PZEABwJktAPA6gJj1AH5CRJ+eU5V37QPSiGmLJ6tSNAmRGEQGN1EIBQ+uv7nc3Vwdy8buNBzgu3L6pH0b164usWVYEnqNgB17D9TesupZE88Lo2N1TI6D95UnV9Tedv28WC6kc0E+2vFt7arfv4puj7dYplNIYJ2mRwAIMp2DyIQCgLMzA3gRwHLE7XXiPIYRedWjrryby56xdIpKM7h3TyPKay//oLrhrVWjJEmUs4H2z51eWrlhzf0TcrOGJ1Qg0OlwOW9b/WxtRc2Rge7idxqNWt321TvPh0qLC+K+q184Eglv3Pxp+XOvbbF6fUFZRnmi7AB+AeAjGc9BZEQBwLlNB/AXsKWE48lnsOXV5My+U8qeuWSiWp9GwQCRBd/T5Tjw0k2H/R1Ncm9EwxePHV25/vH7hpdNKhwn87l+uiJCWHjkhTe+fXPrl5MkSYrJ8uC9rBZTTfm2V3JsGRa5tlg+I4/X73li3VvVf/9wx/hIRJQjx6O/98GSpztlPg+REQUA50cN4D4ATwFQ4ppmUJ+eU5M96xY+e/YdRZrUdJpJQGKuY//7FfXvPJQtiQNf4vZcMqzmqrUP3xVZet2csngvJrTlk28OrXp6oyXEC3mxPnbxuLxdOze/OE2rTYnbXgx7Kr5reHzd245DdU2lUuxnePyYHcBKsIRpkuQoALgw6QB+A/YBMChUB1GlNTZYxpS2Zc1cYrBNumaySmug7YlJTIT5gP/7jfdUd9fvmY44bBeu02qP3nHj/Lbf3re0RO6EwYMNTU03r1jr7rS75Fi8KLhi2fXlax+8a7YMx/4/DpfH+ac33v9+09YvsgLB0Ph4nBPANrBef0eczkdkRgHAxckBsAbA3QCUXsozqDFn1mcUzXFnzVhisxaUFXIq5RcZIcnN3VRRf3DDrRpRCMbrGnZoXF5O9aP332pYOH/6JJUqdqMC3x9paV7+u/Xt9Y3HroAMn1etRtPy6d+eDpVNLJRzCjF6vAHv6//47NDr723XnupylCJ+2z6fAvAgqNc/6FAAMDCFANYCWIREeS05zmXIHNWQUbKAzyxdkGnNnzqONigi5yPQ2dLaWf1Jm6Pm60jPibqRIh8sQAwT485XSor6+ML5M5pWLls4anLR2Iuer15Rc/jILx9d72xqa78CMv0/xufl7N3x7osT00zyJOx2OLrtb279smHLxzs1x050TER8Rx4FAH8Gu/TpieN5SZwkRqOV/MrAPiQLkHivaTDFmNZoyr3MkVE8V5NRctWo1KyCS5SuFFGWKISC7ubKpq6Dn9mdtbu0QXtbviTJt3PgxdJq1G3TLy8+eu/Sa61Xz55afD5L6H6z71DtyjUv+090OKZCvs9jYPU9iyrXrLw9pvP7I6IY2Xeg/vA7277q/HxXRabb6y+CAkEY2I6pDwBoUODcJE4SrbFKdhMBPAy2IEbi9ro5zqm3jGiyFJT5MiddbbJOmDlGmzY8rhnLJH4iQa/X1VjR7Kzb2e06sl/t72q2iXwwH8pfvrogHMd152bb/jtrSlFw/szL0wrzR6WPzskaIYTDvNfr9324Y1/Lhk3bDPZud6w3tTlNmslY+9mmtYaS8WPyB3osIRwRqmoON/5z+57OL3ZXGE92OgslSTLHop4X6SiAh8A2SiODHAUA8sgFsApsDYHkSNDjVA5NqrXNaCvwmMdOgbVgmsWSP+USjWlY0qzkNtRJohD2tx897jla1eFuqgy6m6s1QWfrSFHgR0OZXuRgE7z9hrn7Nzzxq1lqleqC82yEcESobzzWunNfTftX/6kMf9fQkuH2+gqgXEJxf50AngPwVwBBhetC4oQCAHlZAdwLNoUwZiuMxRPHqTo0aeknjCPH9VjHTFWZC8osqTmFI/TWkTYMkb3gE00k5PN5j9e1uY9WOz2NFbz35GF9yHUqUxRClyD2u7oRnH+vP8QLoZYTHe1Hmo87G5pafdV1jeH6xlb9qU6nLcQLuUi8kUEHgD8CeBmAT+G6kDijL/D4UAG4CmzVrIUYHF/SIU6tPaFJtTh16aP8pqx83jiykEvLLTIbcy616cy2XFCv86KIEUEIdLa0+07W23vaar2B9ibO39mi513tpnCoxyaJIq0DEUcGve7I8iXXtouSCKerRwIAR7dHsrs8aqfLo+nx+vW+QMgY4gWLKCZeHsVZuMCW8F0PSvAbsigAiD8bgGVgGw5NULgucvKrNLqTKcZhLq3JGtJZs8L69Fzo0kemGIbn6fWZuWk6a7ZVm5aRMVSmLYphgRfcnQ6/vcUZcBz3+Tsag8GuNjHYfVwteOy6sM9tigiBdEmM2EDBE5FHB4BXwXr83QrXhSiMAgBllQJYAuBmAANOKEpSEsepHFyK1qXWpfZoUs1BtcEc1hosYorRIqUYrZw61aLSmW0pWtMwjdpg0WpSzbqU1GFGjXGYSa03pcZjAyVRCAVFIRAU/G6fyAeFcMATEPw9giQEwrynixe8jnDQ3RkR3F2S4HWoeF+3JhL06sSQ3xAJ8yZJDFugbHIXGdq+A+vtbwYQUrguJEFQAJA4ygDcBOAGAIquk560OM7V70GEU6n9PzxSqXiVKoU/06+JUkQtRSKnJ2KJEZ0ESQtARQ33RekG8DnYdeUlSJZk2MFFAvsbrAPwdfQxIT+gACAxXQrg+miRbRETQmKsFsCn0bIXQDj6vAksCFgOQLGtcYeQUwDeBbAJNI+f/AQKABKfDcD8aJkHgBbxIYkiCGAXgH+BNfpHz+N3SsCSYe+AMhtrDVYhAB8DeBus1x9RtjokGVAAkHzGoy8guBJsqiEh8RABcBDAbgD/BrADFz91TA+2cuZiAD8HENMteYcIEcB+sOv6WwA4la0OSTYUACQ3NYCp6BsdmA72xUpILIQBVII1+LsB7IE8U8Z0YNNkF4NNk6WRgbMLAdgJ4EOwHv8pZatDkhkFAIOLBmxmwTSw3IFpYAmF9Hcm58MPoApsWH832HX8eC8OowEb2boqWiaC3r8OsCS+DwBsB83bJzEy1D9YQ4EZ7Et0JoBZYIGBTdEakUTAA2gEa/B7S3n0+UQyHMAcsFGuqwHkKVmZOOkBG9r/OloOgA33ExJTFAAMTWPBLh2UACgCcBnYOgQ022Bw8oJdu+9t6KvBssOTMVEsH2zKbG+5HGyWQbIKg/0tDoBdbtkFNmefGnwiOwoASC8j2PTD4mi5LHqblHsYDFF2AHVgDUoDgPro7TEM3jngarD3bRnYSNf4aMlD4u12aAfQBOAQWBB2AKyxDyhZKTJ0UQBAzsUMNkowAcCYH5WRoFGDeAsAaImWOgCHwRr6erBrxYTRgI0W9AYEuQBGgL1nbQCyENtkQx/Y698FtrNeK1hj39yvuGN4PkIGjAIAMhA6sBGCPPQFBb33R4N90dJ77MLYwXrsrdHS0u/+MbAGhsSGDuw9OgwsYDCDjShYwALb3gDBg77LJT6wPAkJrMG3R2+pF0+SDn05EzmlgCVx2dDX8+q9Pxx9PbLenxmsowld0WIH6x129HvcEX2uC6yB95/lGIQQElMUAJBEoQKQDtYLs4CtHW+K3lqiz/d/zhp9zgAgtd9xjGA9u169vTmA9e76r+svgCXI9eJx+rS3EPoa5N5/647ees/xuAesge9CcibbEUIIIYQQQgghhBBCCCGEEEIIIYQQQgghhBBCCCGEEEIIIYQQQgghhBBCCCGEEEIIIYQQQgghhBBCCCGEEEIIIYQQQgghhBBCCCGEEEIIIYQQMuT8Dwh7xE6uEUwMAAAAAElFTkSuQmCC;fontFamily=Comic Sans MS;fontSize=8;strokeWidth=1;fontStyle=1" vertex="1" parent="76">
                    <mxGeometry x="59" y="26.1" width="50" height="50" as="geometry"/>
                </mxCell>
                <mxCell id="73" style="edgeStyle=none;shape=connector;rounded=1;html=1;entryX=0.125;entryY=0.644;entryDx=0;entryDy=0;entryPerimeter=0;dashed=1;labelBackgroundColor=default;strokeColor=default;fontFamily=Comic Sans MS;fontSize=8;fontColor=#f2f5f7;startArrow=none;startFill=0;endArrow=blockThin;endFill=1;" edge="1" parent="76" source="30" target="65">
                    <mxGeometry relative="1" as="geometry"/>
                </mxCell>
                <mxCell id="66" value="&lt;font color=&quot;#000000&quot; style=&quot;font-size: 8px;&quot;&gt;&lt;b style=&quot;&quot;&gt;Curate&lt;/b&gt;&lt;/font&gt;" style="sketch=0;outlineConnect=0;fontColor=#232F3E;gradientColor=none;fillColor=#4495d1;strokeColor=none;dashed=0;verticalLabelPosition=bottom;verticalAlign=top;align=center;html=1;fontSize=12;fontStyle=0;aspect=fixed;pointerEvents=1;shape=mxgraph.aws4.data_set;strokeWidth=1;fontFamily=Comic Sans MS;" vertex="1" parent="76">
                    <mxGeometry x="190" y="37.47" width="27" height="33.44" as="geometry"/>
                </mxCell>
                <mxCell id="75" style="edgeStyle=none;shape=connector;rounded=1;html=1;entryX=-0.048;entryY=0.592;entryDx=0;entryDy=0;entryPerimeter=0;dashed=1;labelBackgroundColor=default;strokeColor=default;fontFamily=Comic Sans MS;fontSize=8;fontColor=#f2f5f7;startArrow=none;startFill=0;endArrow=blockThin;endFill=1;" edge="1" parent="76" source="12" target="66">
                    <mxGeometry relative="1" as="geometry"/>
                </mxCell>
                <mxCell id="77" value="" style="group" vertex="1" connectable="0" parent="1">
                    <mxGeometry x="-546" y="-406.99" width="279" height="156.99" as="geometry"/>
                </mxCell>
                <mxCell id="20" value="&lt;font face=&quot;Comic Sans MS&quot;&gt;&lt;b&gt;Model Development&lt;/b&gt;&lt;/font&gt;" style="dashed=1;rounded=1;absoluteArcSize=1;arcSize=20;html=1;verticalAlign=top;align=center;spacingTop=5;spacingLeft=10;strokeWidth=1;" vertex="1" parent="77">
                    <mxGeometry width="279" height="156.99" as="geometry"/>
                </mxCell>
                <mxCell id="26" value="&lt;font style=&quot;font-size: 9px;&quot;&gt;Code&lt;/font&gt;" style="verticalLabelPosition=bottom;html=1;verticalAlign=top;align=center;strokeColor=none;fillColor=#00BEF2;shape=mxgraph.azure.git_repository;strokeWidth=1;fontFamily=Comic Sans MS;fontSize=8;" vertex="1" parent="77">
                    <mxGeometry x="20" y="73.27" width="38" height="38" as="geometry"/>
                </mxCell>
                <mxCell id="28" value="&lt;b&gt;Validate&lt;/b&gt;" style="shadow=0;dashed=0;html=1;strokeColor=none;fillColor=#4495D1;labelPosition=center;verticalLabelPosition=bottom;verticalAlign=top;align=center;outlineConnect=0;shape=mxgraph.veeam.checked_doc;strokeWidth=1;fontFamily=Comic Sans MS;fontSize=8;" vertex="1" parent="77">
                    <mxGeometry x="155" y="74" width="29" height="34.65" as="geometry"/>
                </mxCell>
                <mxCell id="40" value="" style="sketch=0;aspect=fixed;html=1;points=[];align=center;image;fontSize=12;image=img/lib/mscae/Machine_Learning_Studio_Workspaces.svg;strokeWidth=1;fontFamily=Comic Sans MS;fontColor=#ebf1fa;fillColor=#72bced;imageBackground=none;" vertex="1" parent="77">
                    <mxGeometry x="220" y="73.27" width="36.69" height="36.69" as="geometry"/>
                </mxCell>
                <mxCell id="64" style="edgeStyle=none;shape=connector;rounded=1;html=1;dashed=1;labelBackgroundColor=default;strokeColor=default;fontFamily=Comic Sans MS;fontSize=8;fontColor=#f4f0f0;startArrow=none;startFill=0;endArrow=blockThin;endFill=1;" edge="1" parent="77" source="28" target="40">
                    <mxGeometry relative="1" as="geometry"/>
                </mxCell>
                <mxCell id="63" style="edgeStyle=none;shape=connector;rounded=1;html=1;dashed=1;labelBackgroundColor=default;strokeColor=default;fontFamily=Comic Sans MS;fontSize=8;fontColor=#f4f0f0;startArrow=none;startFill=0;endArrow=blockThin;endFill=1;" edge="1" parent="77" source="42" target="28">
                    <mxGeometry relative="1" as="geometry"/>
                </mxCell>
                <mxCell id="42" value="" style="sketch=0;html=1;verticalAlign=top;labelPosition=center;verticalLabelPosition=bottom;align=center;spacingTop=-6;fontSize=11;fontStyle=1;fontColor=#999999;shape=image;aspect=fixed;imageAspect=0;image=data:image/svg+xml,PHN2ZyB4bWxucz0iaHR0cDovL3d3dy53My5vcmcvMjAwMC9zdmciIHhtbG5zOnY9Imh0dHBzOi8vdmVjdGEuaW8vbmFubyIgd2lkdGg9IjIwIiBoZWlnaHQ9IjE3LjUiIGZpbGwtcnVsZT0iZXZlbm9kZCIgdmlld0JveD0iMCAwIDIwIDE3LjUiPiYjeGE7CTxzdHlsZSB0eXBlPSJ0ZXh0L2NzcyI+JiN4YTsJLnN0MHtmaWxsOiM0Mjg1ZjQ7fSYjeGE7CS5zdDF7ZmlsbDojNjY5ZGY2O30mI3hhOwk8L3N0eWxlPiYjeGE7CTxwYXRoIGNsYXNzPSJzdDAiIGQ9Ik0xOC45MSAxMC42M0wyMCA4Ljc1IDE3LjgyIDVoLTMuMDdsLTEuMDYtMS44NkgxMi41VjEuODhoMS45NGwxLjA2IDEuODdoMS41OUwxNC45IDBoLTQuMjd2NWgxLjczbC43MyAxLjI1aC0yLjQ2djIuNWgyLjI2bDEuMDUtMS44N2gyLjgxbC43MiAxLjI1aC0yLjhMMTMuNjIgMTBoLTIuOTl2NC4zOGgzLjRsLS43MiAxLjI1aC0yLjY4djEuODdoNC4yN2wzLjI4LTUuNjJoLTIuMDlsLS43MyAxLjI1SDEyLjV2LTEuMjVoMi4xNGwuNzQtMS4yNXoiLz4mI3hhOwk8cGF0aCBjbGFzcz0ic3QxIiBkPSJNMS4wOSAxMC42M0wwIDguNzUgMi4xOCA1aDMuMDdsMS4wNi0xLjg2SDcuNVYxLjg4SDUuNTZMNC41IDMuNzVIMi45MUw1LjEgMGg0LjI4djVINy42NGwtLjczIDEuMjVoMi40N3YyLjVINy4xMUw2LjA2IDYuODhIMy4yNWwtLjcyIDEuMjVoMi44TDYuMzggMTBoM3Y0LjM4SDUuOTdsLjcyIDEuMjVoMi42OXYxLjg3SDUuMWwtMy4yOC01LjYyaDIuMDlsLjczIDEuMjVINy41di0xLjI1SDUuMzZsLS43NC0xLjI1eiIvPiYjeGE7PC9zdmc+;strokeWidth=1;fontFamily=Comic Sans MS;fillColor=#72bced;imageBackground=none;" vertex="1" parent="77">
                    <mxGeometry x="85" y="73.08" width="40" height="36.19" as="geometry"/>
                </mxCell>
                <mxCell id="62" style="edgeStyle=none;shape=connector;rounded=1;html=1;exitX=1;exitY=0.5;exitDx=0;exitDy=0;exitPerimeter=0;dashed=1;labelBackgroundColor=default;strokeColor=default;fontFamily=Comic Sans MS;fontSize=8;fontColor=#f4f0f0;startArrow=none;startFill=0;endArrow=blockThin;endFill=1;" edge="1" parent="77" source="26" target="42">
                    <mxGeometry relative="1" as="geometry"/>
                </mxCell>
                <mxCell id="55" value="&lt;b&gt;&lt;font color=&quot;#000000&quot;&gt;RF, XGBOOST, LR, ANN&lt;/font&gt;&lt;/b&gt;" style="text;html=1;strokeColor=none;fillColor=none;align=center;verticalAlign=middle;whiteSpace=wrap;rounded=0;strokeWidth=1;fontFamily=Comic Sans MS;fontSize=8;fontColor=#ebf1fa;" vertex="1" parent="77">
                    <mxGeometry x="92" y="36.99000000000001" width="105" height="30" as="geometry"/>
                </mxCell>
                <mxCell id="107" value="" style="endArrow=block;html=1;rounded=1;dashed=1;labelBackgroundColor=default;strokeColor=default;fontFamily=Comic Sans MS;fontSize=8;fontColor=#000000;shape=connector;endFill=1;startArrow=oval;startFill=1;exitX=0.5;exitY=1;exitDx=0;exitDy=0;" edge="1" parent="77" source="111">
                    <mxGeometry width="50" height="50" relative="1" as="geometry">
                        <mxPoint x="226" y="136.99" as="sourcePoint"/>
                        <mxPoint x="44" y="126.99000000000001" as="targetPoint"/>
                        <Array as="points">
                            <mxPoint x="236" y="126.99000000000001"/>
                            <mxPoint x="236" y="146.99"/>
                            <mxPoint x="226" y="146.99"/>
                            <mxPoint x="215.16" y="146.99"/>
                            <mxPoint x="43.83" y="146.99"/>
                            <mxPoint x="43.83" y="136.99"/>
                        </Array>
                    </mxGeometry>
                </mxCell>
                <mxCell id="110" value="&lt;b&gt;&lt;font color=&quot;#000000&quot;&gt;Train&lt;/font&gt;&lt;/b&gt;" style="text;html=1;strokeColor=none;fillColor=none;align=center;verticalAlign=middle;whiteSpace=wrap;rounded=0;strokeWidth=1;fontFamily=Comic Sans MS;fontSize=8;fontColor=#ebf1fa;" vertex="1" parent="77">
                    <mxGeometry x="88.5" y="111.27" width="33" height="21.27" as="geometry"/>
                </mxCell>
                <mxCell id="111" value="&lt;b&gt;&lt;font color=&quot;#000000&quot;&gt;Evaluate&lt;/font&gt;&lt;/b&gt;" style="text;html=1;strokeColor=none;fillColor=none;align=center;verticalAlign=middle;whiteSpace=wrap;rounded=0;strokeWidth=1;fontFamily=Comic Sans MS;fontSize=8;fontColor=#ebf1fa;" vertex="1" parent="77">
                    <mxGeometry x="220" y="109.26999999999998" width="33" height="21.27" as="geometry"/>
                </mxCell>
                <mxCell id="80" style="edgeStyle=none;shape=connector;rounded=1;html=1;exitX=0;exitY=0.5;exitDx=0;exitDy=0;entryX=0;entryY=0.5;entryDx=0;entryDy=0;dashed=1;labelBackgroundColor=default;strokeColor=default;fontFamily=Comic Sans MS;fontSize=8;fontColor=#faf5f5;startArrow=oval;startFill=1;endArrow=blockThin;endFill=1;strokeWidth=1;" edge="1" parent="1" source="19" target="71">
                    <mxGeometry relative="1" as="geometry">
                        <Array as="points">
                            <mxPoint x="-820" y="-453"/>
                            <mxPoint x="-820" y="-69"/>
                        </Array>
                    </mxGeometry>
                </mxCell>
                <mxCell id="84" style="edgeStyle=none;shape=connector;rounded=1;html=1;dashed=1;labelBackgroundColor=default;strokeColor=default;fontFamily=Comic Sans MS;fontSize=8;fontColor=#faf5f5;startArrow=none;startFill=0;endArrow=blockThin;endFill=1;" edge="1" parent="1" source="23">
                    <mxGeometry relative="1" as="geometry">
                        <mxPoint x="-660" y="-180" as="targetPoint"/>
                        <Array as="points">
                            <mxPoint x="-380" y="-180"/>
                        </Array>
                    </mxGeometry>
                </mxCell>
                <mxCell id="85" value="" style="group" vertex="1" connectable="0" parent="1">
                    <mxGeometry x="-800" y="-354" width="140" height="230" as="geometry"/>
                </mxCell>
                <mxCell id="25" value="&lt;font face=&quot;Comic Sans MS&quot;&gt;&lt;b&gt;Feature Engineering&lt;/b&gt;&lt;/font&gt;" style="dashed=1;rounded=1;absoluteArcSize=1;arcSize=20;html=1;verticalAlign=top;align=center;spacingTop=5;spacingLeft=10;strokeWidth=1;" vertex="1" parent="85">
                    <mxGeometry width="140" height="230" as="geometry"/>
                </mxCell>
                <mxCell id="96" style="edgeStyle=none;shape=connector;rounded=1;html=1;exitX=0.963;exitY=0.612;exitDx=0;exitDy=0;entryX=1.095;entryY=0.407;entryDx=0;entryDy=0;entryPerimeter=0;dashed=1;labelBackgroundColor=default;strokeColor=default;fontFamily=Comic Sans MS;fontSize=8;fontColor=#faf5f5;startArrow=none;startFill=0;endArrow=blockThin;endFill=1;exitPerimeter=0;" edge="1" parent="85" source="48" target="15">
                    <mxGeometry relative="1" as="geometry">
                        <Array as="points">
                            <mxPoint x="130" y="174"/>
                            <mxPoint x="130" y="78"/>
                        </Array>
                    </mxGeometry>
                </mxCell>
                <mxCell id="48" value="Extract Features" style="image;image=img/lib/atlassian/Trello_Logo.svg;strokeWidth=1;fontFamily=Comic Sans MS;fontSize=8;fontColor=#000000;fillColor=#72bced;fontStyle=1" vertex="1" parent="85">
                    <mxGeometry x="50" y="153" width="35" height="35" as="geometry"/>
                </mxCell>
                <mxCell id="15" value="&lt;font color=&quot;#000000&quot; face=&quot;Comic Sans MS&quot; style=&quot;font-size: 8px;&quot;&gt;FGRA Feature Selection&lt;/font&gt;" style="sketch=0;html=1;verticalAlign=top;labelPosition=center;verticalLabelPosition=bottom;align=center;spacingTop=-6;fontSize=11;fontStyle=1;fontColor=#999999;shape=image;aspect=fixed;imageAspect=0;image=data:image/svg+xml,PHN2ZyB4bWxucz0iaHR0cDovL3d3dy53My5vcmcvMjAwMC9zdmciIHhtbG5zOnY9Imh0dHBzOi8vdmVjdGEuaW8vbmFubyIgd2lkdGg9IjIwIiBoZWlnaHQ9IjIwIiB2aWV3Qm94PSIwIDAgMjAgMjAiPiYjeGE7CTxzdHlsZSB0eXBlPSJ0ZXh0L2NzcyI+JiN4YTsJLnN0MHtmaWxsOiM0Mjg1ZjQ7fSYjeGE7CTwvc3R5bGU+JiN4YTsJPHBhdGggY2xhc3M9InN0MCIgZD0iTTEzLjMzIDB2Mi4zOGgtMi4xNlYwSDguODN2Mi4zOEg2LjY3VjBINC4yOXYyLjM4YTIgMiAwIDAgMC0xLjkxIDEuOTFIMHYyLjM4aDIuMzh2Mi4xNEgwdjIuMzhoMi4zOHYyLjE0SDB2Mi4zOGgyLjM4YTIgMiAwIDAgMCAxLjkxIDEuOTFWMjBoMi4zOHYtMi4zOGgyLjE2VjIwaDIuMzR2LTIuMzhoMi4xNlYyMGgyLjM4di0yLjM4YTIgMiAwIDAgMCAxLjkxLTEuOTFIMjB2LTIuMzhoLTIuMzh2LTIuMTRIMjBWOC44MWgtMi4zOFY2LjY3SDIwVjQuMjloLTIuMzhhMiAyIDAgMCAwLTEuOTEtMS45MVYwem0xLjUzIDE1LjI0SDUuMTRhLjM4LjM4IDAgMCAxLS4zOC0uMzhWNS4xNGEuMzguMzggMCAwIDEgLjM4LS4zOGg5LjcyYS4zOC4zOCAwIDAgMSAuMzguMzh2OS43MmEuMzguMzggMCAwIDEtLjM4LjM4em0tMi4wNy02LjEybC0zLjUgNC44NnYtMy42M0g3LjIybDMuNjEtNC44MXYzLjU4eiIvPiYjeGE7PC9zdmc+;fillColor=#70a995;" parent="85" vertex="1">
                    <mxGeometry x="50" y="63.49000000000001" width="36" height="36" as="geometry"/>
                </mxCell>
                <mxCell id="86" style="edgeStyle=none;shape=connector;rounded=1;html=1;dashed=1;labelBackgroundColor=default;strokeColor=default;fontFamily=Comic Sans MS;fontSize=8;fontColor=#faf5f5;startArrow=none;startFill=0;endArrow=blockThin;endFill=1;strokeWidth=1;entryX=-0.001;entryY=0.227;entryDx=0;entryDy=0;entryPerimeter=0;" edge="1" parent="1" source="25" target="20">
                    <mxGeometry relative="1" as="geometry">
                        <mxPoint x="-550" y="-370" as="targetPoint"/>
                        <Array as="points">
                            <mxPoint x="-730" y="-370"/>
                        </Array>
                    </mxGeometry>
                </mxCell>
                <mxCell id="92" value="" style="edgeStyle=none;shape=connector;rounded=1;html=1;dashed=1;labelBackgroundColor=default;strokeColor=default;fontFamily=Comic Sans MS;fontSize=8;fontColor=#faf5f5;startArrow=none;startFill=0;endArrow=blockThin;endFill=1;" edge="1" parent="1" source="20" target="61">
                    <mxGeometry relative="1" as="geometry"/>
                </mxCell>
                <mxCell id="100" style="edgeStyle=none;shape=connector;rounded=1;html=1;exitX=1;exitY=0.5;exitDx=0;exitDy=0;exitPerimeter=0;dashed=1;labelBackgroundColor=default;strokeColor=default;fontFamily=Comic Sans MS;fontSize=8;fontColor=#f5f7fa;startArrow=none;startFill=0;endArrow=blockThin;endFill=1;entryX=0.026;entryY=0.586;entryDx=0;entryDy=0;entryPerimeter=0;" edge="1" parent="1" source="97" target="102">
                    <mxGeometry relative="1" as="geometry">
                        <mxPoint x="-600" y="-70" as="targetPoint"/>
                    </mxGeometry>
                </mxCell>
                <mxCell id="97" value="&lt;b&gt;&lt;font color=&quot;#000000&quot; style=&quot;font-size: 8px;&quot;&gt;CSV file&lt;/font&gt;&lt;/b&gt;" style="sketch=0;points=[[0,0,0],[0.25,0,0],[0.5,0,0],[0.75,0,0],[1,0,0],[0,1,0],[0.25,1,0],[0.5,1,0],[0.75,1,0],[1,1,0],[0,0.25,0],[0,0.5,0],[0,0.75,0],[1,0.25,0],[1,0.5,0],[1,0.75,0]];outlineConnect=0;fontColor=#232F3E;gradientColor=#00bef2;gradientDirection=north;fillColor=#00bef2;strokeColor=#ffffff;dashed=0;verticalLabelPosition=bottom;verticalAlign=top;align=center;html=1;fontSize=12;fontStyle=0;aspect=fixed;shape=mxgraph.aws4.resourceIcon;resIcon=mxgraph.aws4.cost_and_usage_report;strokeWidth=2;fontFamily=Comic Sans MS;" vertex="1" parent="1">
                    <mxGeometry x="-690" y="-88" width="38" height="38" as="geometry"/>
                </mxCell>
                <mxCell id="101" style="edgeStyle=none;shape=connector;rounded=1;html=1;entryX=0;entryY=0.5;entryDx=0;entryDy=0;dashed=1;labelBackgroundColor=default;strokeColor=default;fontFamily=Comic Sans MS;fontSize=8;fontColor=#f5f7fa;startArrow=none;startFill=0;endArrow=blockThin;endFill=1;" edge="1" parent="1" target="23">
                    <mxGeometry relative="1" as="geometry">
                        <mxPoint x="-560" y="-67" as="sourcePoint"/>
                    </mxGeometry>
                </mxCell>
                <mxCell id="102" value="&lt;b&gt;&lt;font color=&quot;#000000&quot;&gt;EDA&lt;/font&gt;&lt;/b&gt;" style="image;html=1;image=img/lib/clip_art/finance/Graph_128x128.png;strokeWidth=2;fontFamily=Comic Sans MS;fontSize=8;fontColor=#f5f7fa;fillColor=#00bef2;gradientColor=#00bef2;" vertex="1" parent="1">
                    <mxGeometry x="-600" y="-96" width="45" height="45" as="geometry"/>
                </mxCell>
                <mxCell id="106" value="" style="group" vertex="1" connectable="0" parent="1">
                    <mxGeometry x="-208" y="-478" width="56" height="79" as="geometry"/>
                </mxCell>
                <mxCell id="93" value="&lt;div style=&quot;text-align: justify;&quot;&gt;&lt;span style=&quot;font-family: &amp;quot;Comic Sans MS&amp;quot;; background-color: initial;&quot;&gt;Serve&lt;/span&gt;&lt;/div&gt;" style="dashed=1;rounded=1;absoluteArcSize=1;arcSize=20;html=1;verticalAlign=top;align=left;spacingTop=5;spacingLeft=10;strokeWidth=1;" vertex="1" parent="106">
                    <mxGeometry width="56" height="79" as="geometry"/>
                </mxCell>
                <mxCell id="104" value="API" style="shape=image;verticalLabelPosition=bottom;labelBackgroundColor=default;verticalAlign=top;aspect=fixed;imageAspect=0;image=data:image/png,iVBORw0KGgoAAAANSUhEUgAAAgAAAAIACAYAAAD0eNT6AAAAAXNSR0IArs4c6QAAIABJREFUeJzs3Xm8XHV9P/7X+8zNSgik4lbb2tpaq2hZoxCC3MQkdyPgAikQQUDQamuVKtatlt+jttqCSL9aWy2b7CYBhHBv5t6EJJRVWWWxKq1KLYIKyJI9dz7v3x9zzplzzuwzn8+Z5bye/0w+M3Pnns+9k/t+f17nMzMAEREREREREREREREREREREREREREREREREREREREREREREREREREREREREREREREREREREREREREREREREREREREREREREREREREREREREREREREREREREREREREREREREREREREREREREREREREREREREREREREREREREREREREREVEF0ukDICIi6gV68bErYfBWQA8B5HAIAKP3QeRBqN4jHxwf7/QxNoMNABERUQ168ehroXINgEWAAKqA+Jfx8V3I6Sly1sQTnT7mRnidPgAiIqJupRePnQl4jwCyCOKvmUUA9S/j40WYlof13489rVPH2wwmAERERBXof4x9BSIfq7HiT4yDLwSg5gz50MTlnTv6+tgAEBERJYTFP7wCxYqpDY6NvoiZuTfK+2/+RTpH3DyeAiAiIoooFX+/mqv6xb3eOHgAAJ7Mxx5zZaoH3iQmAERERD69ZOwrgHwsLObhDWguAQjGIm+WD6x/zO1Rt4YJABEREaLFP1rF0VoCEIwL5m3pHH3z2AAQEVHmhcUfWtrdj7q7/hPjyJeFCQDYABAREXWjWPEPdvUXb/Ev2kgAIGwAiIiIuo1eEt3w51dtmwkAMMv9LFrDBoCIiDIpLP4aXbLbTgD0QfczaQ0bACIiypzYyl+iS3brCcADzifTIjYARESUKWWxv9MEQJgAEBERdZpeNvYVeJXO+TtIAIAH8fS221zPqVV8IyAiIsoEvSz6Ov/kir/OuNnPAhDdDs97i5y9/qepT7RBTACIiKjvhcW/6orfcgJg8FfdXPwBNgBERNTnYsW/0RV/8Sv9i2b3AOhF8qHxS93PrD08BUBERH1LL2819k8+EBJFvtpYL5IPjp/jck62MAEgIqK+VFz5o7Vz/sVH8C8aTQB6p/gDTACIiFKh46OvhWdeAeC3oPIaqL4C8F4B6CsBeTmM2R/i7QvoPAD7QmW/4hfieQi2Q7EDiu0Q3QaVF6D4NUR/5V/+GoqnkTNPyMqpH3Z0ol1CLx87H5BPNFf020gAjF4gfz5+rtNJWcYGgIjIIl2/ci5m7j4cmlsIg4UAFkLwuuKN0Xs2squ8XrEKvmnkUnQXDH4AkYeheARe4WHI9CNy/K2/dDz1rlGM/fGxxOvx0XozUPf301Mr/wAbACKiNujU8oMhA4th9HBADoXiLQ0Vl7pFJfmNGhwnV6ZA8PjPA/geYLZAchvlXeP3tz35LqSXj50PkU+0Fvu3kgDoBfKB3lr5B9gAEBE1QSdG5mOGWQ7jjUJ1BJ68OlYUYneuNXaVADR4HKq/huBWiEwht3dSjt/4i0Z/Bt1KLx/7CsRf+QOJn4eDBMD05so/wAaAiKgO3bLizZj2RqAyBuCYurvBuzMBqH1cxvwIInmIrpX3bLizmZ9PN9BvjX4Z8P667OfoLgG4UD5wy8fdz8wdNgBERBXo5IpXICenQ+UMAH8SFoW6xT/6ILXGHU4Aao8fB+RyzNxzeS8kA7GVf9Xfj8UEoMdX/gE2AEREPt0yOAAzeyVUzgR0GJCB0o2Ry35MACqPDVQ3Q/RybNt5vZyxdVetn18n6OX+e/tX+zlaTwD0Ijm794s/wAaAiAi6aeRNgL4fglMBeXn1og3UL/7RB6417uoEoML3w4sA1gLmclmVvwNdoFj8q53zT46tJAB9U/wBNgBElGG6eeh4QD4FyBEtr7D7OQGofnz3A+aTsmrDZnSIXjF2ASAfr/tztJUAmN7d7V8NGwAiyhy9dcVKiPd3AA5rqjhkOQGofHx5qJwrJ40/ihTpFZVe5486v5+2EoC+WvkH2AAQUWbo1pGVMObvIN5hLa+4mQDEx0YNgKuh05+Vk6d+Dsf0irGvQGqc87edAPRp8QfYABBRBujmoePheedB9eDmVthMAJpqBlQvxLT+f/LeDS/CAf3W6JfhyV831Yy1lQCYC+WsiZ5+qV8tbACIqG/pbctfD/UuAbyjra24mQDUHhv8EtBz5eSJK2FRceUfxP5NHFerCYDp35V/gA0AEfUdve+wGdh2wKeg8lkIZjVUNJgAJMZtNgOQu5AzZ8uqDT9Am+LFH7V//jYSgAwUf4ANABH1Gd0ycgQ8XAroG52suJkA1BnHjqMAo1+D0c+3elpAr6j0Uj+nCcBF8v7+L/4AGwAi6hN637L9sH3gnwE9u1gBgKaKBhOAxNhGMxAe0NNQOVdOGb8KTahc/GvMt/0EIDPFH2ADQER9QG8bfjegX4d4r3S+4mYCUGdc4zgUk4D3Xjll/TOoQ68cOx+CT1T+eTtIAIxeIGf11+v862EDQEQ9Sx8fmYWnzFcBObt4RfIOkUsmAE2OrSYA0eP+JRQny+rxLahCr2rldf71xjV/v5la+QfYABBRT9K7h38f03oLVA5MdcXNBKDOuNZx+GOFgZgvYmDe38mqtYXYzUHxj97fZQKQ0eIPsAEgoh6k/7ninYBcCci8+A3JO0YumQA0OXaWAJTGxtyDXGFV8AZCjRX/Vscs/klsAIiop+jtQ1+DyF90bMXdTgKgsgNqHoLIYzD4AQbMozDeNhTMTni5nRiY3ok9e3Zi5sydMjS1HQB047L9sGfmHOwxszEjNwdmeg7UmwPoywA5CJA3Q/WNgLyl4vEAtX8unUgAYmN9AZAzoXoERM6teH8XCYAx58v7Jz6JDGMDQEQ9Qe8e/n3sxQ3wcEjTK+6OJAC6DYo7oHI7RB+FZx6RoamftvMzqEdvGv5TQN6CAt4CkSUA3lp+XI2OU0gAqiUZ0bGLBMCYC+X9/fsOf41iA0BEXU/vGnorCpiEyP4dP+devcg8D+AOALfB6G0Yzt8vAmPpR9ASXXPkHMzY/2hABmFwDICFEMzorgSggbHdBOAiOSO7sX8UGwAi6mp61/AQDG4AMLflc+6uEgCjT8HD5YB3g6yYuM/erN3QLYOz8fycJTA4CYpVEJldvCF5R6AvEwDVC+TMbL3UrxY2AETUtfTO4ZNg9Ep4MtDSOXcnCYBuA3A9gCuxPL9ZpOyePUEnV+yD7bn3QOVUqCwF1OvzBIAr/wQ2AETUlfTOFR+Byv+rWVRSTQBwKxSXYN4L35FFd++0OddO0zXHvgZSeC9EzgTwx32XABhw5V8BGwAi6jp659A/APKZ4gD1/8i7SgAUBUDXQOQLsqz9D7XpdqoQ3DD8Tqj3GSgO75ME4CI5nSv/StgAEFFX0TuHvgng7IaKitMEAN+EeP8o75h4wu4Me4OuGV0O4NMQWdKzCQBX/jWxASCirqAKwV3D10BwUvGK4AakmQA8D8XXgT0XyrJbn3U85Z6g60YPh8HnAT0W4kkPJQBc+dfBBoCIOq5U/PWkykU7uCPcJABGC/Dw7yhMf1aWb3rBwRR7nl4/cgSm5VKIvLEHEgAW/wawASCijlKF4J7ha6D+yj+8IXLpNgG4E9APytLJxxxOsy/ofYfNwP+84lxA/hbA7C5NAFj8G8QGgIg6plT8/ZV/1aIdfAHsJQCQJwHzSVk6eY31ifU5vX7sdZjWiwEs6bIEgMW/CWwAiKhj9K6hKyByanGQvDFyaTsBUHwF82d8Tg5fv8PR1DJBvz32XsBcBHgv63gCYPTLcvr4J9qbUbawASCi1IUrfyTO+btPAJ6BkdXyjg1T9meVTXrNca+E7F0Hz1vcsQTAcOXfCjYARJQqVQi+G439gxuSd4xc2kkA7sCcvSfIEbf+0v6ssk3Pg4c3jJwH8T4LwCteiXQSAMNz/q3yOn0ARJQdqifm4sVfgxuCe8THqg0U/wpfFx0rClD9Wwzmj2Hxd0POg5GTN3weXuEYKH5Z+r1V+b2WjeNXx8YVf/+Rr/f0R9YmkjFMAIgoFaon5nDPS2sh+q6G49/gsuUEAE/ByLtlyYZ7rE+IKtJrVh4Ar7AGKkvSSQDMLiB3uJy+nq/iaBIbACJyTvXEHL730lposvg3unEveCBUSQAqjh/BgFkmR039ytG0qApVCK4b+wagZ6e0B+Bx6PY/lTO27nI0pb7EUwBE5FRZ8Ydf1BH54y9BEUiMg+IfvTk5rvR1kDuRe+koFv/OEIHKyeMfAPTz/jXhDZXH8atj44q//8Tzw5PXw9vnX+3NIBuYABCRM7Hi3/Sn77WYAKjegtd4J8jrN+x2PT+qT68dORsq/w4Rz/n7ABicLGeMX+diHv2IDQAROaF6Yg73NhL7B1+QfIDIZcN7APAtHJ0/UwTG+oSoZXrd6LFQrANklrP3AVAFVHZApw+UM/I/sz+L/sNTAETkxr0vXhMr/lJtxQ9LrwLQC+Xt+dNZ/LuPnDRxC9QsgzEvFq+x+CqA+KsN5kK8G+0eff9iA0BEVqmemNPvDd8Axaqw6CffFMb2HgDBl+Ttkx93Nytql5ySvwMeBqG63foegOgYcrB+69i/sz+D/sNTAERkTTH2f2EtVMrP+bvaAyD4khyd/3Sa86TW6TUjSwFMAt6As08DNLobKm+SM8d/4mIO/YIJABFZoVsGB3DvS2uBSPF3nwCw+PcYOWXDZqh3SnHgIAFQAJ43C55e7ODw+wobACJqm24ZHMC8Wd8B9F3FKyqs+O3vAWDx71GyenwtFOda3wMQG8sSvXTkBCcT6BM8BUBEbQmLv2Kstdg/eKDkA0cuK8X+i1n8e51ePfo1QP4ifmXyTmj8VQBlYzyNuc+9TlbdvdPtTHoTEwAiallp5Y+x8pWYswSAxb9fnDLxEUC3hGOrCQAAxauw47f+3tHR9zw2AETUEt0yOIB9/eKPSudinewBYPHvIyJQTO8+EYoni1ck74DW9gDEXhWAj+mVw29wNokexgaAiFqz78y1UIwVB5VWYrYTAPNFFv/+I++79Vnk9D0AHCQACgA57M19zdkEehj3ABBRU8pX/o2ci21zDwC48u93etXIJyHeP9ndAxB5vpm9h8mZkw+kNZ9ewASAiBoWL/6Ir9xdJQAs/pkg793wzzCaj11pJwHwr5/BvQAJbACIqCGqiZU/ED9372IPAITFP0umd5wc7gcAbO0BCJ5vo3rpsYc6nkFPYQNARI15YNb1QOScP+A2AVCe888aOWPr8wBODq+wmQBAADGfcTuD3sI9AERUk9532AzggBshQewPVDyXb3UPgF4kiybPcT876kZ61ejVgBTfLdDWHoBiM6CQ6bfI6ZOPpT2nbsQEgIiqKhb/l43Hi3/kH04SABb/zNPCJ6DYYT0BAAQ68Lk0ptAL2AAQUUV632Ez4L1sHCLLwysl8Q/rewDA4k+QUyefgpjPW94DAP95ukovO/b1qUyky7EBIKIyYfHXSPEHHCcAXPlTxMx5F8Hgh3YTAAVEPKiJv/1wRnEPABHF6H2HzUAuUvw1eQfA+h4AZfGncnrVyFFQ7w57ewDCB/oN9pn7clm1tpD+rLoHEwAiCjVW/CP/sJEAsPhTFfLeDXcCusZqAlA8DbAA23eOpjOL7sUGgIgAJIp/4mX5Idt7AJTn/KkOnf4UAAPAzh6A0vPxtJRm0LXYABBRpPhjeVncGrtj4h/tJAAs/tQAOW3qp1BdC8BiAqCA4ni9emxBWvPoRmwAiDIuLP6Q5RU+fS/OWgLA4k9NGDD/CMBuAiCYgd26Kq0pdCM2AEQZVir+8M/5K9wnALhIjmDxp8bJKfmHoZi0mgBAAEimTwOwASDKKH18ZFZs5Q/AfQLA4k8tEvmS1QSgOF6kl469LrU5dBk2AEQZpI+9aSa2mVuA4Jx/cgUV3DH5hYl/NJcAnM/iT62SU2/ZCtXv2k0AFAjecjiD2AAQZYw+9qaZmP7dmyBYVn0F5d/ZXgJwvrwt/0knE6LsEP265QQAUB1KbwLdhQ0AUYaExV91uHhFtRVU8AXJB0j8o5EEQHARiz9ZsWfGjRDstJsA4Ai9YsU+qc2hi7ABIMqIsPgDw/VXUP4XtZ0A4CJ5K2N/skPef/NLMHqz1QRAMIC9M1ekOI2uwQaAKANKxT+y8g8unSUALP7kgOjVlvcAADBsAIio/8SLf4WVkZMEgMWfHNn5qzwEvwFgJwGAAuJl8m2B2QAQ9bHy4l9hZWQ9AVAWf3JGPnj/Xqh+G4C9BED19/TioT9KcRpdgQ0AUZ9SHRwo7vbX4fiKBw4TAFwkb51i8Se31LsagMUEQAAMZO40ABsAoj6kOjiAR2ZdD/FX/vFdz44SAL1IFnLlT+7J+265A4qXLCYAAMAGgIh6W1j8ocdVXvHAQQKAi2QhV/6UItHNdhMAPTrV4+8CbACI+kjF4u88AeDKnzpA8Z9WEwDxfkuvWPGKdCfRWWwAiPqE6uAAHpt1PUSPq73igb0EgCt/6hSV2ywnAMB07s2pzqHD2AAQ9YFi8Z9xPdRf+dd+5zM7CYBy5U8d9LPxB2H0JXt7AAQw8pZU59BhbACIely48lcprfxdJwDKlT91lpwHA09ut5oAwGMCQES9QfXEXLjyD1c+jhMArvypW5jCbVYTADFMAIio+6memMMPXrgO8Ff+4crHZQKgXPlT9xjI3W83ARAmAETU3cLirzjBvwLuEwC9SA5j8acusmfPj60mAMA++h8r/yDFGXQUGwCiHhMr/hVXPi4SABZ/6j5y5tTPYXS3xQQA8KZfn+okOogNAFEPiRd/VFn52E4AWPypi3n4sb0EQAH1Xp3q8XcQGwCiHlE65++v/Kue+7SYALD4U7dTPG41ARBlA0BE3SNW/ItXVFm5W0wAlMWfeoE8bjUBABMAIuoSYfGXauf8k2MbCQCLP/WMH1tNAGBelebBdxIbAKJu91/PfxkSWfkHl84SAL1IDmHxp15hnrK7B0CYABBR5+l/LRsE5KPhFc4TALD4U4/Rl+zuAcCCVA+/g9gAEHUpfXrFPlDvmviVLhMArvypB3kDL9lNADAn1ePvIDYARN3qN/peCOJxpKsEwOPKn3pUobDNcgLABoCIOm6w/L34HSQAnl4kB7H4U4/yCkwAWsQGgKhbKYbL34vfcgLggcWfetvslyzvAVA2AETUOfrjZW+EyP5OEwDhyp96n6y6eyeMGgB2EgB4s1OdQAexASDqRgX8HgA4TQC08G9uJ0GUEg/bANhJAMq67v7FBoCoG2nu4eJl8nqbewBy/6kPv+N1TudBlAaDeQAsJQDJrrt/sQEg6kLypsmnoPq82z0A8kqY3F1sAqiX6WWDs+FJsZbZSADUP52QAWwAiLqV4LvuXwUANgHU23TOvnY/C0B2pXn4ncQGgKhbifyz81cBiADKJIB62CxvX7uvAjDbUz3+DmIDQNSl5E+mNsPgm7Ernb0TIF6J6YE79ftL3uB2VkSWTRfmWU4AXkrz8DuJDQBRN3sZ/hrQJ8Kxy88CELwKZsZtTAKop5jcfnY/DRBPp3j0HcUGgKiLyaumtgOFdwN4EYDDBCCyJ6DA0wHUQ3IF23sAnkrz8DuJDQBRl5M3bX4AmF4C1drved5uAhCOpdgEfH+YpwOo+6n323YTAP1FmoffSWwAiHpAsQmQZVBTfMMTZwlAMJZXYlrvYBNA3U/eYPezAJgAEFGXkQOnvgvIMsBPApwlAP7dBAewCaCup/oGJgCtYQNA1EPCJkDNNrcJQPgtD8BeNgHUxTz8sd0EgA0AEXUpOXDquxBZVn1PgKUEACglAWwCqAvpmhNzUPkju+8DwFMARNTFSk1ApT0BFhOA4DJoAu5lE0BdZOf2P4QgZ/dVANNMAIiou5WaAOxwmgCE3xAHQNgEUBcR7w3V98IkLxtIABQvyFmTz6U6hw5iA0DUw+TAqe/CM0MwusNpAlDCJoC6h5rDqu+FSV42lAB8L83D7zQ2AEQ9Tg7cdAdyZgjGTwJcJQCl8QEQsAmgzhNv0GoC4MkDqR5/h7EBIOoDpSZAdzhNAMKxMgmgjtKJkVlQc5TVBECVDQAR9Z6wCVDd4TgBCP7BJIA659feIog3YHcPQIENABH1prIkwF0CENz/AIBJAHXEktrviJm8rJsA7JSzJv871Rl0GBsAoj4jB266AwNmCDC7HCcAwdcdADAJoJQJltR+R8zkZZ0EQM296U6g89gAEPUhOXDTHVAZC5sAdwlAMGYSQKnRiZFZgB5hNQGQbG0ABNgAEPUtOWhqc9gEuE0AimPFAQBu1+8NHWh7LkQxzw6MADJgNwHAXelOovPYABD1sbAJ0MjpAMBFAhA8zssBbGUSQE5p4dTipa0EwCgKu6dSnEFXYANA1OfkoKnNQOR0AOAqASjtCVDcwSSAXNA1g/MAWQmgxvO3yQQA3p3ywU0vpDeL7sAGgCgD4k0AXCYAwfUHQIWnA8i+Xfv8GYAZAGwmABPpTaB7sAEgyohSE6C7HCcAwQprAZsAcuC99Z+/TSYAM8x4eoffPZL/vYmoz+n3VyyFYgMgM/3dz6UVUTgO7pz84gbHwR9hVUDxHHJ6jCycetTyVChj9KqR34F6P48/z4DGxtUSADwpZ47/TioT6DJMAIgyRg6a2gyR4wHsdpoABM2E4LdQ8P6TSQC1zeCUuiv+ZhMARSbjf4ANAFEmyUGTeagMQ3W3oz0A8WQBugCGpwOodXoePKh3Vt1z/s3uARDNZPwPsAEgyiw5JL8V8IahfhIAuEkASiuuBSiwCaAW/eHoCfDwessJQAF7cxvTm0R3YQNAlGHFJsBPAgB3CUB4OoBNALVI5fOlGm4pAVDzHfng+h3pTaK7sAEgyrgwCYjtCQhuTN458Y9mEoDgjy6bAGqSXjUyAsGBpRpuKQHw8I30ZtF92AAQUTwJcJkAlP4IL8A0mwBqkHqfK17CZgLwvzh9YlNKM+hKbACICIDfBEiwJyC4MnmnxD9aSQCCsbAJoPr0W8OLIVgEAFYTANGvi5S1uJnCBoCIQsUmQIpNAOAuAYieDmATQLXkvM+Uv66/zQTAmGl4uy5OZwLdiw0AEcWETQAiSUB4Y+If7SQAwR9jAZsAqkivPHYQKiOxRMpGAuDJjfK+W59NZxbdiw0AEZUpSwICthOA0tJuAfayCaASnRiZBdVLK7+zX5sJQKGQ6c1/ATYARFRRsQnAsfErE/+wkQAE9xcswF7coXcuP9jdrKhn/EY+BQ9/UPaqlPYTgMflrPytqcyhy7EBIKKq5NDJTfBkCZDcE2A5AQi+TrA/kNusdzAJyDK9YsUfwODT1d/bv50EQP8+jTn0AjYARFSTHJLfCi+5J8BBAhA8jmABRG5nEpBh3oxLITILiadJ2wmA4id4YuLqdCbR/dgAEFFdxfcJ0FEY3VW8xlECEN0ToN4WvWvZIU4nRl1HrxxZDWCwOIDtBOBzch6M80n0CDYARNQQOWxqMwa8EQC7nSYAwVhkf+jAViYB2aHXDv8+4P1beIXNBED1J/jfiW+7nkMvYQNARA2TQ/JboTIMRD47oPgPuwlA6XHmA7nb2AT0P90yOIDp3Hcg2Ld0JewlAOL9LVf/cWwAiKgpsjBoAiKfIugiAQgfB2wCsuDJfc6Hh4Ni19lKAICf4In117k7+N7EBoCImhY2AcGnCLpLAIK7zYeyCehXes3oMAQfq/jOkzYSAOCzXP2Xk/p3ISKqTO8dHgQ0D8isqkVfKxX96Dh4sOSDRy5LReBFSOEYOWrjQ04nRqnRNce+Bnv00eJLQFH5eVDWBNR5nsUTp/vxvvGFWX/f/0qYABBRy2Sh/ymCCD5F0FkCENzMJKCP6JbBAewxNzZX/NFMAlCAh9NZ/CtjA0BEbQmbAI3sCbC7ByB5DphNQL94au4VEFkYjpOZdNt7APTLctr4o46OvuexASCitsnC4LMDIq8OcJMAlJoAwyagl+k1oxdBcXL8yuSd0EYCoP+Hub85z83R9wc2AERkRdgEBK8OcJcABGM2AT1Krx77G0A+GtmlX2QzAfDkLFl19043M+gP3ARIRFbpvcODMJqH+BsDm9oQmBiHXxc8eORuCC9fRI4bA3uFXj16OgSXNbwRtHICVG+8Tk4fP9HJBPoIEwAiskoW+p8doLrbcQJQSgIKA0wCeoBeN3osIJeU/959dhKAbVD9iIPD7ztsAIjIumITgGMd7gGI3R3Q+Sjk/lO3LD/c2aSoLXrdyAgM1kPglf/egzslvwjN7wEAPilnTDxtfQJ9iKcAiMiZ8HQAIqcD2nsfgCpNQPi4L6IwfYws4emAblJ8ox+5CcDMqr/nWuOy33+V1/2rrJfTbznO+gT6FBMAInImPB1gIqcD3CQAwf3nw8vdplt4OqBb+O/y5xf/Kr9nxK+OjRtOAPQJzN12iu3j72dsAIjIKVmY34oBvwlwswcg+XXz4Q2wCegCpZW/zARQ/feM+NWxcSN7AIDdgDlOVm3dZnUCfY4NABE5FzYB6jcB7hKAYFxMArYOl95khlIVW/nX+z0jfnVs3EgCIOYj8r78w1YnkAHcA0BEqdG7/c8OiL5EMLwxeefIZeN7AOLNhWIbgKUymL/X/myomnDlLy2e80+Oa+8BWCfv40v+WsEEgIhSI0f6bxscPR0AuEgAghvmAbqZSUB6wpW/1DrnbysBMP+FXd777B19tjABIOoBes3ISqi8FSKHAroQQAFG7ofgARh8V04dH+/0MTZD7x4ehPpJQHhl8k6Ry1YTgHDMJCANumZ0GCay2z/6ewrv1MK4UgJg9FlADpX33fK/Fg49k9gAEHUxvXr0tfCwFoqF8aKWuKPBXfD0FFk98UQHDrMlsSagvXcCjDxolXHx69gEOFQs/ihu+Cv/SF5Ub85aeSdA3Q7Vo+V9Gx50Oqk+x1MARF1Krx17Pzx5FCoLy3dPJ+7sYREUD+vVo6emeYztkCODDxCKfIqgnVcBVHuceQB4OsD5P6cMAAAgAElEQVSBsPhLZLd/dLd+vd8P4lfHxmW/f50G9DgW//axASDqQnrtyFcBXAzVebFznuG50+QXABCZD5Ur9OrR01M70DYVmwD4ewIA63sAYo/jNwHKJsCmWPGv9g591vYAqAJyipy2YbPFKWQWTwEQdRm9duyrEPxl1aKHyPXJcfGP7ovI7X2jnLzxF44P1Rq9e3gQBnkIyvcEWNkDkHjHOGAbhKcD2qVrRoehydg/uBH29wCo/qWcNvGvNo6dmAAQdRW9dsQv/vVWUskvROSPrczH3hlXpnC41siR+a3w4L9PABwmAOEeCiYBbapc/J0mAP/I4m8XEwCiLqHXjn0TgrPrrngRuT45jt7P4C1y2vijro7XBb1zxVJAxiEy220CEIyxDWqWydKp76Yzw/6ga0dGYGSi8nvyB3eCvQQAeomcOnGWjWOnEiYARF1Arx3xi39i5dRSAhCM9Qi3R22fHDW1GZ6MhHsCnCUAkT0B8DbpJiYBjfJf6vedqh/IA9hNAICr8T8TH7A7CwLYABB1XHHl750NoHz3dNXd1IkHqbhbGj3XAAD+6YBc5NUB5fNq8VUAfpGCJsaYBw+b2QTUp2tGh4HIhr/KP097rwIArsb/jJ8m58HYnQkBbACIOkYVEq78UWXl1E4C4ElPNgBA0AT4rw5wmgBE9gQIm4BawuJf6XX+LhIAZfF3jQ0AUQeoQvDtkcvh+St/VFk5tZcAzEIPkyODTxHEbrcJQHApbAKqiK38q/387CYA61j83WMDQJSysPiLd1rFFZG1PQDo+TdKKTYBKDYBgMMEIHwgNgEJZbF/1Q2V1hKAdZg59yQWf/fYABClKFb8w5Un4CQBgD7gYg5pC5sAxW63CUDwdUwCAnpDI+f8LSYAQfFftbbgblYUYANAlJKy4h9bebpIAKTnE4BA8VMEUTod4CwBCH++xbcNvnXFIldz6na6ZnQY04ni7zIBUBb/tLEBIEqBX/yvgRcp/i4TAOiD+O3ttzqYSsfI0cHbBif2BET/YSUBCL5O5kFzm7LYBIQrf6+Rc/4WEgAW/45gA0DkWKT4n1T5TWoAqwmA6nbo9HtkydZpR1PqmFgTADhMAMLxnKw1AXpDYuVfd8XfZgLA4t8xbACIHFKFYE2k+Euk+LtKAET+Sk6b+qmjKXVc2ARoJAlwkgCE48w0AXrD6DAKiZW/2wSAxb+DynZgEJEduubEHHTbVZBI8a+YACTGtVZa4f2S38y/2eBrcur4R1KbZAfp7TU+QCg5DopRzQSgzu8FshOmsEyGpu5yPLWOCIu/YGbx59bE87Lh521svA4DLP6dxASAnNFbl75Gbx06tNPH0TG67Sp43kkVV0xOEgA9PyvFH/CTAM9PAtwmAMF4DrzcJp3svySgVPxlJoDEz8VJAsDi3wWYAJA1et/KufjN9DmALobiUEBeEVmZPgjo/TByiYxuuKfTx+qarhldA5ETm1wRtZ4AGL1QTp34eHoz7B6xJMBtAhAM+yoJiK38wysBhwkAi3+XYANAVuimkXdC8S8Afq/Km9L4Y1WofAMGfyOjG17szNG6o2tOzAHb1kK8d7Ud51f8+SXuV3SBrB4/18V8ekWpCZBZ1Yt3vaKVfNAq4z5qAvSG0WGYxIa/tot+8OCo9LxdhxyLf7dgA0Bt0buOnIMd+18D1XdGVkjV/wiUEoFnAH2vjOQn0z9qd3TNyI0Q750tnhNtJQH4J1k9/qm059mN9PbhQRSq7AmwmwAEj7sT2rtNQKn4B+f8ozcCDhIAFv8uwwaAWlYs/vttgsqihop+dFz8I7EHIsfL8EQ+zeN2QbcMDuDXc78DT8aaj0WTD4baP7/S/TK/8k8qNQEyy3EC0NNNQGzl32oz2lwCwOLfhbgJkFpSKv7wi7//v77RBAAKCGbC6E2aHxpO89htC4u/tFL8Y12Rfz9Efp6JcXg/Fv9K5Gj/UwRV/fcJiP4c6yUAQOz3UGlc/nyeA+mtjYGxlX/N+ba64kfyecvi36WYAFDT9K4j52Cnv/IHGi/6yQQguMHoHni9mQTolsEBPBMp/i1tjEo+KOr9/Fj864glAW4TgGDcE0mA3jA6DK1xzt92AsDi39WYAFBTSsUffvFPrljReAJQ+vpiEjAxsjSVSVii9x02o1j8EV/5u0wA1LD4NyBMAkwkCXCTAATjOUB3JwGl4o+Zjc23zQSAxb/rMQGghsVW/s2u+GslAGFRNLugMiajGzY7n0yb9L7DZuCnrxyHyPKWV0zNJgCGK/9m6e3Dg5iOJAHuEoBgvBPoviQgtvKvt9HRRgKgLP69gA0ANSS28q/3R7TpZiD6jXQX0N1NQKn4Y3npSqCpP57N/tE15gJZvYHFvwW6ZXgQijy8OqcD6v1eGn1+K3bC654mILbyD69M3qnSuMVmQOVm5Oa+m8W/+7EBoLrC4o82zvk3lAAEY9O1TYBOjMzCTlkPyPK2V0yNJgBc+betsSYg+UVVxg01AbIT3nTHm4DwU/0aPefffgJwM16xvS8/iKofsQGgmkrFH4sa+yOANhOA8B+7IFguI/k7HE2taToxMgs7kIfIYNsrpkb/6HLlb03YBFQ7HWArAQi/IXYCOioj+a0pTK9MqfhXe51/vXHTzQCLf4/hJkCqKlb8q73Hd9kYpT+KtcaIfD0qjb3ZMDKpG4YX255XK0rF3xsEUOW4NX6pNcaI3j/xOKWfJ4u/RbIk+BRB3V3x91O8l39RZdzI8zv4h2AOIHndMDzoaEpV6U2R4g80Pr9Wn88s/j2JCQBVVFb8G44BYSkBQPGORncgp0OdTAJiK//wyuSdALsJgLlATmbxd0G3+G8bnDwdYDsBCMaK3RAdTisJ0Juqvbd/4rjqjht+PrP49ygmAFRG7zpyDnbttwkSKf6pJwD+HT2Zi0LnkgBdc+Qc7EAenr/yt7Viqp0AsPg7JEv8TxE0fhLgKgEIvk4wC5pOEhAWfy9S/IPjSB5X3XFDz2cW/x7GBIBiwuLf8Dl/xwlA6fukngTomiPnwFuwCR4WWT9nWn0DJIt/SsIkoNYHCNlIAEr/dpoExIp/Syv+5Lju8/lmvJzFv5cxAaBQrPhX7PyRfgJQOo5iEjA++jark65C1xw5B7kFm+DJotj8XCYAXPmnKkwCgj0BxWv9C4sJQDB2mAToTf7b+wbFP7m0s58AsPj3ASYABKBC8W/6zT8cJwDBFxqzDZ63TMYmvmv3JxA5hKD4i7/yjx5vxeMMxm0kAFz5d4xuqfEBQjYTgNLYahIQFn+JFH+3CQCLf59gAkDF4r+n0jn/LkoAwj0B3jwYs8lVEqBrBueFK//geFwnAKpfYPHvHFkSfIAQdjtNAErjYhKwvv0kQG/y3+QnOOefPJ7wcCwlACz+fYUJQMaFxV9bPeefcgJQWjFbTwKKxX/OZniysOrxVjzOYNxCAgD9W/mziS/YmgO1TjcOD0Lq7AmwkwAEdqOgw7KytSQgLP7R1/m7TABY/PsOE4AMixX/hlau6HwCEB6XnwTcPHSolZ/FmsF5GIgU/2rzs5oAmHNZ/LuHLM9vhfpJgNsEAH4zMQu51pKAWPGPfl9XCQCLf19iApBRxeI/3/9gn3ZW/B1KAEp7Al4AdKkcN/lAyz+LoPhLUPxrHG/F4wzGzSQA5lz5sw0XtHrM5I5uHB4EquwJsJoABI+L3TCNJwHF4q/+B/skHtdFAqAs/v2KCUAG6V1HzsFe/739661UuzUBKO0J2A/wNreaBOjEyPyw+MeO12UCwOLfzWR5fitQZU+A1QQg/H81C15jSUD4Dn+eJF7nX+V4wttbTAC48u9rTAAyplj8/ZU/UCpuvZoAlPYENJ0E6MTIfOyW2wAcHPv+ThMAFv9eEUsCnCYAwfOjdhJQLP6a+GCfxOPaTAC48u97TAAyRLcMzsOe/TeHsT9QZ6XaAwlA+H29/YDcrY0mAXrj4P7YjS2QSPGPHa+LBMB8lsW/d8SSAKcJQPD8qJ4E6HjkU/1ij5P4vrYSAK78M4EJQEbolsF58GZvhmJh+QrGUQLgmRFMAxDvJsDfrOQqAYjuCVDvaHnnxCNVfxYTI/Oxx1/5V/r+ThIArvx7lW6MfoogHCYAwRi7oaUkQMdHhzEdnPNPPu8Tj2sjAVC9GQfsZPHPADYAGRAWf2Bhe0U+eEDU/iNosAc5c7wsm8wDgOaHhsuagGaKet1xcsL6HIwMVmoC9JaxBZjWzUjG/rE7ofbPo9ZxVfo6w+Lf64qnA2RLcYAGmoAGnr91/9+ZJfC82eEH+zRaxCs2AQ0+fxV5HLBjJYt/NrAB6HPx4o8qf7wsJgCJ4h8eR35oGPCbAJcJQGmX/XMwXqwJKBZ/czsgB1b+ftV+PvWOMxhXaAZY/PuGTg2/A5BN7hOAYIxdUMyu/TxPPG5bCYCulxM2HFdh6tSnuAegj8WKf81z+P4fn3b3AGjl4g8AMjyZB8zxAPY42QNQ9vXeb8HTrfqd0bcAfvEvmNshkeIf+bLYuNr8qh4n4j+v4JLFv6/IivytEF0Cg91u9gAkxzK7/uMkvm/yeMLb6z1/kYeZd0LNHwD1HSYAfSpe/FF7xWIjATC6B55WLP6x4yqeDtjgPgEIEgnzHHI4Fkb+A5ADG1oJ2UgAWPz7lm4cHoSRPASV9wTE7lxr3OT/M3cJQB6FfY6XVWv31Jo39R82AH1ItwzOQ27WJCCW3t43GAffAIk/ejqNHN4jS/M3N3R8kyuWw+TWQzDLSpFvKe6sM25nD4ApfFpW5b/UyM+CepNOjiyF6Dggs93tAUh+0wbHFZuAasfB4p9lbAD6TLH41zvnnxy30xyYaeSk4eIfHueG4UFA8gBmxW+IDmw0B1VWSrXG7SQAyuKfFTo5shTQcYjfBAC9lgCw+Gcc9wD0kbD4ix/7A6WVu5M9ANpS8QeA4keh6jCA3f41pccPx5HjaHoPQHIcv7rmuNbPq9b3YfHPFBnasBmQMajucrMHoJHHSXzf6H+P2O3Jr2fxJyYAfSNW/IE6K/7kuJUEwEzDa634x457w/Ag1D+fGj1uoPT9eiEBMIbFP6PCJACRJCC8sda4UwmAbsb0vBEWf2ID0Ad0y+A8zPDf5Cd2A9BarF9tHDyuTsNr/Jx/3eOPNQGtFPnkA1oYN7UHoPBpOYHFvxn6jZV/Aq+wApBDoXIIgNcD+ggUDwH6AGZMT8iZUz/v9HE2qrwJaOD525E9ANiMBTvGZMnWXe3NmPoBG4AeV7v4w0ECYGflXzaPoAmI7QnohQTAsPg3QdecmMMLOz4D1c9DvIHqGymxDZ5+VD4wfmmHD7lhOjmyFOo3AeGVyTtFB2knALoZC3ay+FOIDUAPC4s/ErF/eAfAagJgUICn77Zd/MPDjTUBvZAAcOXfDL107HUoyHVAhWa1WtOlWI/pnWfIX976bJrH2qpSE+DN7qoEQLnyp3JsAHpUY8Uf9hIAowVATpJlG9Y5nFZ5E9C1CQBX/s3Qb44eDE9ug2J+3d9X2UtO9b+wYO7BvXLOWidHlsJgA+q+fW9KCYBy5U+V8VUAPUgfG5yHmZHiD5S3csHYxqsAjBaQc1/8ARRfHSDBqwMix4HI8ZSNIxNO41UALP5NCYs/ZH7V30/Zzzt6N3kjntt5XmoH3CYZ2rAZIsdDsafjrwJg8acamAD0GH1scB6er3HOPzluNwEIiv8S98U/dvhBEqDNng5wnACw+DelVPz9lX8jv69KbzplYJCTI+QD6+/txDxaofmhYRiv+EE+4ZXRezhOAFj8qQ4mAD0kLP6IvM4/4CIB0M4UfyCSBIifBHRDAsDi3xT95ujByPkr/3q/n5oJAAAPHow5x/1R2yPDk3l4fhKQdgLADX/UADYAPULvGZlfLP5a+5x/cqzq/1HQGuMKKw+jBXidKf4BGclvRSFyOqDqSggIJ1x1HL+65rjSz8tww18z9JvDC5ELzvkDdX8/Zc/P+N38yyMdHrITMjyRh2eOh2px/0J0/nX33vj3S35dbBy/Oiz++7P4U308BdAD9J6R+SiY2wA5OH5D8o6Vxg3Gi8nYv8PFP0rXDw/Cq7UxMPkFFsaxnweLfzP0suGFKAxsBnReLM4P71BhXOu0S+x+8nL54PpnrB+0Y5ofHYbRmyAy0+mrAJTFnxrHBKDLlYo//OKvsYvSHauMm00AjJpuKv4AICvzW2F0GCo7O5AAnMfi37jy4t/g76exBAAwerSrY3cpTAKMnwS4SABY/KlJbAC6WFj8RQ6u8F7ecTb2AKgaeHJaNxX/gKzMbwWmlwGyM7ZEdL0HgP9DGqaXDS+EGdgMiRT/Rn8/9fYAhJem9CY7PUaGJ/PIRfYEWN0DwOJPzeOfty5VKv7+yr9sBZD8girjRhMAowYip8mSDVdbnYhFcuzUXcD0MmikCXCdABicpzcMf8rC4fe1sPhD55WvaAFrCYDkHnQ1hzTI8EQe8PcEWEsAdDPms/hT87gHoAvpPSPzYVo9558cN3TO3yAnp8kx3Vv8o/SWFYugA5sgOieVPQDFP8aflndP8FRABbHiX/F5lvyCCuNG9gAY7JQP3TLX+gQ6QMdHh6F6E7xaewKSX1RprHdg/s7lLP7UCiYAXaZU/JPn/B0lAD1W/AE/CRA/CUjrVQCKL+o6JgFJ9Yu/xQRA8JDDqaRKxibyxTcLMtOtJwB6B7yBIRZ/ahUbgC4SFv+K5/yd7AHoueIfCJsAyE7/Gv/C8h6A6M9LvC/q9WMfs3H8/aD6Of/kOW3A0h6ALzibTAfI2EQeHo6H6m+a3gMA3AxvYEhWrt+R9nFT/+ApgC5RKv44uHRuO6xGFcbJB6gyrh6vGog5TY6Z6rniH6W3rFgEEz0dUO3nFnxB8gEqjOvG0XqOvGfDRdYm0YP00rFFUJmEVDrnX2Fc9XlcYVzpnQAV/y5/fsuHUp9oCnRi5OUwejHEO67mnoDiG1I8B8VH5fj8VZ09auoHbAC6gN4zMh8wt0H94h/ekLxjK+NKf0yMQrxTe3HlX4neMrYIRjdBMKd4RfIOLYzrF7Nz5D3jmWwC9NKxRRDZBPWbrrLibXkPgOJxzNr2p3JGf0fdOj58MlS+CuBlFZt8ozdjBs6S0Q2/7sTxUf9hA9Bh5cW/0ZVS8oGqjMv+mKpC9Cw5ZqpnPme9EWESgApFyXoC4I9Vz5ETs5UENF/820wAjD6JGXqUnDXxROqT7RCdGHk5CoWXIZd7GabNTqDwDGZ5z8rQ1PZOHxv1FzYAHRQWfyRj/+AOyS9oZRz9o2oU8M6SYzb0VfEPhEkA/CQgvCF5xwbGjRezD8sJ4/9mbRJdLCz+qHG6xWYCYPRJDGSr+BOliZsAO0QfXrygcvH3/wrW3T2dfMAq43BXtVFA+7b4A4AcO34XvOllUOws/7n5Gi5Gka+Pjst/H1/XdSN9eW46qvXiX+95XOGSxZ8oFUwAOkAfXrwAO/e5HYoD246r6479lb/nnSVH92/xj9Jbxhah0OaegObj7L5NAvTSsUXwqsT+LhIAFn+iVLABSFn94m97D4AqPD1Lju6vc/716C0rFqGQmwQwz9kegORY5cOyqr+agGLxxyYoWiz+TT6vWfyJUsNTACkKiz9wYOXPtY8kAFbeB0D9lX+2ij8A/30CdCmAbfEbknesMA4SAKC0gm3k9eyiX9d1Y31zOqC08sec2s/XSLFv530AlMWfKE1MAFISK/4trfhbSADEvD+LxT9Kbx5eCCObITKveEXyDhXGrSYApWL4fjlhvKd/7nrZsYMQnSgWf8Tn5yIBUH0SORZ/ojQxAUiBPrx4AXZFin+1FZTNBADmw1kv/gAgx+XvhadLoVpMAlwmAOHK11ys68bOtDiNVPnFPw/4K/9w/o4SABZ/oo5gAuBYWPzbPuffRAKg5sPy9qm+OhfdrjAJgJ8EhDck74j2E4DoxsseSwKKxd/kAZlVvAKR+TtIAAyLP1GnMAFwKLbyb2QFZSMBYPGvKEwCoPX3BLSbAEAB8QSmt5KA0spfZlWev+UEgCt/oo5iAuBIPPZHYyuodhMAFv+69ObhhSjU2RNgJQEITwcoBKfKid39tsuxlX/V+VtMAFSfhMfiT9RJTAAcKD/nj8ZWUO0kAB6LfyPkuPy9yNXZE2AlAQiKoCcwcoWuHVntaEptC1f+4q/8q87fUgLA4k/UFdgAWKY/PGpf7Jq7BcHKP1hKNbXCD+6f/ProOPJNxXxYjmLxb1SsCaiaAER+7tFxzd9PlRWwiIdCdzYB4cpf4J/z1xrzbzUBAMKfk2HxJ+oWbABse2nfmyFyUNUVou0EQPVjLP7Nk+Py90JkGUTjH7BiPQHwx554MHKVfnvsvQ6n1RS98thBeP7KH1XmazMB4MqfqKuwAbBEFZ5+b8V6QAeDK/xbUBrbTgD0HDl68l/czKj/yTsnvouCLglPBwBuEoD4+Ft6XeeTAL1ydDmMyQP+yh9V5msrAVB9EsLiT9RN2ADYcv/wJRA5tu4K0VYCAD1HFk9m6qNoXZD35O+FJvYEuEgAgrEnHiBX6JqRE1KYXkXF4i/j4Tn/4gT8CycJwC8wUFjM4k/UXdgAWKD3rfhHqJ7uj/wLhwmAsvjbFGsC3CcAxT0BKtd1ogkoFn+MQzCj6jxsJgBGnwTMIjkj/7PUJklEDZH6d6Fa9L6hPwfwb/WLejPj4MGT3wws/g7p9cMLi+99L/NbelObei+FK3+cAkRPklUb1qUyvytHl0NlHMCMtubR6NcZxv5E3YwNQBv0vuUrAMkDIi29TrzZsYLF3zG9cfRgQG+DyvziFYgFM6U7Vhq3VEQLUD1JTnbbBBSLP8YBmVF3HtH5xsYs/kT9hA1Ai/Shpa/B9MCjgOxfvMZ1AqDnyCIW/zQUmwDcBsV8xwmAfz0KULxbTh6/2cl8guIvMqPh52F7CcCTUBZ/om7HPQAt0PsOm4HpgZtKxR+lc6ZO9gCw+KdJ3jXxEIBjAH3RyR6Ast87chBzvV47dpztuZSt/BuZR3t7AFj8iXoEG4CWvOzLEDksdlWju8Rr7aKu/CqAT7P4p0/eNfEQRI6B4EWrrwKo+HsHAG8AolabAL1ydDngr/zDw21gHtH5NvcqABZ/oh7CUwBN0vtXrATk5sbOCSfHTZ8O+LQsyn/J9hyocXrj6MHQyJ6A8IbkHQE7MbqZBrz3tHs6ICz+4co/8m3qzaO1PQAs/kQ9hg1AE/T+oT+C6IPQSh8kY3kPgODTcgSLfzcoNgGRPQH29wAkvqFOA9JyExAr/mVF38kegCdhWPyJeg0bgAbp4yOz8FLhQai8sXhF8g6NjBtsBkRY/LuM3jh6MAp6GyTy6oDYHQA7CUBwPzMNlZVyykS+qeOsVvzdJQAs/kQ9insAGvVS4Z+h8sbSudTE7db2AOCzLP7dx98YOAjIS8UrbO8BSJ5z9wYgskGvHRtr9Bj1qpEReDIVnvOPBEqO9gCw+BP1MCYADdAHlh8O9e4tWxnF7tTIuM7KT/WLsmjqM3aPnmzSdSOHQOQ2KPaN3wDYTQCizwszJqvzEzWP66qREYg3UXXFbz8BYPEn6nFMAOpQPTEHlcuqrqgCbScAuJbFv/vJCRsehIe3A3jRv8a/sJ0ARMaSu1GvGR2udkx6zehyQG4qe366SgDUPMHiT9T72ADU8+CLH4PImyuujKLaex+AKbxt/qluJkC2ybsmHoLBMVB9sez329r7ACD2OILS9cXxTAA36TUjS5PHotf47+1f75x/eNnA87T8+0fmYZ5AzmPxJ+oDPAVQg35/5HdQKPwYkDnFK1CjCWgw3i2L/eVevGrX2+UPtu5KZVJkja4ZPRgimyG6oKGi3/CrAFD+PBMARndBdExO2bAZiBR/qfJSv4qxf4unIUQA4xf/993ypK2fIRF1DhuAGvSBoTyAoeIAdRKARsZlK7/HMGv3Yjlk6/P2jprSpOuGDoTmbgewwNkegNjY7IJgDJBcU8W/3T0ARln8ifoMG4Aq9KHl74LxbmgoVgXQdAKg8gS8XUfIW7c+ncJ0yCG9YeggmIGtUN3faQJQivF3QWR2018HoOHnaeyDfbjyJ+pHbAAq0McG52HXzMfhyasaK/6NjsM/snsgeqi8dfIxi4dNHaTrhg6EGbi94dMBrSYALTcNqNAMVBlH78eVP1Hf4ibASvbOOjcs/vV2VQeaeRWA6idZ/PuLnDD5GLzpowH5DWy/CiA6Du+XPACUPz8rPV+beRWAsvgT9TMmAAn62OA87Jn5FBTzwj+GgL0EQM2EHDHV8Ju7UG8JkwDogp5OAIw+AY/Fn6ifMQFImp75cUBKxd9uAvA0Zu1Z7eS4qSvEkoBeTQBY/IkygQlARHH1P+PngLd/aeUV3Ig2EwBVqPd2OSJ/h+XDpi4USwJ6KQFg8SfKDCYAUXtnfgzi7Q8A1hMAeBew+GdHMQkoDELk+d5JAFj8ibKECYBPHxuch70zfw7F/vGVV3AHtJMAPI3pF18ni+7eaf3AqavpuqEDUaiwJ6DrEgB9AmDxJ8oSJgCBPbP+Cir7l6+8/NvbSQAEf8nin01ywuRjyFXYE9BVCQCLP1EWsQEIqDmn+EfTXxKF74Ee3I46CUDihtJ4kyycvN7JMVNPkBMmH4PoMRB5vsXPAqhwv8Q3aSQBCB4v9jiGxZ8oo9gAANAHl58Izzug8srLv1OrCYBO/4Wbo6ZeIqsmHgH07RB5tnsSAK78ibKMDQAAQM6uvvLy79JSAqBfkrfd+mNnh009RVZNPAJv+hioPNP5BMA8BWXxJ8qyzG8C1MeW/R72ej8DRJreSBX7I5zYqKXyNKZf4MY/KqNrht8Ak7sDoge0tKEver+mv04AY57DgHeErL7l8TanQkQ9jAnAtPeBYvG3nQCYz7H4UyWyKv8jeIXFUHkm9QTAmBcAs4TFn4jYAEDeX7yodu41uBsa3wOg+qS8beoShwdNPa7YBJhjinsCgNT2ANsnWjYAABp6SURBVHjySXlf/mGLUyGiHpXpBkC/v/w4qL6qOLCYAIhc4PCwqU/Iqg0/gBSOguKZ9PYA4Mt65dgiy1Mhoh6U6QYAKmdVXWm1nADgeex98RvOjpn6iqzK/wg5/3QAkMarAOZBsYlNABFltgHQ/1m2HyCjVVdarSYAai7kuX9qRqkJwDMpvQpgDhSb9IqRpdYnQ0Q9I7MNALbLCgA5uwmAbseMvV91etzUl2RV/kdQ72hAnk3pfQDmQGWcTQBRdmW3ASjIsTVXWq0kAIpL5JCtz7s9cOpXcsr6H0L3LgbwbCrvBCgyG4ZNAFFWZbIBUIVAZLTmSquVBEDkardHTv1OTpn6IXKFo4AqewJsfxaA57EJIMqoTDYAeHjZ2wA9wGoCYMxPZeHk99weOGVBzT0BNhOAYMwkgCiTstkAqDdWd7d1swmAJ5e5PWjKElmV/xEGCosBecZpAhA+35kEEGVNNhsAyFjd3dbNJgCe4Rv/kFWyKv8jFAqLAfzSaQIQjIMk4FvDi+3Ngoi6VeYaAP3R4AEQPcRqAqB6lxy68Rfuj56yRk7N/wiKRYD80r8mdlG6I9pLABBNAnKT+q1j2QQQ9bnMNQDYPbASwQf3WEsA9Arnx02ZJavHf4JC4Rio/sppAhCMPcyF0UkmAUT9LXsNgHiH+3GnxQRg703uD5yyTE7N/wiQI8MkwFkC4D/vPZnLJICov2WvATB6qOUE4L/lrVufTuPQKdtk9fhPiqcD8EunCYCEl3NRYBJA1K8y1QCowgPkMLsJgN6WysETIdIECH4ZvwF2E4Dgek/mosAkgKgfZaoBwA/e8ScAZlhNAES3pnLsRL5YEhBwkQAEY89PAi5hE0DUT7LVAOz1DvXfs99eAlDYuymVYyeKkNXjPwEiTYCrBCC6J0B0Ui8dfZv92RBRJ2SrAfDk0OLKxlICoPoTnv+nTok1AS4TgHBPgMwFZBObAKL+kK0GwPiv/7eWAAjP/1NHhU2ARJoAwH4CUPp/M49NAFF/yFYD4Hl2EwAPd6d27ERVyOrxn8BMLwb0V04TAESaAGUTQNTrMtMA6PdXvAKq860mAEYeT20CRDXIqZP/DZEjw1cHuEoAggf22AQQ9brMNADIyauLf8wsJgCiP0rt+InqCE8HKJ50mgCE/3/YBBD1suw0AAW82v+jBUsJwG45fPKp9CZAVJ+sHv8JPD0KiDQBiF5aSgCiewLYBBD1pOw0AFKwnQA8lt7BEzVOVk88EWsCADcJQHRPgJFNeumxh7qbFRHZlp0GQHN2EwCA8T91rVgTALhLAKJ7AozZzCaAqHdkqAEwlhMA/XF6B0/UvLAJ0GgS4CABCMaetx+bAKLekZ0GwJNXWU0APHkyvYMnao2snngCMwqLESYBjhIASTQBl40e7HpuRNSe7DQABr9tNQEw+lJ6B0/UOjk5/zPkgiTAYQIQ/P8Sbz8U8B29bHB2GvMjotZkpwHw5JVWE4ABfTG9gydqj6yeeALYezREfuFf419YTgDC/1/eazE99ytpzI2IWpOdBkDNvlYTgAIbAOotctrUT+GZ4vsEuEwASnsC/lz/Y2RpWvMjouZkpwGA7GP3fQAG2ABQz5HVE09gwD8dADhMAMIm4K9TmxwRNSU7DYDqLKsJgAc2ANSTwiYA+n9OEwARwChfEUDUpbLTAHjegNUEYCZPAVDvktUTT6Bgjgbgf5y1swTg1XrZO/dPc25E1JjsNAAVVyhoOQGQAyefS/HoiayTM/I/g5G3F0eOEgBVQPcenurEiKgh2WkARHbbTAD0scF5KR49kRs5/XDxH44SABHAmGdTnRMRNSQ7DYAxu6zuAdgONgDU0/SKsa9A8TF/5F/Y3gNg9qLwq0dTnRgRNSQ7DYAnu6zuAcjNYgNAPUu/NXY+gI85fxWAeI/KB+/fm+LUiKhB2WkAjNpNADzDBoB6kn5r7HwIPlEcOH4VgJqHUpsYETUlOw2A59lNAArKBoB6jl4ZFP/I87z4j9LYVgJgdAcGcv+c1tyIqDnZaQBsJwCSYwNAPUWvHDsf6q/803gnQOBUOWP9D93PjIhakZ0GQPCc3XcCZAJAvUOvGv17AJ9w/mmApf9f/0/OHr/B/cyIqFUDnT6AFD1V9XXKNcf+VycTAINXd2AORE3TK8fOh8EnYit7pwkArsbPbznH+cSIqC3ZSQCAX9hNAOSP0zt0otbolWPnA37xByqv+JPj9hKAdfj5+GlyHozbmRFRuzLUAJgnre4BUGUDQF0tLP5A9Hkb/KP6uPUEYB3mzTmJxZ+oN2SnAfBythOAN6R38ETNKV/5B5fOEoBi8V+1tuBsUkRkVXYaAJ3+ud0EAK9N7+CJGlfa8If48xdwlQCw+BP1oAw1ALmH7SYAgN674s3pTYCoPr167HxAPlfp+Vq8tJ4AsPgT9ajMNABy0NR2iPyfxQQA8DzuA6CuoVdHXudf6fkK2E4AWPyJelhmGgAAgJqHbSYAUGUCQF1Brx77B2jinL/LBIDFn6jnZasBEO9RqwkAdDCtQyeqxl/5f6b+8xV2EgBl8SfqB9lqAIx5xG4CgCN1y2CW3kyJukzxnH9kw5/rBEBxM4s/UX/IVgOQ8zcC2koARGZjv5mLUjt+ooiw+ANVnp+JMdBeAqC4GX+w/T0s/kT9IVsNgPe/P4SIsZYAAIARngag1MWKP1AtobKYAPjFf8nWactTIaIOyVQDIAf+YA+M/pe9PQAA9wFQ2sqKP+A6AbgZr2XxJ+o3mWoAAAAe7rKaAHAfAKVIrx47HxLZ7R9wlgCw+BP1q+w1AIopqwmAyGzsO2sonYOnLCsWf42/t394I1wkACz+RH0sew2A2bMJMGotASg6xfVhU7bptf7KP1ypJ+5gOwFg8Sfqe5lrAOSQrc8D8j17ewAAqL5L7zpyjvujpyzSa8fOh/or/3ClnrwT7CUALP5EmZC5BgAAoDplNQEQmYNZ+x7n/sApa4rFH58oX6kn7mgrAWDxJ8qMbDYA0CmrCQAAGOFpALIqXPlHn5cuEwDVPIs/UXZkswE4aPoeCLZb3AMACEb0h0ft6/bAKSv02uAd/hLPS1cJgCKPufscz+JPlB2ZbABEtk5DsdFqAqCYgZf2WeX2yCkLisU/2O2feF66SABU85g793hZtXaPzXkQUXfLZAMAABDcYjcBEEDl/W4PmvqdXjf6RSByzt95AuCv/Fn8iTInuw3A3NxauwmAAoIj9f6ho90eOPUrvW70i1B8qubz0moCoHnM5sqfKKsy2wDI6ze8CINrrSYAAFDAZxweNvWpYuwvn6r76hRrCQA2YjZX/kRZltkGAAAg5nKrCQAACIb13hVvdnjU1GeKb/JT5Zy/kwRAN2Ln02Ms/kTZlu0G4KCNGwH8AoC9BAACqPytu4OmfqLfTr7Dn+sEABux85dj8sH791qeChH1mEw3ACJQqF4OwF4CAAUEJ+iDw7/v8NCpD+i3K73Dn8sEQDdix9Ms/kQEIOMNAADAk4sB2E0AAA979bPOjpl6nn7bf6lf3U/js5UA6Ebs4MqfiEqSf0YySR9ccSeARcU/tv5fTdXSH1+gkfcBSIx1Lzz8qRw+9UN3R069KCz+iDzfkHzeVRmH90s+KMqfn+GYxZ+IyjEBAADI5ZYTAEC8GTC42N0xUy+KFX9oheeN5QSAxZ+IqmADAAAHvHgVVH9jbQ9AOJaj9N6hU50dN/WUsuIfJgCAkz0ALP5EVAMbAADyu3fvhOBCuwmAf6lyIT8jgOLn/CPV2lUCAIyz+BNRLWwAArO3/wsEL9lNAABAD8CL+3zJzUFTL4gV/0rn/Iv38i8sJACKcfzO9ney+BNRLWwAfPInd74Eo/9qPQEojj+k9w//qYvjpu6ma/03+QmKv+sEAH7x56f6EVEdbABichfCmJ0AbCYAAESw16zTnw7OdnPc1I10bfA6/1q7+S0mAMA4XsPiT0SNYQMQIYdu+HX5+wIEN6KdBADwvNfjl7O+7uCwqQuFxV8iK32XCQCLPxE1iQ1AktEvQXXabgKA4I//GXrPipPcHDh1i1jxr/t6fgsJgLL4E1HzytcRBH1g6N8g+POGP2AFQOmPefKPe2KsshMoHCRHbHw8jblQuvT6sS/B6N9ULPpW3tQncT/oTbJ64p3OJkREfYsJQCWy+9NQ87z1BAACiM6BeDfqY2+a6eTYqWN07dj5zRf/NhIAxTh+e8cJqUyOiPoOG4AK5JCtz0Pkb6zuAYid+8WBeOl3L7R/5NQpui7xOv/kOX/7ewAY+xNRW3gKoApVCB4a+i4UC4tXoE4C0Mg4sfITOUvelr/E6oFT6nTdyPlQKX+Hv4YTgKa/7ka8evsqFn8iagcTgCpEoDByFsTPXq0mAOEf9W/q3cPHuZkBpaG48pf4yt9tAnAjBuaeyOJPRO1iA1CDHJZ/GIpvArC3ByC+8vMgulbvGV7sZALklK4b8d/bH/EVu7s9AMXiv2ptIa05ElH/YgNQj+z5FKDPO0kAiuOZUJ3Qe0cOcTQDciBc+Sd/v+4SABZ/IrKKDUAd/obAcx0lAPCLwL6YLmzUO0f+0NE0yKLYyj/5+3WTANyIHIs/EdnFTYAN0geGNkAx3Pb7ANQaG30CwDJZNPnfqUyKmqbrRi+E4JyWNvC19D4A+m05eYJvHkVE1jEBaJTZfSqAp50kAKXi8FpA79S7eDqg2+h9h83Q60fXFIs/qv9+7SYANyK3z+o05kdE2cMEoAl637LF8HK3Qf3GyXYCUBpvh2ClHDG5JaWpUQ26fuVc7C1MQHFMA02cnQQAjP2JyC0mAE2QwzfdAaOfA+AmASiN94HRSb17+N2OpkIN0jUjL8fewp3F4g/U/f3aSABY/IkoBUwAmqQKwQNDGwG8w10CEH4zBfBXsmjya84nRmX0+tHXArgNwGutvIlPIwmAsvgTUTqYADRJBArdfRIMno7dYDUBCO8vAL6qdw1/Qx8fmeVoSlSB3jiyAoIHAbw2tivfbQJwHYs/EaWFCUCL9P5lQ9BcvnSNiwQg+g31UeTMu/kpgu7p9SP/BM/7ZGPF21ICoLhKTh4/tSMTJqJMYgPQAr1v5VxgzySA0jv4Vd7IlRi32RwotsPDB2TR5DUOppV5ev3QqwHvBnhyROzVHpFgpnTnSuMmmoH47/k6/Nn4KSJlj0pE5AwbgCbpTwdn49lZGyFY7H4PQPKbh//6Jl4hfyWv37Db8vQyS28cWQHIdQAWhO/El0YCoCz+RNQZbACaoD8dnI3nZo4DsrSxFWFybKM58C8NHsaAniFHTj5gcYqZo1sGZ+P5OV8A5OPFKxBf8btNAK6SP2PsT0SdwQagQWHxl0jx71wCEIwNoN/APrs/I4dsfd7GPLNEbxo+ESpfhsrvxm+A+wSAK38i6jA2AA2oX/wbHVtMADT22M9A8Ckclb+UBaU+Xb/89Zge+A+IHFPx9+Q6AWDxJ6IuwAagjrLinywOoY4kAHFGvwfgQ/J2nhaoRCdX7IOdufOg+ChEZpRuSN4R7hIAyHVYxeJPRJ3HBqAGfexNM7HrdzbUL/6Njh0lALHvpwrgJoj5B1m88b5m59yPdOOy/bB9xkch8hEo/v/27jZGrrIM4/h1n+22tBRbGwhBm2hgg9hGGmgxFBEKzc5uS4Bi2SXSGCPGII1B1GCMAT8RQSywRkGIjS8I8qI1bQpbthJLLcurldLStRBQQRFazEIlKcJ2ntsPszudnZ3dPTN7ZvfMzP/3ZfY5c/bMec6Hve/nmpmzxw5/snhnVS8BoPgDSBEagDH4XzLdMlsxajFIWwIwMhHYIdMtdk7PphjTrTu+qfUjsmnXKtiVMs088kTxjiXGSScArrvssu6vVmuuAFAuGoASfO+C6Xp//iaZtccr/nHHk5EAFI1zu++Wh5t1zpz7zer/LnO+qa1Fsusku1xSc9lNVdIJgOsGu6z7+krnAwDVQANQgj/X9pCkC8YtBmlPAIaKUr4Yhdfk0a9k2V/YuVv/PvZVqC3+4NKZmjVntYJdLtmK4U8W7xxjnFQCIFtrnQ//NJlZAkByaAAKDF/5D/0xH3pStZwAlBj7M5LfI//gPjvvsf+McklSzR/saNLMd9tyK31fJUVHJ9JUJZEAhDCgyDqso7sh334BkH40AIPcl03TczM2K9LYsX9NJwClVqo6rKCtinSPph/caGc9+d4olyg1fHP7UilaI/NOyY5L5joVjSeWAByS+0rr3LK94kkCQJXRAGio+DdvUBRdNPKP/tBOqrMEoHCcbwb+p+DPKLI/KWR3aM5Rj9uSzYc0hdxleqT9U8rauZLOkeuzMju+qk3VRBIAD/2SLbfO7l3lzxYAJg8NgCR/rm2jTBfHK5ZF47xaTQDGTQh2Kvh2WbRP0isKAy9b66OvjbyKE+fbls3W+zNOVlYtsqhFrqWSnS353ESaoXLGlSQAwZ9Xky621d2vVjJ/AJhMDd8A+K7WDVL0udGL4NCOSiYBcL9FkZ5R0M8k+1C6EoAymoMQ9kn2iqSXFNl+hdAvqV9Z9SsKb6up+W3NONhvZ/e+648uP17Zpg9Lmie33KM0T4rmKegkSSdJapHp2FQ0VZUkAMF/Y51b1ggAakTDNgDuHU3a9d/fK9JF5RXLonFejGKk0GWf3voNSfIn2z8uC7+TosXpTgBiNkNlX7cpeDuknHHsBECH5X6tdWzpEgDUkGiqT2Aq5Ir/wftzxd+HNg7+bS8eD/2SxkkAip4oHhcUf0mypY/8Q+99cKYU1kny4cUlxvFiJwCjzatwHPvtgBjHK3GdSo1jzTNuMxDneONcp8LxWPMrPK77W/Ls+RR/ALWo4RIA944m7T54v2SXJrOSHTJWsRpe/Eec01OtGanpXrkfSwJQMwnATunwhba65w0BQA1qvAbg+dYHpagjkaI37MCjjE232hk93xr3vJ5afry8+QHJz0206MUqzkk0BwXnVXETVTxOojnIRw4xXi/G+eY2/thWb7laAFDDGqYByK/8zS6dULEqKwEYe+U/8hxlerJtrWQ3ynQMCUDKEoAQ+mThC7aa/7YIoPY1xGcA3BWNLP4+9nu9E/4MQHnFX5LM5HZWz+2a7p9Q8IeHH6/4+MWvP8qYzwDEu06F45HzO6Tg31aYfSrFH0C9qPsEwF2R9mTulmxNInF1rAQgdNkZ5RX/kuf+RGaVFP1E0kdHvl7cMQnAhBIAtx41DXzFVm39pwCgjtR1AzB28U+g6A17sfwPiRT//NEe/8wximZ/X661kkVlF71YxTmJ5mACTdWo80iiOchHDjFer+D8gl5XpK/bJd0bBAB1qL4bgN2ZX8rsi4kWq7ESAIV1tmTrtVWZS2/7GZLuknTakY3FO5UakwCUNXZ/Q64blX1nvXWm//8iAECl6rIByK/8bXDlX62iN/xFE135jzq33rYL5HadpDOHP1G8Y8EjCUCc6/Q3RbpZ8/f/3JbsHBAA1Lm6awDcZdqT+XW++CddrEoVr0kq/oX8ifblCrpO0rIjG4t3kkgAxht7n9xv1MAx91nnb7MCgAZRfw3Antb1UvTlSSl6uR+qFvvH4b3tSxX8e5K1D3+i4JEEoNTxn5b7TXbJlo2lrywA1Le6aQDcZXohs15mV1S1WBWOw+Sv/EfjT6w4TVm/XvJVuUmKBKB47H5Qsnsl3WmruvfEvbYAUI/qogE4Uvx1xaQVvRQV/0Leu/JjyobLJV8j2UISAJfcdki+XtP1gK3c8n5lVxYA6kvNNwAjVv7VLlYmyb3LFqev+BfzHW2L5LZGQZ9XZPMbKwHwt2S6WyHcaRf3vDyxKwkA9af2G4C9mTvkump4kaliAhB0qy0Z/97+aeOPtZ0n2SWSr5BZS50mAG8q+APy8JCt6nl04lcNAOpXTTcAvjdzh2RXTV6xqo2V/3h824r5inyl3Nuk6Hy5z63ZBMC1W66NUthkF3GbXgCIq2YbAH8hc7tMa0sXmSokADW68o/Dt2fOUogykrXJ/cyUJwCvyvWsTL1qzm6wNm7RCwCVqMkGYNjKfzKKVaiPlX8cvm3ZUVLzKfJogdw+KdMCuS/IvW1g03I7aXISAPc3ZXpWQX9WpGcVhaetvae/itMHgIZRcw2A7239kWRXj11kEkwAgq+zxVP3Pf808T+2LVTW5ivSCQo6Tqbj8o/SHLnNlnS0TLPkOlrS3NGbKr0u6YDk++V2QOYH5LZf0gF59g1N0z5W9wBQPTXVAPgLmdsU2TWT9oG1Blr5AwAaS800ALnir2vixcwJNAcUfwBAHauJBsD7MrdJg8V/Ur6y5l12GsUfAFC/oqk+gfF4X+YG5Yu/Bov34OOo47jNQMnfp/gDAOpeqhMA39t6pSK7c9JuWhN0q51en1/1AwCgUGobAO9rO0HylyXNym1QGV81q6g5YOUPAGgY6X0LwMJ3Jc3Ktyj5r4kPbhi6SU/JcUFxH3M89Hu+juIPAGgkqUwA3Bc3q2/eAUU2t7KbzZSRAMi7bBHFHwDQWNKZALw4b1G++FczAaD4AwAaVDobAPmJY3xFb3A8wW8BUPwBAA0snQ2ARzMLbw0vKekEYB3FHwDQyNLZAETZviomAF22iHv7AwAaWzobgJPf2SVTqEICQOwPAIBS2gCY7RyQ668JJwAUfwAABqWyAZAkReH2BBMAij8AAAVSeR8ASXKXaV+mV66luQ2q9D4AXXYqxR8AgEKpTQDM5LKBL0l+OLdBlSQAFH8AAEpIbQMgSXbKthfl+pqkSj4DcBPFHwCA0lL7FkAh7zv/dPm0eyWdEuv2viF8x079ww+m+LQBAEitmmgAhvje1lsk+2ZuoOJ/5fuizHsUBn5oix7711SdIwAAtaCmGgBJ8n9fOEv9hxZKUYvcT1RkL2mGbbeWrQem+twAAAAAAAAAAAAAAAAAAAAAAAAAAAAAAAAAAAAAAAAAAAAAAAAAAAAAAAAAAAAAAAAAAAAAAAAAAAAAAAAAAAAAAAAAAAAAAAAAAAAAAAAAAAAAAAAAAAAAAAAAAAAAAAAAAAAAAAAAAAAAAAAAAAAAAAAAAAAAAAAAAAAAAAAAoDL/BxH2yW/L09SNAAAAAElFTkSuQmCC;fontStyle=1;fontSize=8;fontFamily=Comic Sans MS;" vertex="1" parent="106">
                    <mxGeometry x="16.5" y="35" width="24" height="24" as="geometry"/>
                </mxCell>
            </root>
        </mxGraphModel>
    </diagram>
</mxfile>